<ttFont>
    <TTGlyph name=".notdef" xMin="53" yMin="0" xMax="645" yMax="809">
      <contour>
        <pt x="645" y="0" on="1"/>
        <pt x="53" y="0" on="1"/>
        <pt x="53" y="809" on="1"/>
        <pt x="645" y="809" on="1"/>
      </contour>
      <contour>
        <pt x="609" y="31" on="1"/>
        <pt x="609" y="778" on="1"/>
        <pt x="89" y="778" on="1"/>
        <pt x="89" y="31" on="1"/>
      </contour>
    </TTGlyph>
    <TTGlyph name="A" xMin="-1" yMin="0" xMax="452" yMax="483">
      <contour>
        <pt x="452" y="0" on="1"/>
        <pt x="383" y="0" on="1"/>
        <pt x="320" y="159" on="1"/>
        <pt x="129" y="159" on="1"/>
        <pt x="67" y="0" on="1"/>
        <pt x="-1" y="0" on="1"/>
        <pt x="199" y="483" on="1"/>
        <pt x="253" y="483" on="1"/>
      </contour>
      <contour>
        <pt x="296" y="213" on="1"/>
        <pt x="226" y="411" on="1"/>
        <pt x="152" y="213" on="1"/>
      </contour>
    </TTGlyph>
    <TTGlyph name="AE" xMin="-10" yMin="0" xMax="555" yMax="483">
      <contour>
        <pt x="555" y="0" on="1"/>
        <pt x="326" y="0" on="1"/>
        <pt x="299" y="190" on="1"/>
        <pt x="159" y="190" on="1"/>
        <pt x="58" y="0" on="1"/>
        <pt x="-10" y="0" on="1"/>
        <pt x="249" y="483" on="1"/>
        <pt x="543" y="483" on="1"/>
        <pt x="543" y="428" on="1"/>
        <pt x="325" y="428" on="1"/>
        <pt x="344" y="281" on="1"/>
        <pt x="533" y="281" on="1"/>
        <pt x="533" y="226" on="1"/>
        <pt x="353" y="226" on="1"/>
        <pt x="379" y="55" on="1"/>
        <pt x="555" y="55" on="1"/>
      </contour>
      <contour>
        <pt x="291" y="244" on="1"/>
        <pt x="272" y="405" on="1"/>
        <pt x="186" y="244" on="1"/>
      </contour>
    </TTGlyph>
    <TTGlyph name="Aacute" xMin="-1" yMin="0" xMax="452" yMax="636">
      <component glyphName="A" x="0" y="0" flags="0x204"/>
      <component glyphName="acutecomb" x="366" y="136" flags="0x4"/>
    </TTGlyph>
    <TTGlyph name="Abreve" xMin="-1" yMin="0" xMax="673" yMax="1307">
      <component glyphName="A" x="0" y="0" flags="0x204"/>
      <component glyphName="breve" x="54" y="136" flags="0x4"/>
    </TTGlyph>
    <TTGlyph name="Acircumflex" xMin="-1" yMin="0" xMax="452" yMax="636">
      <component glyphName="A" x="0" y="0" flags="0x204"/>
      <component glyphName="circumflex" x="116" y="136" flags="0x4"/>
    </TTGlyph>
    <TTGlyph name="Adieresis" xMin="-1" yMin="0" xMax="452" yMax="605">
      <component glyphName="A" x="0" y="0" flags="0x204"/>
      <component glyphName="dieresis" x="55" y="136" flags="0x4"/>
    </TTGlyph>
    <TTGlyph name="Agrave" xMin="-1" yMin="0" xMax="452" yMax="636">
      <component glyphName="A" x="0" y="0" flags="0x204"/>
      <component glyphName="gravecomb" x="344" y="136" flags="0x4"/>
    </TTGlyph>
    <TTGlyph name="Aring" xMin="-1" yMin="0" xMax="452" yMax="680">
      <component glyphName="A" x="0" y="0" flags="0x204"/>
      <component glyphName="ring" x="92" y="136" flags="0x4"/>
    </TTGlyph>
    <TTGlyph name="Atilde" xMin="-1" yMin="0" xMax="452" yMax="592">
      <component glyphName="A" x="0" y="0" flags="0x204"/>
      <component glyphName="tildecomb" x="355" y="136" flags="0x4"/>
    </TTGlyph>
    <TTGlyph name="B" xMin="50" yMin="-6" xMax="366" yMax="482">
      <contour>
        <pt x="366" y="138" on="1"/>
        <pt x="366" y="-6" on="0"/>
        <pt x="154" y="-6" on="1"/>
        <pt x="109" y="-6" on="0"/>
        <pt x="50" y="7" on="1"/>
        <pt x="50" y="467" on="1"/>
        <pt x="112" y="482" on="0"/>
        <pt x="164" y="482" on="1"/>
        <pt x="347" y="482" on="0"/>
        <pt x="347" y="356" on="1"/>
        <pt x="347" y="292" on="0"/>
        <pt x="287" y="255" on="1"/>
        <pt x="366" y="218" on="0"/>
      </contour>
      <contour>
        <pt x="284" y="355" on="1"/>
        <pt x="284" y="427" on="0"/>
        <pt x="164" y="427" on="1"/>
        <pt x="143" y="427" on="0"/>
        <pt x="113" y="424" on="1"/>
        <pt x="113" y="278" on="1"/>
        <pt x="184" y="278" on="1"/>
        <pt x="228" y="278" on="0"/>
        <pt x="284" y="319" on="0"/>
      </contour>
      <contour>
        <pt x="304" y="137" on="1"/>
        <pt x="304" y="185" on="0"/>
        <pt x="258" y="208" on="1"/>
        <pt x="223" y="225" on="0"/>
        <pt x="171" y="225" on="1"/>
        <pt x="113" y="225" on="1"/>
        <pt x="113" y="51" on="1"/>
        <pt x="130" y="48" on="0"/>
        <pt x="163" y="48" on="1"/>
        <pt x="228" y="48" on="0"/>
        <pt x="304" y="94" on="0"/>
      </contour>
    </TTGlyph>
    <TTGlyph name="C" xMin="26" yMin="-7" xMax="410" yMax="483">
      <contour>
        <pt x="410" y="25" on="1"/>
        <pt x="337" y="-7" on="0"/>
        <pt x="236" y="-7" on="1"/>
        <pt x="141" y="-7" on="0"/>
        <pt x="26" y="128" on="0"/>
        <pt x="26" y="237" on="1"/>
        <pt x="26" y="345" on="0"/>
        <pt x="82" y="411" on="1"/>
        <pt x="144" y="483" on="0"/>
        <pt x="255" y="483" on="1"/>
        <pt x="340" y="483" on="0"/>
        <pt x="410" y="454" on="1"/>
        <pt x="390" y="404" on="1"/>
        <pt x="330" y="429" on="0"/>
        <pt x="257" y="429" on="1"/>
        <pt x="165" y="429" on="0"/>
        <pt x="122" y="361" on="1"/>
        <pt x="90" y="311" on="0"/>
        <pt x="90" y="235" on="1"/>
        <pt x="90" y="165" on="0"/>
        <pt x="125" y="113" on="1"/>
        <pt x="169" y="47" on="0"/>
        <pt x="249" y="47" on="1"/>
        <pt x="332" y="47" on="0"/>
        <pt x="393" y="77" on="1"/>
      </contour>
    </TTGlyph>
    <TTGlyph name="Cacute" xMin="26" yMin="-7" xMax="9423" yMax="3053">
      <component glyphName="C" x="0" y="0" flags="0x204"/>
      <component glyphName="acutecomb" x="357" y="136" flags="0x4"/>
    </TTGlyph>
    <TTGlyph name="Ccaron" xMin="26" yMin="-7" xMax="435" yMax="908">
      <component glyphName="C" x="0" y="0" flags="0x204"/>
      <component glyphName="caron" x="62" y="136" flags="0x4"/>
    </TTGlyph>
    <TTGlyph name="Ccedilla" xMin="26" yMin="-159" xMax="410" yMax="483">
      <component glyphName="C" x="0" y="0" flags="0x204"/>
      <component glyphName="cedilla" x="91" y="0" flags="0x4"/>
    </TTGlyph>
    <TTGlyph name="D" xMin="50" yMin="-4" xMax="433" yMax="481">
      <contour>
        <pt x="433" y="248" on="1"/>
        <pt x="433" y="140" on="0"/>
        <pt x="381" y="75" on="1"/>
        <pt x="317" y="-4" on="0"/>
        <pt x="184" y="-4" on="1"/>
        <pt x="143" y="-4" on="0"/>
        <pt x="50" y="6" on="1"/>
        <pt x="50" y="468" on="1"/>
        <pt x="164" y="481" on="0"/>
        <pt x="204" y="481" on="1"/>
        <pt x="326" y="481" on="0"/>
        <pt x="385" y="408" on="1"/>
        <pt x="433" y="349" on="0"/>
      </contour>
      <contour>
        <pt x="369" y="248" on="1"/>
        <pt x="369" y="427" on="0"/>
        <pt x="201" y="427" on="1"/>
        <pt x="173" y="427" on="0"/>
        <pt x="113" y="421" on="1"/>
        <pt x="113" y="53" on="1"/>
        <pt x="146" y="50" on="0"/>
        <pt x="196" y="50" on="1"/>
        <pt x="293" y="50" on="0"/>
        <pt x="337" y="119" on="1"/>
        <pt x="369" y="170" on="0"/>
      </contour>
    </TTGlyph>
    <TTGlyph name="Dcroat" xMin="9" yMin="-4" xMax="433" yMax="481">
      <contour>
        <pt x="433" y="248" on="1"/>
        <pt x="433" y="140" on="0"/>
        <pt x="381" y="75" on="1"/>
        <pt x="317" y="-4" on="0"/>
        <pt x="184" y="-4" on="1"/>
        <pt x="143" y="-4" on="0"/>
        <pt x="50" y="6" on="1"/>
        <pt x="50" y="206" on="1"/>
        <pt x="9" y="206" on="1"/>
        <pt x="9" y="260" on="1"/>
        <pt x="50" y="260" on="1"/>
        <pt x="50" y="468" on="1"/>
        <pt x="164" y="481" on="0"/>
        <pt x="204" y="481" on="1"/>
        <pt x="326" y="481" on="0"/>
        <pt x="385" y="408" on="1"/>
        <pt x="433" y="349" on="0"/>
      </contour>
      <contour>
        <pt x="369" y="248" on="1"/>
        <pt x="369" y="427" on="0"/>
        <pt x="201" y="427" on="1"/>
        <pt x="173" y="427" on="0"/>
        <pt x="113" y="421" on="1"/>
        <pt x="113" y="260" on="1"/>
        <pt x="273" y="260" on="1"/>
        <pt x="273" y="206" on="1"/>
        <pt x="113" y="206" on="1"/>
        <pt x="113" y="53" on="1"/>
        <pt x="146" y="50" on="0"/>
        <pt x="196" y="50" on="1"/>
        <pt x="293" y="50" on="0"/>
        <pt x="337" y="119" on="1"/>
        <pt x="369" y="170" on="0"/>
      </contour>
    </TTGlyph>
    <TTGlyph name="Delta" xMin="3" yMin="0" xMax="477" yMax="472">
      <contour>
        <pt x="393" y="47" on="1"/>
        <pt x="240" y="361" on="1"/>
        <pt x="87" y="47" on="1"/>
      </contour>
      <contour>
        <pt x="477" y="0" on="1"/>
        <pt x="3" y="0" on="1"/>
        <pt x="240" y="472" on="1"/>
      </contour>
    </TTGlyph>
    <TTGlyph name="E" xMin="50" yMin="0" xMax="333" yMax="476">
      <contour>
        <pt x="333" y="0" on="1"/>
        <pt x="50" y="0" on="1"/>
        <pt x="50" y="476" on="1"/>
        <pt x="333" y="476" on="1"/>
        <pt x="333" y="422" on="1"/>
        <pt x="113" y="422" on="1"/>
        <pt x="113" y="278" on="1"/>
        <pt x="309" y="278" on="1"/>
        <pt x="309" y="224" on="1"/>
        <pt x="113" y="224" on="1"/>
        <pt x="113" y="54" on="1"/>
        <pt x="333" y="54" on="1"/>
      </contour>
    </TTGlyph>
    <TTGlyph name="Eacute" xMin="50" yMin="0" xMax="611" yMax="772">
      <component glyphName="E" x="0" y="0" flags="0x204"/>
      <component glyphName="acutecomb" x="320" y="136" flags="0x4"/>
    </TTGlyph>
    <TTGlyph name="Ecircumflex" xMin="50" yMin="0" xMax="390" yMax="772">
      <component glyphName="E" x="0" y="0" flags="0x204"/>
      <component glyphName="circumflex" x="70" y="136" flags="0x4"/>
    </TTGlyph>
    <TTGlyph name="Edieresis" xMin="50" yMin="0" xMax="351" yMax="741">
      <component glyphName="E" x="0" y="0" flags="0x204"/>
      <component glyphName="dieresis" x="8" y="136" flags="0x4"/>
    </TTGlyph>
    <TTGlyph name="Egrave" xMin="50" yMin="0" xMax="589" yMax="772">
      <component glyphName="E" x="0" y="0" flags="0x204"/>
      <component glyphName="gravecomb" x="298" y="136" flags="0x4"/>
    </TTGlyph>
    <TTGlyph name="Eth" xMin="9" yMin="-4" xMax="433" yMax="481">
      <contour>
        <pt x="433" y="248" on="1"/>
        <pt x="433" y="140" on="0"/>
        <pt x="381" y="75" on="1"/>
        <pt x="317" y="-4" on="0"/>
        <pt x="184" y="-4" on="1"/>
        <pt x="143" y="-4" on="0"/>
        <pt x="50" y="6" on="1"/>
        <pt x="50" y="206" on="1"/>
        <pt x="9" y="206" on="1"/>
        <pt x="9" y="260" on="1"/>
        <pt x="50" y="260" on="1"/>
        <pt x="50" y="468" on="1"/>
        <pt x="164" y="481" on="0"/>
        <pt x="204" y="481" on="1"/>
        <pt x="326" y="481" on="0"/>
        <pt x="385" y="408" on="1"/>
        <pt x="433" y="349" on="0"/>
      </contour>
      <contour>
        <pt x="369" y="248" on="1"/>
        <pt x="369" y="427" on="0"/>
        <pt x="201" y="427" on="1"/>
        <pt x="173" y="427" on="0"/>
        <pt x="113" y="421" on="1"/>
        <pt x="113" y="260" on="1"/>
        <pt x="273" y="260" on="1"/>
        <pt x="273" y="206" on="1"/>
        <pt x="113" y="206" on="1"/>
        <pt x="113" y="53" on="1"/>
        <pt x="146" y="50" on="0"/>
        <pt x="196" y="50" on="1"/>
        <pt x="293" y="50" on="0"/>
        <pt x="337" y="119" on="1"/>
        <pt x="369" y="170" on="0"/>
      </contour>
    </TTGlyph>
    <TTGlyph name="Euro" xMin="29" yMin="-9" xMax="488" yMax="484">
      <contour>
        <pt x="488" y="25" on="1"/>
        <pt x="454" y="9" on="0"/>
        <pt x="368" y="-9" on="0"/>
        <pt x="326" y="-9" on="1"/>
        <pt x="290" y="-9" on="0"/>
        <pt x="220" y="13" on="0"/>
        <pt x="157" y="54" on="0"/>
        <pt x="106" y="110" on="0"/>
        <pt x="90" y="143" on="1"/>
        <pt x="29" y="143" on="1"/>
        <pt x="29" y="197" on="1"/>
        <pt x="76" y="197" on="1"/>
        <pt x="73" y="234" on="0"/>
        <pt x="76" y="270" on="1"/>
        <pt x="29" y="270" on="1"/>
        <pt x="29" y="323" on="1"/>
        <pt x="90" y="323" on="1"/>
        <pt x="125" y="398" on="0"/>
        <pt x="259" y="484" on="0"/>
        <pt x="343" y="484" on="1"/>
        <pt x="411" y="484" on="0"/>
        <pt x="485" y="454" on="1"/>
        <pt x="466" y="398" on="1"/>
        <pt x="410" y="429" on="0"/>
        <pt x="345" y="429" on="1"/>
        <pt x="275" y="429" on="0"/>
        <pt x="178" y="374" on="0"/>
        <pt x="154" y="323" on="1"/>
        <pt x="400" y="323" on="1"/>
        <pt x="400" y="270" on="1"/>
        <pt x="137" y="270" on="1"/>
        <pt x="133" y="234" on="0"/>
        <pt x="138" y="197" on="1"/>
        <pt x="400" y="197" on="1"/>
        <pt x="400" y="143" on="1"/>
        <pt x="156" y="143" on="1"/>
        <pt x="181" y="101" on="0"/>
        <pt x="274" y="47" on="0"/>
        <pt x="338" y="47" on="1"/>
        <pt x="371" y="47" on="0"/>
        <pt x="434" y="60" on="0"/>
        <pt x="464" y="74" on="1"/>
      </contour>
    </TTGlyph>
    <TTGlyph name="F" xMin="50" yMin="0" xMax="343" yMax="476">
      <contour>
        <pt x="113" y="0" on="1"/>
        <pt x="50" y="0" on="1"/>
        <pt x="50" y="476" on="1"/>
        <pt x="343" y="476" on="1"/>
        <pt x="343" y="422" on="1"/>
        <pt x="113" y="422" on="1"/>
        <pt x="113" y="272" on="1"/>
        <pt x="329" y="272" on="1"/>
        <pt x="329" y="219" on="1"/>
        <pt x="113" y="219" on="1"/>
      </contour>
    </TTGlyph>
    <TTGlyph name="G" xMin="26" yMin="-7" xMax="414" yMax="483">
      <contour>
        <pt x="414" y="11" on="1"/>
        <pt x="382" y="19" on="1"/>
        <pt x="324" y="-7" on="0"/>
        <pt x="236" y="-7" on="1"/>
        <pt x="141" y="-7" on="0"/>
        <pt x="26" y="128" on="0"/>
        <pt x="26" y="237" on="1"/>
        <pt x="26" y="345" on="0"/>
        <pt x="82" y="411" on="1"/>
        <pt x="144" y="483" on="0"/>
        <pt x="255" y="483" on="1"/>
        <pt x="340" y="483" on="0"/>
        <pt x="410" y="454" on="1"/>
        <pt x="390" y="404" on="1"/>
        <pt x="330" y="429" on="0"/>
        <pt x="257" y="429" on="1"/>
        <pt x="165" y="429" on="0"/>
        <pt x="122" y="361" on="1"/>
        <pt x="90" y="311" on="0"/>
        <pt x="90" y="235" on="1"/>
        <pt x="90" y="165" on="0"/>
        <pt x="125" y="113" on="1"/>
        <pt x="169" y="47" on="0"/>
        <pt x="249" y="47" on="1"/>
        <pt x="308" y="47" on="0"/>
        <pt x="351" y="63" on="1"/>
        <pt x="351" y="198" on="1"/>
        <pt x="231" y="198" on="1"/>
        <pt x="231" y="251" on="1"/>
        <pt x="414" y="251" on="1"/>
      </contour>
    </TTGlyph>
    <TTGlyph name="Gbreve" xMin="26" yMin="-7" xMax="741" yMax="1443">
      <component glyphName="G" x="0" y="0" flags="0x204"/>
      <component glyphName="breve" x="56" y="136" flags="0x4"/>
    </TTGlyph>
    <TTGlyph name="H" xMin="50" yMin="0" xMax="422" yMax="476">
      <contour>
        <pt x="422" y="0" on="1"/>
        <pt x="359" y="0" on="1"/>
        <pt x="359" y="226" on="1"/>
        <pt x="113" y="226" on="1"/>
        <pt x="113" y="0" on="1"/>
        <pt x="50" y="0" on="1"/>
        <pt x="50" y="476" on="1"/>
        <pt x="113" y="476" on="1"/>
        <pt x="113" y="280" on="1"/>
        <pt x="359" y="280" on="1"/>
        <pt x="359" y="476" on="1"/>
        <pt x="422" y="476" on="1"/>
      </contour>
    </TTGlyph>
    <TTGlyph name="I" xMin="50" yMin="0" xMax="113" yMax="476">
      <contour>
        <pt x="113" y="0" on="1"/>
        <pt x="50" y="0" on="1"/>
        <pt x="50" y="476" on="1"/>
        <pt x="113" y="476" on="1"/>
      </contour>
    </TTGlyph>
    <TTGlyph name="Iacute" xMin="50" yMin="0" xMax="833" yMax="908">
      <component glyphName="I" x="0" y="0" flags="0x204"/>
      <component glyphName="acutecomb" x="222" y="136" flags="0x4"/>
    </TTGlyph>
    <TTGlyph name="Icircumflex" xMin="50" yMin="0" xMax="369" yMax="908">
      <component glyphName="I" x="0" y="0" flags="0x204"/>
      <component glyphName="circumflex" x="-21" y="136" flags="0x4"/>
    </TTGlyph>
    <TTGlyph name="Idieresis" xMin="33" yMin="0" xMax="268" yMax="877">
      <component glyphName="I" x="0" y="0" flags="0x204"/>
      <component glyphName="dieresis" x="-83" y="136" flags="0x4"/>
    </TTGlyph>
    <TTGlyph name="Idotaccent" xMin="44" yMin="0" xMax="131" yMax="589">
      <component glyphName="I" x="0" y="0" flags="0x204"/>
      <component glyphName="dotaccent" x="-9" y="0" flags="0x4"/>
    </TTGlyph>
    <TTGlyph name="Igrave" xMin="50" yMin="0" xMax="789" yMax="908">
      <component glyphName="I" x="0" y="0" flags="0x204"/>
      <component glyphName="gravecomb" x="200" y="136" flags="0x4"/>
    </TTGlyph>
    <TTGlyph name="Itilde" xMin="50" yMin="0" xMax="7702" yMax="3276">
      <component glyphName="I" x="0" y="0" flags="0x204"/>
      <component glyphName="tildecomb" x="212" y="136" flags="0x4"/>
    </TTGlyph>
    <TTGlyph name="J" xMin="-6" yMin="-9" xMax="232" yMax="476">
      <contour>
        <pt x="232" y="160" on="1"/>
        <pt x="232" y="-9" on="0"/>
        <pt x="79" y="-9" on="1"/>
        <pt x="40" y="-9" on="0"/>
        <pt x="-6" y="10" on="1"/>
        <pt x="11" y="62" on="1"/>
        <pt x="40" y="45" on="0"/>
        <pt x="79" y="45" on="1"/>
        <pt x="126" y="45" on="0"/>
        <pt x="169" y="101" on="0"/>
        <pt x="169" y="170" on="1"/>
        <pt x="169" y="476" on="1"/>
        <pt x="232" y="476" on="1"/>
      </contour>
    </TTGlyph>
    <TTGlyph name="K" xMin="50" yMin="-7" xMax="418" yMax="484">
      <contour>
        <pt x="418" y="15" on="1"/>
        <pt x="358" y="-7" on="1"/>
        <pt x="152" y="229" on="1"/>
        <pt x="113" y="191" on="1"/>
        <pt x="113" y="0" on="1"/>
        <pt x="50" y="0" on="1"/>
        <pt x="50" y="476" on="1"/>
        <pt x="113" y="476" on="1"/>
        <pt x="113" y="266" on="1"/>
        <pt x="340" y="484" on="1"/>
        <pt x="401" y="468" on="1"/>
        <pt x="195" y="271" on="1"/>
      </contour>
    </TTGlyph>
    <TTGlyph name="L" xMin="50" yMin="0" xMax="346" yMax="476">
      <contour>
        <pt x="346" y="0" on="1"/>
        <pt x="50" y="0" on="1"/>
        <pt x="50" y="476" on="1"/>
        <pt x="113" y="476" on="1"/>
        <pt x="113" y="54" on="1"/>
        <pt x="346" y="54" on="1"/>
      </contour>
    </TTGlyph>
    <TTGlyph name="Lslash" xMin="21" yMin="0" xMax="346" yMax="476">
      <contour>
        <pt x="346" y="0" on="1"/>
        <pt x="50" y="0" on="1"/>
        <pt x="50" y="149" on="1"/>
        <pt x="21" y="142" on="1"/>
        <pt x="21" y="204" on="1"/>
        <pt x="50" y="211" on="1"/>
        <pt x="50" y="476" on="1"/>
        <pt x="113" y="476" on="1"/>
        <pt x="113" y="226" on="1"/>
        <pt x="338" y="279" on="1"/>
        <pt x="338" y="217" on="1"/>
        <pt x="113" y="164" on="1"/>
        <pt x="113" y="54" on="1"/>
        <pt x="346" y="54" on="1"/>
      </contour>
    </TTGlyph>
    <TTGlyph name="M" xMin="29" yMin="0" xMax="545" yMax="476">
      <contour>
        <pt x="545" y="0" on="1"/>
        <pt x="484" y="0" on="1"/>
        <pt x="458" y="369" on="1"/>
        <pt x="308" y="0" on="1"/>
        <pt x="266" y="0" on="1"/>
        <pt x="116" y="369" on="1"/>
        <pt x="90" y="0" on="1"/>
        <pt x="29" y="0" on="1"/>
        <pt x="63" y="476" on="1"/>
        <pt x="129" y="476" on="1"/>
        <pt x="287" y="80" on="1"/>
        <pt x="445" y="476" on="1"/>
        <pt x="511" y="476" on="1"/>
      </contour>
    </TTGlyph>
    <TTGlyph name="N" xMin="50" yMin="0" xMax="422" yMax="476">
      <contour>
        <pt x="422" y="0" on="1"/>
        <pt x="362" y="0" on="1"/>
        <pt x="113" y="386" on="1"/>
        <pt x="113" y="0" on="1"/>
        <pt x="50" y="0" on="1"/>
        <pt x="50" y="476" on="1"/>
        <pt x="113" y="476" on="1"/>
        <pt x="359" y="100" on="1"/>
        <pt x="359" y="476" on="1"/>
        <pt x="422" y="476" on="1"/>
      </contour>
    </TTGlyph>
    <TTGlyph name="Ntilde" xMin="50" yMin="0" xMax="691" yMax="728">
      <component glyphName="N" x="0" y="0" flags="0x204"/>
      <component glyphName="tildecomb" x="366" y="136" flags="0x4"/>
    </TTGlyph>
    <TTGlyph name="O" xMin="26" yMin="-10" xMax="492" yMax="485">
      <contour>
        <pt x="430" y="238" on="1"/>
        <pt x="430" y="320" on="0"/>
        <pt x="336" y="431" on="0"/>
        <pt x="259" y="431" on="1"/>
        <pt x="182" y="431" on="0"/>
        <pt x="88" y="320" on="0"/>
        <pt x="88" y="238" on="1"/>
        <pt x="88" y="156" on="0"/>
        <pt x="182" y="45" on="0"/>
        <pt x="259" y="45" on="1"/>
        <pt x="336" y="45" on="0"/>
        <pt x="430" y="156" on="0"/>
      </contour>
      <contour>
        <pt x="492" y="237" on="1"/>
        <pt x="492" y="132" on="0"/>
        <pt x="362" y="-10" on="0"/>
        <pt x="259" y="-10" on="1"/>
        <pt x="156" y="-10" on="0"/>
        <pt x="26" y="132" on="0"/>
        <pt x="26" y="237" on="1"/>
        <pt x="26" y="342" on="0"/>
        <pt x="156" y="485" on="0"/>
        <pt x="259" y="485" on="1"/>
        <pt x="362" y="485" on="0"/>
        <pt x="492" y="342" on="0"/>
      </contour>
    </TTGlyph>
    <TTGlyph name="OE" xMin="26" yMin="-10" xMax="698" yMax="486">
      <contour>
        <pt x="698" y="0" on="1"/>
        <pt x="415" y="0" on="1"/>
        <pt x="415" y="27" on="1"/>
        <pt x="355" y="-10" on="0"/>
        <pt x="279" y="-10" on="1"/>
        <pt x="168" y="-10" on="0"/>
        <pt x="26" y="132" on="0"/>
        <pt x="26" y="238" on="1"/>
        <pt x="26" y="343" on="0"/>
        <pt x="168" y="486" on="0"/>
        <pt x="279" y="486" on="1"/>
        <pt x="355" y="486" on="0"/>
        <pt x="415" y="448" on="1"/>
        <pt x="415" y="476" on="1"/>
        <pt x="698" y="476" on="1"/>
        <pt x="698" y="422" on="1"/>
        <pt x="478" y="422" on="1"/>
        <pt x="478" y="278" on="1"/>
        <pt x="674" y="278" on="1"/>
        <pt x="674" y="224" on="1"/>
        <pt x="478" y="224" on="1"/>
        <pt x="478" y="54" on="1"/>
        <pt x="698" y="54" on="1"/>
      </contour>
      <contour>
        <pt x="415" y="104" on="1"/>
        <pt x="415" y="369" on="1"/>
        <pt x="364" y="431" on="0"/>
        <pt x="279" y="431" on="1"/>
        <pt x="203" y="431" on="0"/>
        <pt x="89" y="314" on="0"/>
        <pt x="89" y="238" on="1"/>
        <pt x="89" y="160" on="0"/>
        <pt x="202" y="44" on="0"/>
        <pt x="279" y="44" on="1"/>
        <pt x="364" y="44" on="0"/>
      </contour>
    </TTGlyph>
    <TTGlyph name="Oacute" xMin="26" yMin="-10" xMax="1233" yMax="1044">
      <component glyphName="O" x="0" y="0" flags="0x204"/>
      <component glyphName="acutecomb" x="400" y="136" flags="0x4"/>
    </TTGlyph>
    <TTGlyph name="Ocircumflex" xMin="26" yMin="-10" xMax="519" yMax="1044">
      <component glyphName="O" x="0" y="0" flags="0x204"/>
      <component glyphName="circumflex" x="150" y="136" flags="0x4"/>
    </TTGlyph>
    <TTGlyph name="Odieresis" xMin="26" yMin="-10" xMax="492" yMax="1013">
      <component glyphName="O" x="0" y="0" flags="0x204"/>
      <component glyphName="dieresis" x="88" y="136" flags="0x4"/>
    </TTGlyph>
    <TTGlyph name="Ograve" xMin="26" yMin="-10" xMax="1167" yMax="1044">
      <component glyphName="O" x="0" y="0" flags="0x204"/>
      <component glyphName="gravecomb" x="378" y="136" flags="0x4"/>
    </TTGlyph>
    <TTGlyph name="Ohm" xMin="32" yMin="0" xMax="445" yMax="455">
      <contour>
        <pt x="445" y="0" on="1"/>
        <pt x="272" y="0" on="1"/>
        <pt x="272" y="131" on="1"/>
        <pt x="369" y="174" on="0"/>
        <pt x="369" y="269" on="1"/>
        <pt x="369" y="326" on="0"/>
        <pt x="295" y="401" on="0"/>
        <pt x="239" y="401" on="1"/>
        <pt x="183" y="401" on="0"/>
        <pt x="108" y="326" on="0"/>
        <pt x="108" y="269" on="1"/>
        <pt x="108" y="174" on="0"/>
        <pt x="205" y="131" on="1"/>
        <pt x="205" y="0" on="1"/>
        <pt x="32" y="0" on="1"/>
        <pt x="32" y="54" on="1"/>
        <pt x="150" y="54" on="1"/>
        <pt x="150" y="93" on="1"/>
        <pt x="109" y="113" on="0"/>
        <pt x="45" y="210" on="0"/>
        <pt x="45" y="266" on="1"/>
        <pt x="45" y="357" on="0"/>
        <pt x="151" y="455" on="0"/>
        <pt x="239" y="455" on="1"/>
        <pt x="326" y="455" on="0"/>
        <pt x="432" y="356" on="0"/>
        <pt x="432" y="266" on="1"/>
        <pt x="432" y="205" on="0"/>
        <pt x="369" y="111" on="0"/>
        <pt x="327" y="93" on="1"/>
        <pt x="327" y="54" on="1"/>
        <pt x="445" y="54" on="1"/>
      </contour>
    </TTGlyph>
    <TTGlyph name="Ohorn" xMin="26" yMin="-10" xMax="492" yMax="527">
      <contour>
        <pt x="492" y="237" on="1"/>
        <pt x="492" y="132" on="0"/>
        <pt x="362" y="-10" on="0"/>
        <pt x="259" y="-10" on="1"/>
        <pt x="156" y="-10" on="0"/>
        <pt x="26" y="132" on="0"/>
        <pt x="26" y="237" on="1"/>
        <pt x="26" y="342" on="0"/>
        <pt x="156" y="485" on="0"/>
        <pt x="259" y="485" on="1"/>
        <pt x="331" y="485" on="0"/>
        <pt x="387" y="448" on="1"/>
        <pt x="413" y="481" on="0"/>
        <pt x="413" y="527" on="1"/>
        <pt x="467" y="527" on="1"/>
        <pt x="467" y="469" on="0"/>
        <pt x="424" y="416" on="1"/>
        <pt x="492" y="345" on="0"/>
      </contour>
      <contour>
        <pt x="430" y="238" on="1"/>
        <pt x="430" y="320" on="0"/>
        <pt x="336" y="431" on="0"/>
        <pt x="259" y="431" on="1"/>
        <pt x="182" y="431" on="0"/>
        <pt x="88" y="320" on="0"/>
        <pt x="88" y="238" on="1"/>
        <pt x="88" y="156" on="0"/>
        <pt x="182" y="45" on="0"/>
        <pt x="259" y="45" on="1"/>
        <pt x="336" y="45" on="0"/>
        <pt x="430" y="156" on="0"/>
      </contour>
    </TTGlyph>
    <TTGlyph name="Oslash" xMin="26" yMin="-28" xMax="492" yMax="492">
      <contour>
        <pt x="492" y="237" on="1"/>
        <pt x="492" y="132" on="0"/>
        <pt x="362" y="-10" on="0"/>
        <pt x="259" y="-10" on="1"/>
        <pt x="212" y="-10" on="0"/>
        <pt x="173" y="4" on="1"/>
        <pt x="157" y="-28" on="1"/>
        <pt x="93" y="-28" on="1"/>
        <pt x="123" y="31" on="1"/>
        <pt x="106" y="44" on="0"/>
        <pt x="91" y="61" on="1"/>
        <pt x="26" y="132" on="0"/>
        <pt x="26" y="237" on="1"/>
        <pt x="26" y="342" on="0"/>
        <pt x="156" y="485" on="0"/>
        <pt x="259" y="485" on="1"/>
        <pt x="308" y="485" on="0"/>
        <pt x="348" y="469" on="1"/>
        <pt x="360" y="492" on="1"/>
        <pt x="424" y="492" on="1"/>
        <pt x="397" y="440" on="1"/>
        <pt x="413" y="428" on="0"/>
        <pt x="427" y="413" on="1"/>
        <pt x="492" y="342" on="0"/>
      </contour>
      <contour>
        <pt x="323" y="419" on="1"/>
        <pt x="294" y="431" on="0"/>
        <pt x="259" y="431" on="1"/>
        <pt x="182" y="431" on="0"/>
        <pt x="88" y="320" on="0"/>
        <pt x="88" y="238" on="1"/>
        <pt x="88" y="156" on="0"/>
        <pt x="135" y="100" on="1"/>
        <pt x="142" y="91" on="0"/>
        <pt x="150" y="84" on="1"/>
      </contour>
      <contour>
        <pt x="430" y="238" on="1"/>
        <pt x="430" y="320" on="0"/>
        <pt x="383" y="375" on="1"/>
        <pt x="377" y="382" on="0"/>
        <pt x="371" y="388" on="1"/>
        <pt x="199" y="55" on="1"/>
        <pt x="226" y="45" on="0"/>
        <pt x="259" y="45" on="1"/>
        <pt x="336" y="45" on="0"/>
        <pt x="430" y="156" on="0"/>
      </contour>
    </TTGlyph>
    <TTGlyph name="Otilde" xMin="26" yMin="-10" xMax="1080" yMax="864">
      <component glyphName="O" x="0" y="0" flags="0x204"/>
      <component glyphName="tildecomb" x="389" y="136" flags="0x4"/>
    </TTGlyph>
    <TTGlyph name="P" xMin="50" yMin="0" xMax="365" yMax="481">
      <contour>
        <pt x="365" y="339" on="1"/>
        <pt x="365" y="270" on="0"/>
        <pt x="254" y="185" on="0"/>
        <pt x="163" y="185" on="1"/>
        <pt x="140" y="185" on="0"/>
        <pt x="113" y="188" on="1"/>
        <pt x="113" y="0" on="1"/>
        <pt x="50" y="0" on="1"/>
        <pt x="50" y="469" on="1"/>
        <pt x="122" y="481" on="0"/>
        <pt x="177" y="481" on="1"/>
        <pt x="265" y="481" on="0"/>
        <pt x="365" y="402" on="0"/>
      </contour>
      <contour>
        <pt x="302" y="336" on="1"/>
        <pt x="302" y="427" on="0"/>
        <pt x="176" y="427" on="1"/>
        <pt x="142" y="427" on="0"/>
        <pt x="113" y="424" on="1"/>
        <pt x="113" y="245" on="1"/>
        <pt x="147" y="239" on="0"/>
        <pt x="170" y="239" on="1"/>
        <pt x="302" y="239" on="0"/>
      </contour>
    </TTGlyph>
    <TTGlyph name="PSK" xMin="58" yMin="-1" xMax="947" yMax="734">
      <contour>
        <pt x="212" y="520" on="1"/>
        <pt x="212" y="548" on="0"/>
        <pt x="168" y="548" on="1"/>
        <pt x="130" y="548" on="1"/>
        <pt x="130" y="491" on="1"/>
        <pt x="168" y="491" on="1"/>
        <pt x="212" y="491" on="0"/>
      </contour>
      <contour>
        <pt x="271" y="519" on="1"/>
        <pt x="271" y="446" on="0"/>
        <pt x="171" y="446" on="1"/>
        <pt x="130" y="446" on="1"/>
        <pt x="130" y="366" on="1"/>
        <pt x="72" y="366" on="1"/>
        <pt x="72" y="591" on="1"/>
        <pt x="182" y="591" on="1"/>
        <pt x="271" y="591" on="0"/>
      </contour>
      <contour>
        <pt x="779" y="366" on="1"/>
        <pt x="697" y="480" on="1"/>
        <pt x="697" y="366" on="1"/>
        <pt x="637" y="366" on="1"/>
        <pt x="637" y="591" on="1"/>
        <pt x="697" y="591" on="1"/>
        <pt x="697" y="495" on="1"/>
        <pt x="779" y="591" on="1"/>
        <pt x="849" y="591" on="1"/>
        <pt x="760" y="491" on="1"/>
        <pt x="856" y="366" on="1"/>
      </contour>
      <contour>
        <pt x="916" y="666" on="1"/>
        <pt x="911" y="640" on="0"/>
        <pt x="886" y="640" on="1"/>
        <pt x="855" y="640" on="0"/>
        <pt x="855" y="676" on="1"/>
        <pt x="855" y="712" on="0"/>
        <pt x="886" y="712" on="1"/>
        <pt x="913" y="712" on="0"/>
        <pt x="915" y="688" on="1"/>
        <pt x="899" y="688" on="1"/>
        <pt x="896" y="698" on="0"/>
        <pt x="886" y="698" on="1"/>
        <pt x="873" y="698" on="0"/>
        <pt x="873" y="677" on="1"/>
        <pt x="873" y="653" on="0"/>
        <pt x="887" y="653" on="1"/>
        <pt x="898" y="653" on="0"/>
        <pt x="899" y="666" on="1"/>
      </contour>
      <contour>
        <pt x="237" y="120" on="1"/>
        <pt x="237" y="146" on="0"/>
        <pt x="212" y="146" on="1"/>
        <pt x="185" y="146" on="0"/>
        <pt x="185" y="121" on="1"/>
        <pt x="185" y="96" on="0"/>
        <pt x="212" y="96" on="1"/>
        <pt x="237" y="96" on="0"/>
      </contour>
      <contour>
        <pt x="261" y="121" on="1"/>
        <pt x="261" y="79" on="0"/>
        <pt x="210" y="79" on="1"/>
        <pt x="162" y="79" on="0"/>
        <pt x="162" y="121" on="1"/>
        <pt x="162" y="162" on="0"/>
        <pt x="212" y="162" on="1"/>
        <pt x="261" y="162" on="0"/>
      </contour>
      <contour>
        <pt x="325" y="135" on="1"/>
        <pt x="325" y="145" on="0"/>
        <pt x="308" y="145" on="1"/>
        <pt x="293" y="145" on="1"/>
        <pt x="293" y="124" on="1"/>
        <pt x="308" y="124" on="1"/>
        <pt x="325" y="124" on="0"/>
      </contour>
      <contour>
        <pt x="348" y="135" on="1"/>
        <pt x="348" y="108" on="0"/>
        <pt x="310" y="108" on="1"/>
        <pt x="293" y="108" on="1"/>
        <pt x="293" y="83" on="1"/>
        <pt x="272" y="83" on="1"/>
        <pt x="272" y="162" on="1"/>
        <pt x="313" y="162" on="1"/>
        <pt x="348" y="162" on="0"/>
      </contour>
      <contour>
        <pt x="404" y="83" on="1"/>
        <pt x="381" y="83" on="1"/>
        <pt x="381" y="111" on="1"/>
        <pt x="345" y="162" on="1"/>
        <pt x="371" y="162" on="1"/>
        <pt x="395" y="128" on="1"/>
        <pt x="398" y="132" on="0"/>
        <pt x="417" y="162" on="1"/>
        <pt x="440" y="162" on="1"/>
        <pt x="404" y="110" on="1"/>
      </contour>
      <contour>
        <pt x="196" y="17" on="1"/>
        <pt x="189" y="34" on="1"/>
        <pt x="181" y="17" on="1"/>
      </contour>
      <contour>
        <pt x="215" y="0" on="1"/>
        <pt x="202" y="0" on="1"/>
        <pt x="198" y="9" on="1"/>
        <pt x="178" y="9" on="1"/>
        <pt x="174" y="0" on="1"/>
        <pt x="162" y="0" on="1"/>
        <pt x="182" y="43" on="1"/>
        <pt x="197" y="43" on="1"/>
      </contour>
      <contour>
        <pt x="689" y="0" on="1"/>
        <pt x="655" y="0" on="1"/>
        <pt x="655" y="43" on="1"/>
        <pt x="689" y="43" on="1"/>
        <pt x="689" y="34" on="1"/>
        <pt x="666" y="34" on="1"/>
        <pt x="666" y="26" on="1"/>
        <pt x="687" y="26" on="1"/>
        <pt x="687" y="18" on="1"/>
        <pt x="666" y="18" on="1"/>
        <pt x="666" y="9" on="1"/>
        <pt x="689" y="9" on="1"/>
      </contour>
      <contour>
        <pt x="774" y="43" on="1"/>
        <pt x="757" y="0" on="1"/>
        <pt x="745" y="0" on="1"/>
        <pt x="727" y="43" on="1"/>
        <pt x="739" y="43" on="1"/>
        <pt x="751" y="11" on="1"/>
        <pt x="763" y="43" on="1"/>
      </contour>
      <contour>
        <pt x="847" y="21" on="1"/>
        <pt x="847" y="34" on="0"/>
        <pt x="834" y="34" on="1"/>
        <pt x="826" y="34" on="1"/>
        <pt x="826" y="10" on="1"/>
        <pt x="834" y="10" on="1"/>
        <pt x="847" y="10" on="0"/>
      </contour>
      <contour>
        <pt x="858" y="21" on="1"/>
        <pt x="858" y="0" on="0"/>
        <pt x="834" y="0" on="1"/>
        <pt x="814" y="0" on="1"/>
        <pt x="814" y="43" on="1"/>
        <pt x="834" y="43" on="1"/>
        <pt x="858" y="43" on="0"/>
      </contour>
      <contour>
        <pt x="249" y="0" on="1"/>
        <pt x="217" y="0" on="1"/>
        <pt x="217" y="43" on="1"/>
        <pt x="227" y="43" on="1"/>
        <pt x="227" y="9" on="1"/>
        <pt x="249" y="9" on="1"/>
      </contour>
      <contour>
        <pt x="332" y="30" on="1"/>
        <pt x="332" y="35" on="0"/>
        <pt x="324" y="35" on="1"/>
        <pt x="318" y="35" on="1"/>
        <pt x="318" y="26" on="1"/>
        <pt x="324" y="26" on="1"/>
        <pt x="332" y="26" on="0"/>
      </contour>
      <contour>
        <pt x="345" y="32" on="1"/>
        <pt x="345" y="24" on="0"/>
        <pt x="337" y="21" on="1"/>
        <pt x="343" y="19" on="0"/>
        <pt x="347" y="0" on="1"/>
        <pt x="334" y="0" on="1"/>
        <pt x="334" y="4" on="0"/>
        <pt x="333" y="8" on="1"/>
        <pt x="330" y="17" on="0"/>
        <pt x="324" y="17" on="1"/>
        <pt x="318" y="17" on="1"/>
        <pt x="318" y="0" on="1"/>
        <pt x="307" y="0" on="1"/>
        <pt x="307" y="43" on="1"/>
        <pt x="328" y="43" on="1"/>
        <pt x="345" y="43" on="0"/>
      </contour>
      <contour>
        <pt x="361" y="43" on="1"/>
        <pt x="361" y="0" on="1"/>
        <pt x="352" y="0" on="1"/>
        <pt x="352" y="43" on="1"/>
      </contour>
      <contour>
        <pt x="412" y="3" on="1"/>
        <pt x="403" y="-1" on="0"/>
        <pt x="393" y="-1" on="1"/>
        <pt x="367" y="-1" on="0"/>
        <pt x="367" y="21" on="1"/>
        <pt x="367" y="44" on="0"/>
        <pt x="392" y="44" on="1"/>
        <pt x="411" y="44" on="0"/>
        <pt x="412" y="28" on="1"/>
        <pt x="401" y="28" on="1"/>
        <pt x="400" y="35" on="0"/>
        <pt x="392" y="35" on="1"/>
        <pt x="379" y="35" on="0"/>
        <pt x="379" y="22" on="1"/>
        <pt x="379" y="8" on="0"/>
        <pt x="393" y="8" on="1"/>
        <pt x="398" y="8" on="0"/>
        <pt x="401" y="9" on="1"/>
        <pt x="401" y="16" on="1"/>
        <pt x="392" y="16" on="1"/>
        <pt x="392" y="24" on="1"/>
        <pt x="412" y="24" on="1"/>
      </contour>
      <contour>
        <pt x="462" y="0" on="1"/>
        <pt x="451" y="0" on="1"/>
        <pt x="451" y="18" on="1"/>
        <pt x="429" y="18" on="1"/>
        <pt x="429" y="0" on="1"/>
        <pt x="418" y="0" on="1"/>
        <pt x="418" y="43" on="1"/>
        <pt x="429" y="43" on="1"/>
        <pt x="429" y="26" on="1"/>
        <pt x="451" y="26" on="1"/>
        <pt x="451" y="43" on="1"/>
        <pt x="462" y="43" on="1"/>
      </contour>
      <contour>
        <pt x="506" y="34" on="1"/>
        <pt x="492" y="34" on="1"/>
        <pt x="492" y="0" on="1"/>
        <pt x="480" y="0" on="1"/>
        <pt x="480" y="34" on="1"/>
        <pt x="465" y="34" on="1"/>
        <pt x="465" y="43" on="1"/>
        <pt x="506" y="43" on="1"/>
      </contour>
      <contour>
        <pt x="565" y="83" on="1"/>
        <pt x="540" y="83" on="1"/>
        <pt x="540" y="162" on="1"/>
        <pt x="565" y="162" on="1"/>
      </contour>
      <contour>
        <pt x="668" y="86" on="1"/>
        <pt x="650" y="81" on="0"/>
        <pt x="627" y="81" on="1"/>
        <pt x="576" y="81" on="0"/>
        <pt x="576" y="122" on="1"/>
        <pt x="576" y="163" on="0"/>
        <pt x="625" y="163" on="1"/>
        <pt x="665" y="163" on="0"/>
        <pt x="668" y="136" on="1"/>
        <pt x="642" y="136" on="1"/>
        <pt x="640" y="147" on="0"/>
        <pt x="624" y="147" on="1"/>
        <pt x="600" y="147" on="0"/>
        <pt x="600" y="123" on="1"/>
        <pt x="600" y="97" on="0"/>
        <pt x="627" y="97" on="1"/>
        <pt x="643" y="99" on="1"/>
        <pt x="643" y="113" on="1"/>
        <pt x="624" y="113" on="1"/>
        <pt x="624" y="126" on="1"/>
        <pt x="668" y="126" on="1"/>
      </contour>
      <contour>
        <pt x="768" y="83" on="1"/>
        <pt x="745" y="83" on="1"/>
        <pt x="745" y="115" on="1"/>
        <pt x="705" y="115" on="1"/>
        <pt x="705" y="83" on="1"/>
        <pt x="681" y="83" on="1"/>
        <pt x="681" y="162" on="1"/>
        <pt x="705" y="162" on="1"/>
        <pt x="705" y="131" on="1"/>
        <pt x="745" y="131" on="1"/>
        <pt x="745" y="162" on="1"/>
        <pt x="768" y="162" on="1"/>
      </contour>
      <contour>
        <pt x="864" y="144" on="1"/>
        <pt x="831" y="144" on="1"/>
        <pt x="831" y="83" on="1"/>
        <pt x="808" y="83" on="1"/>
        <pt x="808" y="144" on="1"/>
        <pt x="777" y="144" on="1"/>
        <pt x="777" y="162" on="1"/>
        <pt x="864" y="162" on="1"/>
      </contour>
      <contour>
        <pt x="506" y="137" on="1"/>
        <pt x="506" y="145" on="0"/>
        <pt x="488" y="145" on="1"/>
        <pt x="473" y="145" on="1"/>
        <pt x="473" y="126" on="1"/>
        <pt x="488" y="126" on="1"/>
        <pt x="506" y="126" on="0"/>
      </contour>
      <contour>
        <pt x="531" y="83" on="1"/>
        <pt x="509" y="83" on="1"/>
        <pt x="504" y="103" on="1"/>
        <pt x="503" y="113" on="0"/>
        <pt x="487" y="113" on="1"/>
        <pt x="473" y="113" on="1"/>
        <pt x="473" y="83" on="1"/>
        <pt x="450" y="83" on="1"/>
        <pt x="450" y="162" on="1"/>
        <pt x="495" y="162" on="1"/>
        <pt x="529" y="162" on="0"/>
        <pt x="529" y="141" on="1"/>
        <pt x="529" y="128" on="0"/>
        <pt x="512" y="122" on="1"/>
        <pt x="527" y="119" on="0"/>
        <pt x="527" y="103" on="1"/>
      </contour>
      <contour>
        <pt x="650" y="13" on="1"/>
        <pt x="650" y="-1" on="0"/>
        <pt x="630" y="-1" on="1"/>
        <pt x="612" y="-1" on="0"/>
        <pt x="612" y="15" on="1"/>
        <pt x="623" y="15" on="1"/>
        <pt x="623" y="8" on="0"/>
        <pt x="631" y="8" on="1"/>
        <pt x="638" y="8" on="0"/>
        <pt x="638" y="12" on="1"/>
        <pt x="638" y="13" on="0"/>
        <pt x="613" y="22" on="0"/>
        <pt x="613" y="30" on="1"/>
        <pt x="613" y="44" on="0"/>
        <pt x="631" y="44" on="1"/>
        <pt x="649" y="44" on="0"/>
        <pt x="649" y="30" on="1"/>
        <pt x="638" y="30" on="1"/>
        <pt x="638" y="36" on="0"/>
        <pt x="631" y="36" on="1"/>
        <pt x="624" y="36" on="0"/>
        <pt x="624" y="31" on="1"/>
        <pt x="624" y="27" on="0"/>
        <pt x="650" y="21" on="0"/>
      </contour>
      <contour>
        <pt x="809" y="0" on="1"/>
        <pt x="776" y="0" on="1"/>
        <pt x="776" y="43" on="1"/>
        <pt x="809" y="43" on="1"/>
        <pt x="809" y="34" on="1"/>
        <pt x="788" y="34" on="1"/>
        <pt x="788" y="26" on="1"/>
        <pt x="808" y="26" on="1"/>
        <pt x="808" y="18" on="1"/>
        <pt x="788" y="18" on="1"/>
        <pt x="788" y="9" on="1"/>
        <pt x="809" y="9" on="1"/>
      </contour>
      <contour>
        <pt x="608" y="9" on="1"/>
        <pt x="608" y="0" on="1"/>
        <pt x="574" y="0" on="1"/>
        <pt x="574" y="43" on="1"/>
        <pt x="607" y="43" on="1"/>
        <pt x="607" y="34" on="1"/>
        <pt x="585" y="34" on="1"/>
        <pt x="585" y="26" on="1"/>
        <pt x="606" y="26" on="1"/>
        <pt x="606" y="18" on="1"/>
        <pt x="585" y="18" on="1"/>
        <pt x="585" y="9" on="1"/>
      </contour>
      <contour>
        <pt x="156" y="109" on="1"/>
        <pt x="153" y="79" on="0"/>
        <pt x="113" y="79" on="1"/>
        <pt x="66" y="79" on="0"/>
        <pt x="66" y="122" on="1"/>
        <pt x="66" y="164" on="0"/>
        <pt x="115" y="164" on="1"/>
        <pt x="152" y="164" on="0"/>
        <pt x="156" y="134" on="1"/>
        <pt x="130" y="134" on="1"/>
        <pt x="129" y="147" on="0"/>
        <pt x="113" y="147" on="1"/>
        <pt x="90" y="147" on="0"/>
        <pt x="90" y="122" on="1"/>
        <pt x="90" y="97" on="0"/>
        <pt x="112" y="97" on="1"/>
        <pt x="129" y="97" on="0"/>
        <pt x="130" y="109" on="1"/>
      </contour>
      <contour>
        <pt x="867" y="199" on="1"/>
        <pt x="58" y="199" on="1"/>
        <pt x="58" y="224" on="1"/>
        <pt x="867" y="224" on="1"/>
      </contour>
      <contour>
        <pt x="562" y="406" on="1"/>
        <pt x="562" y="327" on="0"/>
        <pt x="504" y="290" on="1"/>
        <pt x="458" y="260" on="0"/>
        <pt x="386" y="260" on="1"/>
        <pt x="325" y="260" on="0"/>
        <pt x="256" y="312" on="0"/>
        <pt x="256" y="359" on="1"/>
        <pt x="256" y="375" on="0"/>
        <pt x="260" y="390" on="1"/>
        <pt x="298" y="390" on="1"/>
        <pt x="297" y="383" on="0"/>
        <pt x="297" y="373" on="1"/>
        <pt x="297" y="294" on="0"/>
        <pt x="396" y="294" on="1"/>
        <pt x="440" y="294" on="0"/>
        <pt x="475" y="315" on="1"/>
        <pt x="520" y="342" on="0"/>
        <pt x="520" y="392" on="1"/>
        <pt x="520" y="430" on="0"/>
        <pt x="468" y="450" on="1"/>
        <pt x="421" y="466" on="0"/>
        <pt x="373" y="482" on="1"/>
        <pt x="321" y="504" on="0"/>
        <pt x="321" y="546" on="1"/>
        <pt x="321" y="614" on="0"/>
        <pt x="373" y="650" on="1"/>
        <pt x="419" y="681" on="0"/>
        <pt x="492" y="681" on="1"/>
        <pt x="542" y="681" on="0"/>
        <pt x="601" y="639" on="0"/>
        <pt x="601" y="601" on="1"/>
        <pt x="601" y="586" on="0"/>
        <pt x="596" y="568" on="1"/>
        <pt x="560" y="568" on="1"/>
        <pt x="562" y="582" on="0"/>
        <pt x="562" y="587" on="1"/>
        <pt x="562" y="647" on="0"/>
        <pt x="496" y="647" on="1"/>
        <pt x="436" y="647" on="0"/>
        <pt x="365" y="601" on="0"/>
        <pt x="365" y="562" on="1"/>
        <pt x="365" y="536" on="0"/>
        <pt x="401" y="510" on="0"/>
        <pt x="516" y="477" on="0"/>
        <pt x="562" y="438" on="0"/>
      </contour>
      <contour>
        <pt x="947" y="675" on="1"/>
        <pt x="947" y="649" on="0"/>
        <pt x="913" y="617" on="0"/>
        <pt x="887" y="617" on="1"/>
        <pt x="862" y="617" on="0"/>
        <pt x="829" y="649" on="0"/>
        <pt x="829" y="675" on="1"/>
        <pt x="829" y="701" on="0"/>
        <pt x="862" y="734" on="0"/>
        <pt x="887" y="734" on="1"/>
        <pt x="913" y="734" on="0"/>
        <pt x="947" y="701" on="0"/>
      </contour>
      <contour>
        <pt x="938" y="674" on="1"/>
        <pt x="938" y="695" on="0"/>
        <pt x="908" y="724" on="0"/>
        <pt x="887" y="724" on="1"/>
        <pt x="867" y="724" on="0"/>
        <pt x="839" y="695" on="0"/>
        <pt x="839" y="674" on="1"/>
        <pt x="839" y="653" on="0"/>
        <pt x="867" y="625" on="0"/>
        <pt x="887" y="625" on="1"/>
        <pt x="908" y="625" on="0"/>
        <pt x="938" y="653" on="0"/>
      </contour>
      <contour>
        <pt x="557" y="30" on="1"/>
        <pt x="557" y="35" on="0"/>
        <pt x="550" y="35" on="1"/>
        <pt x="543" y="35" on="1"/>
        <pt x="543" y="26" on="1"/>
        <pt x="550" y="26" on="1"/>
        <pt x="557" y="26" on="0"/>
      </contour>
      <contour>
        <pt x="569" y="32" on="1"/>
        <pt x="569" y="24" on="0"/>
        <pt x="561" y="21" on="1"/>
        <pt x="567" y="19" on="0"/>
        <pt x="571" y="0" on="1"/>
        <pt x="559" y="0" on="1"/>
        <pt x="559" y="4" on="0"/>
        <pt x="558" y="8" on="1"/>
        <pt x="555" y="17" on="0"/>
        <pt x="550" y="17" on="1"/>
        <pt x="543" y="17" on="1"/>
        <pt x="543" y="0" on="1"/>
        <pt x="531" y="0" on="1"/>
        <pt x="531" y="43" on="1"/>
        <pt x="553" y="43" on="1"/>
        <pt x="569" y="43" on="0"/>
      </contour>
      <contour>
        <pt x="702" y="26" on="1"/>
        <pt x="709" y="26" on="1"/>
        <pt x="716" y="26" on="0"/>
        <pt x="716" y="30" on="1"/>
        <pt x="716" y="35" on="0"/>
        <pt x="709" y="35" on="1"/>
        <pt x="702" y="35" on="1"/>
      </contour>
      <contour>
        <pt x="730" y="0" on="1"/>
        <pt x="718" y="0" on="1"/>
        <pt x="718" y="4" on="0"/>
        <pt x="717" y="8" on="1"/>
        <pt x="714" y="17" on="0"/>
        <pt x="709" y="17" on="1"/>
        <pt x="702" y="17" on="1"/>
        <pt x="702" y="0" on="1"/>
        <pt x="692" y="0" on="1"/>
        <pt x="692" y="43" on="1"/>
        <pt x="713" y="43" on="1"/>
        <pt x="728" y="43" on="0"/>
        <pt x="728" y="32" on="1"/>
        <pt x="728" y="24" on="0"/>
        <pt x="720" y="21" on="1"/>
        <pt x="726" y="19" on="0"/>
      </contour>
      <contour>
        <pt x="284" y="0" on="1"/>
        <pt x="252" y="0" on="1"/>
        <pt x="252" y="43" on="1"/>
        <pt x="262" y="43" on="1"/>
        <pt x="262" y="9" on="1"/>
        <pt x="284" y="9" on="1"/>
      </contour>
    </TTGlyph>
    <TTGlyph name="Q" xMin="26" yMin="-71" xMax="496" yMax="485">
      <contour>
        <pt x="430" y="238" on="1"/>
        <pt x="430" y="320" on="0"/>
        <pt x="336" y="431" on="0"/>
        <pt x="259" y="431" on="1"/>
        <pt x="182" y="431" on="0"/>
        <pt x="88" y="320" on="0"/>
        <pt x="88" y="238" on="1"/>
        <pt x="88" y="156" on="0"/>
        <pt x="182" y="45" on="0"/>
        <pt x="259" y="45" on="1"/>
        <pt x="336" y="45" on="0"/>
        <pt x="430" y="156" on="0"/>
      </contour>
      <contour>
        <pt x="492" y="237" on="1"/>
        <pt x="492" y="157" on="0"/>
        <pt x="417" y="40" on="0"/>
        <pt x="351" y="17" on="1"/>
        <pt x="351" y="13" on="1"/>
        <pt x="431" y="-7" on="0"/>
        <pt x="496" y="-17" on="1"/>
        <pt x="476" y="-71" on="1"/>
        <pt x="400" y="-51" on="0"/>
        <pt x="285" y="-14" on="1"/>
        <pt x="280" y="-12" on="0"/>
        <pt x="259" y="-10" on="1"/>
        <pt x="156" y="-10" on="0"/>
        <pt x="26" y="132" on="0"/>
        <pt x="26" y="237" on="1"/>
        <pt x="26" y="342" on="0"/>
        <pt x="156" y="485" on="0"/>
        <pt x="259" y="485" on="1"/>
        <pt x="362" y="485" on="0"/>
        <pt x="492" y="342" on="0"/>
      </contour>
    </TTGlyph>
    <TTGlyph name="R" xMin="50" yMin="0" xMax="380" yMax="481">
      <contour>
        <pt x="380" y="0" on="1"/>
        <pt x="317" y="0" on="1"/>
        <pt x="290" y="207" on="0"/>
        <pt x="193" y="207" on="1"/>
        <pt x="113" y="207" on="1"/>
        <pt x="113" y="0" on="1"/>
        <pt x="50" y="0" on="1"/>
        <pt x="50" y="468" on="1"/>
        <pt x="122" y="481" on="0"/>
        <pt x="179" y="481" on="1"/>
        <pt x="264" y="481" on="0"/>
        <pt x="364" y="409" on="0"/>
        <pt x="364" y="347" on="1"/>
        <pt x="364" y="265" on="0"/>
        <pt x="286" y="229" on="1"/>
        <pt x="323" y="204" on="0"/>
        <pt x="364" y="108" on="0"/>
      </contour>
      <contour>
        <pt x="303" y="343" on="1"/>
        <pt x="303" y="426" on="0"/>
        <pt x="179" y="426" on="1"/>
        <pt x="139" y="426" on="0"/>
        <pt x="113" y="423" on="1"/>
        <pt x="113" y="259" on="1"/>
        <pt x="190" y="259" on="1"/>
        <pt x="303" y="259" on="0"/>
      </contour>
    </TTGlyph>
    <TTGlyph name="S" xMin="19" yMin="-9" xMax="339" yMax="485">
      <contour>
        <pt x="339" y="130" on="1"/>
        <pt x="339" y="68" on="0"/>
        <pt x="240" y="-9" on="0"/>
        <pt x="166" y="-9" on="1"/>
        <pt x="87" y="-9" on="0"/>
        <pt x="19" y="34" on="1"/>
        <pt x="46" y="91" on="1"/>
        <pt x="103" y="48" on="0"/>
        <pt x="170" y="48" on="1"/>
        <pt x="219" y="48" on="0"/>
        <pt x="275" y="91" on="0"/>
        <pt x="275" y="127" on="1"/>
        <pt x="275" y="187" on="0"/>
        <pt x="179" y="218" on="1"/>
        <pt x="38" y="263" on="0"/>
        <pt x="38" y="356" on="1"/>
        <pt x="38" y="412" on="0"/>
        <pt x="127" y="485" on="0"/>
        <pt x="198" y="485" on="1"/>
        <pt x="269" y="485" on="0"/>
        <pt x="321" y="453" on="1"/>
        <pt x="294" y="403" on="1"/>
        <pt x="244" y="428" on="0"/>
        <pt x="197" y="428" on="1"/>
        <pt x="154" y="428" on="0"/>
        <pt x="101" y="389" on="0"/>
        <pt x="101" y="361" on="1"/>
        <pt x="101" y="306" on="0"/>
        <pt x="197" y="275" on="1"/>
        <pt x="275" y="250" on="0"/>
        <pt x="339" y="184" on="0"/>
      </contour>
    </TTGlyph>
    <TTGlyph name="Scaron" xMin="19" yMin="-9" xMax="339" yMax="636">
      <component glyphName="S" x="0" y="0" flags="0x204"/>
      <component glyphName="caron" x="28" y="136" flags="0x4"/>
    </TTGlyph>
    <TTGlyph name="Scedilla" xMin="19" yMin="-159" xMax="394" yMax="485">
      <component glyphName="S" x="0" y="0" flags="0x204"/>
      <component glyphName="cedilla" x="58" y="0" flags="0x4"/>
    </TTGlyph>
    <TTGlyph name="T" xMin="4" yMin="0" xMax="417" yMax="476">
      <contour>
        <pt x="243" y="0" on="1"/>
        <pt x="180" y="0" on="1"/>
        <pt x="180" y="422" on="1"/>
        <pt x="4" y="422" on="1"/>
        <pt x="4" y="476" on="1"/>
        <pt x="417" y="476" on="1"/>
        <pt x="417" y="422" on="1"/>
        <pt x="243" y="422" on="1"/>
      </contour>
    </TTGlyph>
    <TTGlyph name="Thorn" xMin="53" yMin="0" xMax="357" yMax="476">
      <contour>
        <pt x="357" y="249" on="1"/>
        <pt x="357" y="172" on="0"/>
        <pt x="255" y="91" on="0"/>
        <pt x="164" y="91" on="1"/>
        <pt x="132" y="91" on="0"/>
        <pt x="112" y="95" on="1"/>
        <pt x="112" y="0" on="1"/>
        <pt x="53" y="0" on="1"/>
        <pt x="53" y="476" on="1"/>
        <pt x="112" y="476" on="1"/>
        <pt x="112" y="403" on="1"/>
        <pt x="132" y="407" on="0"/>
        <pt x="164" y="407" on="1"/>
        <pt x="255" y="407" on="0"/>
        <pt x="357" y="326" on="0"/>
      </contour>
      <contour>
        <pt x="299" y="249" on="1"/>
        <pt x="299" y="355" on="0"/>
        <pt x="166" y="355" on="1"/>
        <pt x="135" y="355" on="0"/>
        <pt x="112" y="347" on="1"/>
        <pt x="112" y="151" on="1"/>
        <pt x="135" y="143" on="0"/>
        <pt x="166" y="143" on="1"/>
        <pt x="299" y="143" on="0"/>
      </contour>
    </TTGlyph>
    <TTGlyph name="U" xMin="50" yMin="-9" xMax="432" yMax="476">
      <contour>
        <pt x="432" y="203" on="1"/>
        <pt x="432" y="-9" on="0"/>
        <pt x="241" y="-9" on="1"/>
        <pt x="50" y="-9" on="0"/>
        <pt x="50" y="203" on="1"/>
        <pt x="50" y="476" on="1"/>
        <pt x="114" y="476" on="1"/>
        <pt x="114" y="203" on="1"/>
        <pt x="114" y="45" on="0"/>
        <pt x="241" y="45" on="1"/>
        <pt x="368" y="45" on="0"/>
        <pt x="368" y="203" on="1"/>
        <pt x="368" y="476" on="1"/>
        <pt x="432" y="476" on="1"/>
      </contour>
    </TTGlyph>
    <TTGlyph name="Uacute" xMin="50" yMin="-9" xMax="1615" yMax="1180">
      <component glyphName="U" x="0" y="0" flags="0x204"/>
      <component glyphName="acutecomb" x="382" y="136" flags="0x4"/>
    </TTGlyph>
    <TTGlyph name="Ucircumflex" xMin="50" yMin="-9" xMax="651" yMax="1180">
      <component glyphName="U" x="0" y="0" flags="0x204"/>
      <component glyphName="circumflex" x="132" y="136" flags="0x4"/>
    </TTGlyph>
    <TTGlyph name="Udieresis" xMin="50" yMin="-9" xMax="432" yMax="1149">
      <component glyphName="U" x="0" y="0" flags="0x204"/>
      <component glyphName="dieresis" x="70" y="136" flags="0x4"/>
    </TTGlyph>
    <TTGlyph name="Ugrave" xMin="50" yMin="-9" xMax="1527" yMax="1180">
      <component glyphName="U" x="0" y="0" flags="0x204"/>
      <component glyphName="gravecomb" x="360" y="136" flags="0x4"/>
    </TTGlyph>
    <TTGlyph name="Uhorn" xMin="50" yMin="-9" xMax="535" yMax="527">
      <contour>
        <pt x="432" y="203" on="1"/>
        <pt x="432" y="-9" on="0"/>
        <pt x="241" y="-9" on="1"/>
        <pt x="50" y="-9" on="0"/>
        <pt x="50" y="203" on="1"/>
        <pt x="50" y="476" on="1"/>
        <pt x="114" y="476" on="1"/>
        <pt x="114" y="203" on="1"/>
        <pt x="114" y="45" on="0"/>
        <pt x="241" y="45" on="1"/>
        <pt x="368" y="45" on="0"/>
        <pt x="368" y="203" on="1"/>
        <pt x="368" y="476" on="1"/>
        <pt x="432" y="476" on="1"/>
        <pt x="432" y="436" on="1"/>
        <pt x="454" y="448" on="0"/>
        <pt x="481" y="501" on="0"/>
        <pt x="481" y="527" on="1"/>
        <pt x="535" y="527" on="1"/>
        <pt x="532" y="480" on="0"/>
        <pt x="473" y="393" on="0"/>
        <pt x="432" y="378" on="1"/>
      </contour>
    </TTGlyph>
    <TTGlyph name="Utilde" xMin="50" yMin="-9" xMax="8284" yMax="3412">
      <component glyphName="U" x="0" y="0" flags="0x204"/>
      <component glyphName="tildecomb" x="371" y="136" flags="0x4"/>
    </TTGlyph>
    <TTGlyph name="V" xMin="-1" yMin="0" xMax="423" yMax="476">
      <contour>
        <pt x="240" y="0" on="1"/>
        <pt x="182" y="0" on="1"/>
        <pt x="-1" y="476" on="1"/>
        <pt x="67" y="476" on="1"/>
        <pt x="211" y="86" on="1"/>
        <pt x="355" y="476" on="1"/>
        <pt x="423" y="476" on="1"/>
      </contour>
    </TTGlyph>
    <TTGlyph name="W" xMin="-4" yMin="0" xMax="616" yMax="476">
      <contour>
        <pt x="484" y="0" on="1"/>
        <pt x="426" y="0" on="1"/>
        <pt x="306" y="389" on="1"/>
        <pt x="186" y="0" on="1"/>
        <pt x="128" y="0" on="1"/>
        <pt x="-4" y="476" on="1"/>
        <pt x="65" y="476" on="1"/>
        <pt x="158" y="96" on="1"/>
        <pt x="276" y="476" on="1"/>
        <pt x="336" y="476" on="1"/>
        <pt x="454" y="96" on="1"/>
        <pt x="547" y="476" on="1"/>
        <pt x="616" y="476" on="1"/>
      </contour>
    </TTGlyph>
    <TTGlyph name="X" xMin="-1" yMin="0" xMax="428" yMax="476">
      <contour>
        <pt x="428" y="0" on="1"/>
        <pt x="353" y="0" on="1"/>
        <pt x="215" y="193" on="1"/>
        <pt x="75" y="0" on="1"/>
        <pt x="-1" y="0" on="1"/>
        <pt x="176" y="244" on="1"/>
        <pt x="6" y="476" on="1"/>
        <pt x="83" y="476" on="1"/>
        <pt x="215" y="290" on="1"/>
        <pt x="344" y="476" on="1"/>
        <pt x="422" y="476" on="1"/>
        <pt x="252" y="244" on="1"/>
      </contour>
    </TTGlyph>
    <TTGlyph name="Y" xMin="-6" yMin="0" xMax="402" yMax="476">
      <contour>
        <pt x="230" y="0" on="1"/>
        <pt x="168" y="0" on="1"/>
        <pt x="168" y="208" on="1"/>
        <pt x="-6" y="476" on="1"/>
        <pt x="67" y="476" on="1"/>
        <pt x="199" y="262" on="1"/>
        <pt x="330" y="476" on="1"/>
        <pt x="402" y="476" on="1"/>
        <pt x="230" y="209" on="1"/>
      </contour>
    </TTGlyph>
    <TTGlyph name="Yacute" xMin="-6" yMin="0" xMax="1954" yMax="1316">
      <component glyphName="Y" x="0" y="0" flags="0x204"/>
      <component glyphName="acutecomb" x="339" y="136" flags="0x4"/>
    </TTGlyph>
    <TTGlyph name="Ydieresis" xMin="-6" yMin="0" xMax="491" yMax="1285">
      <component glyphName="Y" x="0" y="0" flags="0x204"/>
      <component glyphName="dieresis" x="27" y="136" flags="0x4"/>
    </TTGlyph>
    <TTGlyph name="Ygrave" xMin="-6" yMin="0" xMax="7887" yMax="2902">
      <component glyphName="Y" x="0" y="0" flags="0x204"/>
      <component glyphName="gravecomb" x="317" y="136" flags="0x4"/>
    </TTGlyph>
    <TTGlyph name="Z" xMin="27" yMin="0" xMax="438" yMax="476">
      <contour>
        <pt x="426" y="0" on="1"/>
        <pt x="27" y="0" on="1"/>
        <pt x="27" y="40" on="1"/>
        <pt x="336" y="422" on="1"/>
        <pt x="43" y="422" on="1"/>
        <pt x="54" y="476" on="1"/>
        <pt x="423" y="476" on="1"/>
        <pt x="423" y="435" on="1"/>
        <pt x="114" y="54" on="1"/>
        <pt x="438" y="54" on="1"/>
      </contour>
    </TTGlyph>
    <TTGlyph name="Zcaron" xMin="27" yMin="0" xMax="438" yMax="772">
      <component glyphName="Z" x="0" y="0" flags="0x204"/>
      <component glyphName="caron" x="71" y="136" flags="0x4"/>
    </TTGlyph>
    <TTGlyph name="a" xMin="26" yMin="-9" xMax="330" yMax="350">
      <contour>
        <pt x="330" y="3" on="1"/>
        <pt x="271" y="-9" on="1"/>
        <pt x="261" y="35" on="1"/>
        <pt x="210" y="-9" on="0"/>
        <pt x="146" y="-9" on="1"/>
        <pt x="95" y="-9" on="0"/>
        <pt x="27" y="46" on="0"/>
        <pt x="26" y="93" on="1"/>
        <pt x="26" y="220" on="0"/>
        <pt x="253" y="223" on="1"/>
        <pt x="243" y="298" on="0"/>
        <pt x="171" y="298" on="1"/>
        <pt x="117" y="298" on="0"/>
        <pt x="52" y="273" on="1"/>
        <pt x="45" y="330" on="1"/>
        <pt x="113" y="350" on="0"/>
        <pt x="174" y="350" on="1"/>
        <pt x="316" y="350" on="0"/>
        <pt x="316" y="204" on="1"/>
        <pt x="316" y="91" on="1"/>
        <pt x="316" y="53" on="0"/>
      </contour>
      <contour>
        <pt x="253" y="108" on="1"/>
        <pt x="253" y="168" on="1"/>
        <pt x="90" y="165" on="0"/>
        <pt x="90" y="99" on="1"/>
        <pt x="90" y="46" on="0"/>
        <pt x="149" y="46" on="1"/>
        <pt x="182" y="46" on="0"/>
        <pt x="215" y="62" on="1"/>
        <pt x="253" y="81" on="0"/>
      </contour>
    </TTGlyph>
    <TTGlyph name="aacute" xMin="26" yMin="-9" xMax="2278" yMax="1316">
      <component glyphName="a" x="0" y="0" flags="0x204"/>
      <component glyphName="acutecomb" x="324" y="0" flags="0x4"/>
    </TTGlyph>
    <TTGlyph name="abreve" xMin="26" yMin="-9" xMax="685" yMax="1307">
      <component glyphName="a" x="0" y="0" flags="0x204"/>
      <component glyphName="breve" x="12" y="0" flags="0x4"/>
    </TTGlyph>
    <TTGlyph name="acircumflex" xMin="26" yMin="-9" xMax="713" yMax="1180">
      <component glyphName="a" x="0" y="0" flags="0x204"/>
      <component glyphName="circumflex" x="62" y="0" flags="0x4"/>
    </TTGlyph>
    <TTGlyph name="acute" xMin="53" yMin="366" xMax="206" yMax="481">
      <contour>
        <pt x="100" y="366" on="1"/>
        <pt x="53" y="366" on="1"/>
        <pt x="128" y="481" on="1"/>
        <pt x="206" y="481" on="1"/>
      </contour>
    </TTGlyph>
    <TTGlyph name="acutecomb" xMin="9605" yMin="2938" xMax="9737" yMax="3053">
      <contour>
        <pt x="9680" y="3053" on="1"/>
        <pt x="9737" y="3035" on="1"/>
        <pt x="9653" y="2938" on="1"/>
        <pt x="9605" y="2938" on="1"/>
      </contour>
    </TTGlyph>
    <TTGlyph name="adieresis" xMin="26" yMin="-9" xMax="439" yMax="1149">
      <component glyphName="a" x="0" y="0" flags="0x204"/>
      <component glyphName="dieresis" x="13" y="0" flags="0x4"/>
    </TTGlyph>
    <TTGlyph name="ae" xMin="26" yMin="-9" xMax="595" yMax="354">
      <contour>
        <pt x="580" y="18" on="1"/>
        <pt x="512" y="-9" on="0"/>
        <pt x="440" y="-9" on="1"/>
        <pt x="342" y="-9" on="0"/>
        <pt x="290" y="61" on="1"/>
        <pt x="253" y="-9" on="0"/>
        <pt x="147" y="-9" on="1"/>
        <pt x="122" y="-9" on="0"/>
        <pt x="78" y="5" on="0"/>
        <pt x="45" y="31" on="0"/>
        <pt x="26" y="69" on="0"/>
        <pt x="26" y="93" on="1"/>
        <pt x="26" y="223" on="0"/>
        <pt x="254" y="225" on="1"/>
        <pt x="252" y="259" on="0"/>
        <pt x="210" y="302" on="0"/>
        <pt x="172" y="302" on="1"/>
        <pt x="140" y="302" on="0"/>
        <pt x="54" y="276" on="1"/>
        <pt x="46" y="333" on="1"/>
        <pt x="116" y="354" on="0"/>
        <pt x="176" y="354" on="1"/>
        <pt x="221" y="354" on="0"/>
        <pt x="280" y="327" on="0"/>
        <pt x="297" y="293" on="1"/>
        <pt x="345" y="354" on="0"/>
        <pt x="436" y="354" on="1"/>
        <pt x="590" y="354" on="0"/>
        <pt x="595" y="160" on="1"/>
        <pt x="316" y="160" on="1"/>
        <pt x="321" y="105" on="0"/>
        <pt x="390" y="47" on="0"/>
        <pt x="444" y="47" on="1"/>
        <pt x="502" y="47" on="0"/>
        <pt x="575" y="73" on="1"/>
      </contour>
      <contour>
        <pt x="254" y="170" on="1"/>
        <pt x="169" y="169" on="0"/>
        <pt x="92" y="134" on="0"/>
        <pt x="92" y="99" on="1"/>
        <pt x="92" y="73" on="0"/>
        <pt x="125" y="46" on="0"/>
        <pt x="149" y="46" on="1"/>
        <pt x="197" y="46" on="0"/>
        <pt x="254" y="100" on="0"/>
        <pt x="254" y="148" on="1"/>
      </contour>
      <contour>
        <pt x="533" y="213" on="1"/>
        <pt x="526" y="250" on="0"/>
        <pt x="474" y="302" on="0"/>
        <pt x="432" y="302" on="1"/>
        <pt x="388" y="302" on="0"/>
        <pt x="331" y="255" on="0"/>
        <pt x="322" y="213" on="1"/>
      </contour>
    </TTGlyph>
    <TTGlyph name="agrave" xMin="26" yMin="-9" xMax="1829" yMax="1180">
      <component glyphName="a" x="0" y="0" flags="0x204"/>
      <component glyphName="gravecomb" x="302" y="0" flags="0x4"/>
    </TTGlyph>
    <TTGlyph name="ampersand" xMin="35" yMin="-14" xMax="474" yMax="492">
      <contour>
        <pt x="420" y="-14" on="1"/>
        <pt x="352" y="48" on="1"/>
        <pt x="273" y="-9" on="0"/>
        <pt x="192" y="-9" on="1"/>
        <pt x="124" y="-9" on="0"/>
        <pt x="35" y="75" on="0"/>
        <pt x="35" y="134" on="1"/>
        <pt x="35" y="223" on="0"/>
        <pt x="130" y="275" on="1"/>
        <pt x="93" y="323" on="0"/>
        <pt x="93" y="368" on="1"/>
        <pt x="93" y="420" on="0"/>
        <pt x="166" y="492" on="0"/>
        <pt x="223" y="492" on="1"/>
        <pt x="272" y="492" on="0"/>
        <pt x="335" y="433" on="0"/>
        <pt x="335" y="387" on="1"/>
        <pt x="335" y="308" on="0"/>
        <pt x="221" y="255" on="1"/>
        <pt x="266" y="205" on="0"/>
        <pt x="348" y="126" on="1"/>
        <pt x="397" y="190" on="0"/>
        <pt x="404" y="266" on="1"/>
        <pt x="457" y="266" on="1"/>
        <pt x="443" y="158" on="0"/>
        <pt x="390" y="89" on="1"/>
        <pt x="437" y="46" on="0"/>
        <pt x="474" y="14" on="1"/>
      </contour>
      <contour>
        <pt x="277" y="384" on="1"/>
        <pt x="277" y="441" on="0"/>
        <pt x="220" y="441" on="1"/>
        <pt x="190" y="441" on="0"/>
        <pt x="154" y="401" on="0"/>
        <pt x="154" y="372" on="1"/>
        <pt x="154" y="343" on="0"/>
        <pt x="191" y="298" on="1"/>
        <pt x="277" y="341" on="0"/>
      </contour>
      <contour>
        <pt x="312" y="85" on="1"/>
        <pt x="312" y="85" on="0"/>
        <pt x="167" y="233" on="1"/>
        <pt x="98" y="194" on="0"/>
        <pt x="98" y="138" on="1"/>
        <pt x="98" y="97" on="0"/>
        <pt x="156" y="45" on="0"/>
        <pt x="200" y="45" on="1"/>
        <pt x="266" y="45" on="0"/>
      </contour>
    </TTGlyph>
    <TTGlyph name="approxequal" xMin="38" yMin="13" xMax="377" yMax="279">
      <contour>
        <pt x="377" y="263" on="1"/>
        <pt x="377" y="217" on="0"/>
        <pt x="327" y="164" on="0"/>
        <pt x="287" y="164" on="1"/>
        <pt x="263" y="164" on="0"/>
        <pt x="148" y="226" on="0"/>
        <pt x="131" y="226" on="1"/>
        <pt x="96" y="226" on="0"/>
        <pt x="94" y="164" on="1"/>
        <pt x="39" y="164" on="1"/>
        <pt x="39" y="183" on="1"/>
        <pt x="39" y="227" on="0"/>
        <pt x="92" y="279" on="0"/>
        <pt x="131" y="279" on="1"/>
        <pt x="158" y="279" on="0"/>
        <pt x="270" y="220" on="0"/>
        <pt x="289" y="220" on="1"/>
        <pt x="320" y="220" on="0"/>
        <pt x="323" y="279" on="1"/>
        <pt x="377" y="279" on="1"/>
      </contour>
      <contour>
        <pt x="376" y="112" on="1"/>
        <pt x="376" y="66" on="0"/>
        <pt x="326" y="13" on="0"/>
        <pt x="286" y="13" on="1"/>
        <pt x="262" y="13" on="0"/>
        <pt x="147" y="75" on="0"/>
        <pt x="130" y="75" on="1"/>
        <pt x="95" y="75" on="0"/>
        <pt x="93" y="13" on="1"/>
        <pt x="38" y="13" on="1"/>
        <pt x="38" y="32" on="1"/>
        <pt x="38" y="76" on="0"/>
        <pt x="91" y="128" on="0"/>
        <pt x="130" y="128" on="1"/>
        <pt x="157" y="128" on="0"/>
        <pt x="269" y="69" on="0"/>
        <pt x="288" y="69" on="1"/>
        <pt x="319" y="69" on="0"/>
        <pt x="322" y="128" on="1"/>
        <pt x="376" y="128" on="1"/>
      </contour>
    </TTGlyph>
    <TTGlyph name="aring" xMin="26" yMin="-9" xMax="355" yMax="680">
      <component glyphName="a" x="0" y="0" flags="0x204"/>
      <component glyphName="ring" x="50" y="0" flags="0x4"/>
    </TTGlyph>
    <TTGlyph name="asciicircum" xMin="32" yMin="152" xMax="394" yMax="480">
      <contour>
        <pt x="394" y="152" on="1"/>
        <pt x="329" y="152" on="1"/>
        <pt x="213" y="405" on="1"/>
        <pt x="97" y="152" on="1"/>
        <pt x="32" y="152" on="1"/>
        <pt x="188" y="480" on="1"/>
        <pt x="239" y="480" on="1"/>
      </contour>
    </TTGlyph>
    <TTGlyph name="asciitilde" xMin="22" yMin="144" xMax="408" yMax="259">
      <contour>
        <pt x="408" y="243" on="1"/>
        <pt x="408" y="197" on="0"/>
        <pt x="358" y="144" on="0"/>
        <pt x="318" y="144" on="1"/>
        <pt x="294" y="144" on="0"/>
        <pt x="131" y="206" on="0"/>
        <pt x="114" y="206" on="1"/>
        <pt x="79" y="206" on="0"/>
        <pt x="77" y="144" on="1"/>
        <pt x="22" y="144" on="1"/>
        <pt x="22" y="163" on="1"/>
        <pt x="22" y="207" on="0"/>
        <pt x="75" y="259" on="0"/>
        <pt x="114" y="259" on="1"/>
        <pt x="141" y="259" on="0"/>
        <pt x="301" y="200" on="0"/>
        <pt x="320" y="200" on="1"/>
        <pt x="351" y="200" on="0"/>
        <pt x="354" y="259" on="1"/>
        <pt x="408" y="259" on="1"/>
      </contour>
    </TTGlyph>
    <TTGlyph name="asterisk" xMin="39" yMin="247" xMax="303" yMax="496">
      <contour>
        <pt x="266" y="277" on="1"/>
        <pt x="215" y="247" on="1"/>
        <pt x="171" y="333" on="1"/>
        <pt x="127" y="247" on="1"/>
        <pt x="76" y="277" on="1"/>
        <pt x="138" y="354" on="1"/>
        <pt x="39" y="345" on="1"/>
        <pt x="39" y="397" on="1"/>
        <pt x="138" y="389" on="1"/>
        <pt x="76" y="466" on="1"/>
        <pt x="127" y="496" on="1"/>
        <pt x="171" y="410" on="1"/>
        <pt x="215" y="496" on="1"/>
        <pt x="266" y="466" on="1"/>
        <pt x="204" y="389" on="1"/>
        <pt x="303" y="397" on="1"/>
        <pt x="303" y="346" on="1"/>
        <pt x="204" y="354" on="1"/>
      </contour>
    </TTGlyph>
    <TTGlyph name="at" xMin="30" yMin="-95" xMax="540" yMax="396">
      <contour>
        <pt x="540" y="177" on="1"/>
        <pt x="540" y="97" on="0"/>
        <pt x="482" y="49" on="1"/>
        <pt x="431" y="7" on="0"/>
        <pt x="361" y="7" on="1"/>
        <pt x="355" y="43" on="1"/>
        <pt x="308" y="1" on="0"/>
        <pt x="248" y="1" on="1"/>
        <pt x="205" y="1" on="0"/>
        <pt x="144" y="50" on="0"/>
        <pt x="144" y="87" on="1"/>
        <pt x="144" y="196" on="0"/>
        <pt x="343" y="201" on="1"/>
        <pt x="343" y="277" on="0"/>
        <pt x="271" y="277" on="1"/>
        <pt x="232" y="277" on="0"/>
        <pt x="199" y="256" on="1"/>
        <pt x="182" y="291" on="1"/>
        <pt x="230" y="319" on="0"/>
        <pt x="287" y="319" on="1"/>
        <pt x="340" y="319" on="0"/>
        <pt x="397" y="249" on="0"/>
        <pt x="397" y="189" on="1"/>
        <pt x="397" y="85" on="1"/>
        <pt x="397" y="62" on="0"/>
        <pt x="398" y="53" on="1"/>
        <pt x="410" y="53" on="1"/>
        <pt x="445" y="63" on="0"/>
        <pt x="493" y="134" on="0"/>
        <pt x="493" y="175" on="1"/>
        <pt x="493" y="252" on="0"/>
        <pt x="389" y="355" on="0"/>
        <pt x="302" y="355" on="1"/>
        <pt x="204" y="355" on="0"/>
        <pt x="81" y="230" on="0"/>
        <pt x="81" y="136" on="1"/>
        <pt x="81" y="54" on="0"/>
        <pt x="190" y="-54" on="0"/>
        <pt x="270" y="-54" on="1"/>
        <pt x="331" y="-54" on="0"/>
        <pt x="392" y="-22" on="1"/>
        <pt x="411" y="-62" on="1"/>
        <pt x="341" y="-95" on="0"/>
        <pt x="267" y="-95" on="1"/>
        <pt x="169" y="-95" on="0"/>
        <pt x="101" y="-31" on="1"/>
        <pt x="30" y="34" on="0"/>
        <pt x="30" y="133" on="1"/>
        <pt x="30" y="246" on="0"/>
        <pt x="188" y="396" on="0"/>
        <pt x="307" y="396" on="1"/>
        <pt x="409" y="396" on="0"/>
        <pt x="540" y="273" on="0"/>
      </contour>
      <contour>
        <pt x="346" y="107" on="1"/>
        <pt x="346" y="163" on="1"/>
        <pt x="194" y="157" on="0"/>
        <pt x="194" y="92" on="1"/>
        <pt x="194" y="45" on="0"/>
        <pt x="249" y="45" on="1"/>
        <pt x="286" y="45" on="0"/>
        <pt x="314" y="61" on="1"/>
        <pt x="346" y="79" on="0"/>
      </contour>
    </TTGlyph>
    <TTGlyph name="atilde" xMin="26" yMin="-9" xMax="1393" yMax="864">
      <component glyphName="a" x="0" y="0" flags="0x204"/>
      <component glyphName="tildecomb" x="313" y="0" flags="0x4"/>
    </TTGlyph>
    <TTGlyph name="b" xMin="50" yMin="-9" xMax="409" yMax="504">
      <contour>
        <pt x="409" y="177" on="1"/>
        <pt x="409" y="96" on="0"/>
        <pt x="308" y="-9" on="0"/>
        <pt x="234" y="-9" on="1"/>
        <pt x="160" y="-9" on="0"/>
        <pt x="113" y="37" on="1"/>
        <pt x="113" y="11" on="0"/>
        <pt x="110" y="0" on="1"/>
        <pt x="50" y="0" on="1"/>
        <pt x="54" y="49" on="0"/>
        <pt x="54" y="91" on="1"/>
        <pt x="54" y="504" on="1"/>
        <pt x="117" y="504" on="1"/>
        <pt x="117" y="306" on="1"/>
        <pt x="164" y="353" on="0"/>
        <pt x="239" y="353" on="1"/>
        <pt x="312" y="353" on="0"/>
        <pt x="409" y="252" on="0"/>
      </contour>
      <contour>
        <pt x="347" y="177" on="1"/>
        <pt x="347" y="231" on="0"/>
        <pt x="285" y="301" on="0"/>
        <pt x="233" y="301" on="1"/>
        <pt x="191" y="301" on="0"/>
        <pt x="117" y="245" on="0"/>
        <pt x="117" y="207" on="1"/>
        <pt x="117" y="129" on="1"/>
        <pt x="117" y="91" on="0"/>
        <pt x="179" y="46" on="0"/>
        <pt x="229" y="46" on="1"/>
        <pt x="285" y="46" on="0"/>
        <pt x="347" y="116" on="0"/>
      </contour>
    </TTGlyph>
    <TTGlyph name="backslash" xMin="-22" yMin="-27" xMax="302" yMax="483">
      <contour>
        <pt x="302" y="-27" on="1"/>
        <pt x="238" y="-27" on="1"/>
        <pt x="-22" y="483" on="1"/>
        <pt x="43" y="483" on="1"/>
      </contour>
    </TTGlyph>
    <TTGlyph name="bar" xMin="60" yMin="-166" xMax="117" yMax="526">
      <contour>
        <pt x="117" y="-166" on="1"/>
        <pt x="60" y="-166" on="1"/>
        <pt x="60" y="526" on="1"/>
        <pt x="117" y="526" on="1"/>
      </contour>
    </TTGlyph>
    <TTGlyph name="braceleft" xMin="30" yMin="-88" xMax="221" yMax="498">
      <contour>
        <pt x="221" y="-88" on="1"/>
        <pt x="198" y="-88" on="1"/>
        <pt x="78" y="-88" on="0"/>
        <pt x="78" y="14" on="1"/>
        <pt x="78" y="34" on="0"/>
        <pt x="92" y="123" on="0"/>
        <pt x="92" y="141" on="1"/>
        <pt x="92" y="177" on="0"/>
        <pt x="30" y="179" on="1"/>
        <pt x="30" y="231" on="1"/>
        <pt x="92" y="233" on="0"/>
        <pt x="92" y="268" on="1"/>
        <pt x="92" y="289" on="0"/>
        <pt x="78" y="378" on="0"/>
        <pt x="78" y="396" on="1"/>
        <pt x="78" y="498" on="0"/>
        <pt x="198" y="498" on="1"/>
        <pt x="221" y="498" on="1"/>
        <pt x="221" y="446" on="1"/>
        <pt x="195" y="446" on="1"/>
        <pt x="140" y="446" on="0"/>
        <pt x="137" y="394" on="1"/>
        <pt x="151" y="309" on="0"/>
        <pt x="151" y="271" on="1"/>
        <pt x="151" y="249" on="0"/>
        <pt x="126" y="210" on="0"/>
        <pt x="109" y="205" on="1"/>
        <pt x="151" y="188" on="0"/>
        <pt x="151" y="138" on="1"/>
        <pt x="151" y="101" on="0"/>
        <pt x="137" y="16" on="1"/>
        <pt x="139" y="-37" on="0"/>
        <pt x="195" y="-37" on="1"/>
        <pt x="221" y="-37" on="1"/>
      </contour>
    </TTGlyph>
    <TTGlyph name="braceright" xMin="37" yMin="-88" xMax="228" yMax="498">
      <contour>
        <pt x="228" y="179" on="1"/>
        <pt x="166" y="177" on="0"/>
        <pt x="166" y="141" on="1"/>
        <pt x="166" y="123" on="0"/>
        <pt x="180" y="34" on="0"/>
        <pt x="180" y="14" on="1"/>
        <pt x="180" y="-88" on="0"/>
        <pt x="60" y="-88" on="1"/>
        <pt x="37" y="-88" on="1"/>
        <pt x="37" y="-37" on="1"/>
        <pt x="63" y="-37" on="1"/>
        <pt x="121" y="-37" on="0"/>
        <pt x="121" y="12" on="1"/>
        <pt x="121" y="35" on="0"/>
        <pt x="107" y="118" on="0"/>
        <pt x="107" y="138" on="1"/>
        <pt x="107" y="188" on="0"/>
        <pt x="149" y="205" on="1"/>
        <pt x="132" y="210" on="0"/>
        <pt x="107" y="249" on="0"/>
        <pt x="107" y="271" on="1"/>
        <pt x="107" y="293" on="0"/>
        <pt x="121" y="377" on="0"/>
        <pt x="121" y="398" on="1"/>
        <pt x="121" y="446" on="0"/>
        <pt x="63" y="446" on="1"/>
        <pt x="37" y="446" on="1"/>
        <pt x="37" y="498" on="1"/>
        <pt x="60" y="498" on="1"/>
        <pt x="180" y="498" on="0"/>
        <pt x="180" y="396" on="1"/>
        <pt x="180" y="378" on="0"/>
        <pt x="166" y="289" on="0"/>
        <pt x="166" y="268" on="1"/>
        <pt x="166" y="233" on="0"/>
        <pt x="228" y="231" on="1"/>
      </contour>
    </TTGlyph>
    <TTGlyph name="bracketleft" xMin="46" yMin="-77" xMax="204" yMax="528">
      <contour>
        <pt x="204" y="-77" on="1"/>
        <pt x="46" y="-77" on="1"/>
        <pt x="46" y="528" on="1"/>
        <pt x="204" y="528" on="1"/>
        <pt x="204" y="476" on="1"/>
        <pt x="105" y="476" on="1"/>
        <pt x="105" y="-26" on="1"/>
        <pt x="204" y="-26" on="1"/>
      </contour>
    </TTGlyph>
    <TTGlyph name="bracketright" xMin="30" yMin="-77" xMax="188" yMax="528">
      <contour>
        <pt x="188" y="-77" on="1"/>
        <pt x="30" y="-77" on="1"/>
        <pt x="30" y="-26" on="1"/>
        <pt x="129" y="-26" on="1"/>
        <pt x="129" y="476" on="1"/>
        <pt x="30" y="476" on="1"/>
        <pt x="30" y="528" on="1"/>
        <pt x="188" y="528" on="1"/>
      </contour>
    </TTGlyph>
    <TTGlyph name="breve" xMin="53" yMin="379" xMax="289" yMax="491">
      <contour>
        <pt x="289" y="491" on="1"/>
        <pt x="279" y="434" on="0"/>
        <pt x="219" y="379" on="0"/>
        <pt x="171" y="379" on="1"/>
        <pt x="123" y="379" on="0"/>
        <pt x="63" y="434" on="0"/>
        <pt x="53" y="491" on="1"/>
        <pt x="107" y="491" on="1"/>
        <pt x="112" y="466" on="0"/>
        <pt x="143" y="427" on="0"/>
        <pt x="171" y="427" on="1"/>
        <pt x="199" y="427" on="0"/>
        <pt x="231" y="466" on="0"/>
        <pt x="236" y="491" on="1"/>
      </contour>
    </TTGlyph>
    <TTGlyph name="brokenbar" xMin="56" yMin="-119" xMax="104" yMax="476">
      <contour>
        <pt x="104" y="220" on="1"/>
        <pt x="56" y="220" on="1"/>
        <pt x="56" y="476" on="1"/>
        <pt x="104" y="476" on="1"/>
      </contour>
      <contour>
        <pt x="104" y="-119" on="1"/>
        <pt x="56" y="-119" on="1"/>
        <pt x="56" y="138" on="1"/>
        <pt x="104" y="138" on="1"/>
      </contour>
    </TTGlyph>
    <TTGlyph name="bullet" xMin="29" yMin="116" xMax="197" yMax="284">
      <contour>
        <pt x="197" y="200" on="1"/>
        <pt x="197" y="165" on="0"/>
        <pt x="148" y="116" on="0"/>
        <pt x="113" y="116" on="1"/>
        <pt x="78" y="116" on="0"/>
        <pt x="29" y="165" on="0"/>
        <pt x="29" y="200" on="1"/>
        <pt x="29" y="235" on="0"/>
        <pt x="77" y="284" on="0"/>
        <pt x="113" y="284" on="1"/>
        <pt x="148" y="284" on="0"/>
        <pt x="197" y="234" on="0"/>
      </contour>
    </TTGlyph>
    <TTGlyph name="c" xMin="26" yMin="-9" xMax="322" yMax="353">
      <contour>
        <pt x="322" y="21" on="1"/>
        <pt x="274" y="-9" on="0"/>
        <pt x="205" y="-9" on="1"/>
        <pt x="124" y="-9" on="0"/>
        <pt x="26" y="92" on="0"/>
        <pt x="26" y="172" on="1"/>
        <pt x="26" y="253" on="0"/>
        <pt x="124" y="353" on="0"/>
        <pt x="205" y="353" on="1"/>
        <pt x="273" y="353" on="0"/>
        <pt x="322" y="323" on="1"/>
        <pt x="300" y="271" on="1"/>
        <pt x="253" y="300" on="0"/>
        <pt x="203" y="300" on="1"/>
        <pt x="152" y="300" on="0"/>
        <pt x="90" y="229" on="0"/>
        <pt x="90" y="172" on="1"/>
        <pt x="90" y="114" on="0"/>
        <pt x="152" y="44" on="0"/>
        <pt x="203" y="44" on="1"/>
        <pt x="253" y="44" on="0"/>
        <pt x="300" y="73" on="1"/>
      </contour>
    </TTGlyph>
    <TTGlyph name="cacute" xMin="26" yMin="-9" xMax="9737" yMax="3053">
      <component glyphName="c" x="0" y="0" flags="0x204"/>
      <component glyphName="acutecomb" x="314" y="0" flags="0x4"/>
    </TTGlyph>
    <TTGlyph name="caron" xMin="183" yMin="657" xMax="373" yMax="772">
      <contour>
        <pt x="295" y="657" on="1"/>
        <pt x="260" y="657" on="1"/>
        <pt x="183" y="772" on="1"/>
        <pt x="237" y="772" on="1"/>
        <pt x="278" y="701" on="1"/>
        <pt x="318" y="772" on="1"/>
        <pt x="373" y="772" on="1"/>
      </contour>
    </TTGlyph>
    <TTGlyph name="ccaron" xMin="26" yMin="-9" xMax="454" yMax="908">
      <component glyphName="c" x="0" y="0" flags="0x204"/>
      <component glyphName="caron" x="19" y="0" flags="0x4"/>
    </TTGlyph>
    <TTGlyph name="ccedilla" xMin="26" yMin="-159" xMax="336" yMax="353">
      <component glyphName="c" x="0" y="0" flags="0x204"/>
      <component glyphName="cedilla" x="49" y="0" flags="0x4"/>
    </TTGlyph>
    <TTGlyph name="cedilla" xMin="53" yMin="-159" xMax="196" yMax="11">
      <contour>
        <pt x="196" y="-90" on="1"/>
        <pt x="196" y="-122" on="0"/>
        <pt x="154" y="-159" on="0"/>
        <pt x="116" y="-159" on="1"/>
        <pt x="102" y="-159" on="0"/>
        <pt x="68" y="-150" on="0"/>
        <pt x="53" y="-141" on="1"/>
        <pt x="67" y="-109" on="1"/>
        <pt x="81" y="-116" on="0"/>
        <pt x="110" y="-124" on="0"/>
        <pt x="118" y="-124" on="1"/>
        <pt x="150" y="-124" on="0"/>
        <pt x="150" y="-94" on="1"/>
        <pt x="150" y="-66" on="0"/>
        <pt x="86" y="-55" on="1"/>
        <pt x="129" y="11" on="1"/>
        <pt x="172" y="11" on="1"/>
        <pt x="144" y="-28" on="1"/>
        <pt x="171" y="-36" on="0"/>
        <pt x="196" y="-67" on="0"/>
      </contour>
    </TTGlyph>
    <TTGlyph name="cent" xMin="61" yMin="-56" xMax="418" yMax="514">
      <contour>
        <pt x="418" y="52" on="1"/>
        <pt x="365" y="23" on="0"/>
        <pt x="285" y="21" on="1"/>
        <pt x="285" y="-56" on="1"/>
        <pt x="230" y="-56" on="1"/>
        <pt x="230" y="24" on="1"/>
        <pt x="152" y="38" on="0"/>
        <pt x="61" y="147" on="0"/>
        <pt x="61" y="229" on="1"/>
        <pt x="61" y="311" on="0"/>
        <pt x="152" y="420" on="0"/>
        <pt x="230" y="434" on="1"/>
        <pt x="230" y="514" on="1"/>
        <pt x="285" y="514" on="1"/>
        <pt x="285" y="437" on="1"/>
        <pt x="365" y="435" on="0"/>
        <pt x="418" y="406" on="1"/>
        <pt x="397" y="358" on="1"/>
        <pt x="372" y="369" on="0"/>
        <pt x="318" y="381" on="0"/>
        <pt x="289" y="381" on="1"/>
        <pt x="210" y="381" on="0"/>
        <pt x="121" y="301" on="0"/>
        <pt x="121" y="229" on="1"/>
        <pt x="121" y="157" on="0"/>
        <pt x="210" y="77" on="0"/>
        <pt x="289" y="77" on="1"/>
        <pt x="318" y="77" on="0"/>
        <pt x="372" y="89" on="0"/>
        <pt x="397" y="100" on="1"/>
      </contour>
    </TTGlyph>
    <TTGlyph name="circumflex" xMin="785" yMin="1065" xMax="975" yMax="1180">
      <contour>
        <pt x="975" y="1065" on="1"/>
        <pt x="921" y="1065" on="1"/>
        <pt x="880" y="1136" on="1"/>
        <pt x="840" y="1065" on="1"/>
        <pt x="785" y="1065" on="1"/>
        <pt x="863" y="1180" on="1"/>
        <pt x="898" y="1180" on="1"/>
      </contour>
    </TTGlyph>
    <TTGlyph name="colon" xMin="38" yMin="-9" xMax="134" yMax="333">
      <contour>
        <pt x="134" y="39" on="1"/>
        <pt x="134" y="19" on="0"/>
        <pt x="106" y="-9" on="0"/>
        <pt x="86" y="-9" on="1"/>
        <pt x="66" y="-9" on="0"/>
        <pt x="38" y="19" on="0"/>
        <pt x="38" y="39" on="1"/>
        <pt x="38" y="59" on="0"/>
        <pt x="66" y="87" on="0"/>
        <pt x="86" y="87" on="1"/>
        <pt x="106" y="87" on="0"/>
        <pt x="134" y="59" on="0"/>
      </contour>
      <contour>
        <pt x="134" y="285" on="1"/>
        <pt x="134" y="265" on="0"/>
        <pt x="106" y="237" on="0"/>
        <pt x="86" y="237" on="1"/>
        <pt x="66" y="237" on="0"/>
        <pt x="38" y="265" on="0"/>
        <pt x="38" y="285" on="1"/>
        <pt x="38" y="305" on="0"/>
        <pt x="66" y="333" on="0"/>
        <pt x="86" y="333" on="1"/>
        <pt x="106" y="333" on="0"/>
        <pt x="134" y="305" on="0"/>
      </contour>
    </TTGlyph>
    <TTGlyph name="comma" xMin="25" yMin="-107" xMax="137" yMax="92">
      <contour>
        <pt x="137" y="37" on="1"/>
        <pt x="137" y="-62" on="0"/>
        <pt x="46" y="-107" on="1"/>
        <pt x="25" y="-78" on="1"/>
        <pt x="78" y="-46" on="0"/>
        <pt x="86" y="-8" on="1"/>
        <pt x="38" y="-5" on="0"/>
        <pt x="38" y="42" on="1"/>
        <pt x="38" y="63" on="0"/>
        <pt x="67" y="92" on="0"/>
        <pt x="87" y="92" on="1"/>
        <pt x="108" y="92" on="0"/>
        <pt x="137" y="61" on="0"/>
      </contour>
    </TTGlyph>
    <TTGlyph name="copyright" xMin="27" yMin="-3" xMax="513" yMax="483">
      <contour>
        <pt x="371" y="117" on="1"/>
        <pt x="333" y="88" on="0"/>
        <pt x="268" y="88" on="1"/>
        <pt x="201" y="88" on="0"/>
        <pt x="123" y="172" on="0"/>
        <pt x="123" y="233" on="1"/>
        <pt x="123" y="303" on="0"/>
        <pt x="205" y="384" on="0"/>
        <pt x="273" y="384" on="1"/>
        <pt x="334" y="384" on="0"/>
        <pt x="366" y="360" on="1"/>
        <pt x="354" y="324" on="1"/>
        <pt x="316" y="346" on="0"/>
        <pt x="273" y="346" on="1"/>
        <pt x="169" y="346" on="0"/>
        <pt x="169" y="238" on="1"/>
        <pt x="169" y="129" on="0"/>
        <pt x="274" y="129" on="1"/>
        <pt x="323" y="129" on="0"/>
        <pt x="358" y="154" on="1"/>
      </contour>
      <contour>
        <pt x="513" y="240" on="1"/>
        <pt x="513" y="140" on="0"/>
        <pt x="370" y="-3" on="0"/>
        <pt x="270" y="-3" on="1"/>
        <pt x="170" y="-3" on="0"/>
        <pt x="27" y="140" on="0"/>
        <pt x="27" y="240" on="1"/>
        <pt x="27" y="340" on="0"/>
        <pt x="170" y="483" on="0"/>
        <pt x="270" y="483" on="1"/>
        <pt x="370" y="483" on="0"/>
        <pt x="513" y="340" on="0"/>
      </contour>
      <contour>
        <pt x="471" y="240" on="1"/>
        <pt x="471" y="323" on="0"/>
        <pt x="353" y="441" on="0"/>
        <pt x="270" y="441" on="1"/>
        <pt x="187" y="441" on="0"/>
        <pt x="69" y="323" on="0"/>
        <pt x="69" y="240" on="1"/>
        <pt x="69" y="157" on="0"/>
        <pt x="187" y="39" on="0"/>
        <pt x="270" y="39" on="1"/>
        <pt x="353" y="39" on="0"/>
        <pt x="471" y="157" on="0"/>
      </contour>
    </TTGlyph>
    <TTGlyph name="currency" xMin="50" yMin="35" xMax="430" yMax="417">
      <contour>
        <pt x="427" y="226" on="1"/>
        <pt x="427" y="167" on="0"/>
        <pt x="393" y="120" on="1"/>
        <pt x="430" y="81" on="1"/>
        <pt x="387" y="35" on="1"/>
        <pt x="348" y="76" on="1"/>
        <pt x="304" y="41" on="0"/>
        <pt x="239" y="41" on="1"/>
        <pt x="176" y="41" on="0"/>
        <pt x="132" y="76" on="1"/>
        <pt x="93" y="35" on="1"/>
        <pt x="50" y="81" on="1"/>
        <pt x="87" y="120" on="1"/>
        <pt x="53" y="167" on="0"/>
        <pt x="53" y="226" on="1"/>
        <pt x="53" y="285" on="0"/>
        <pt x="87" y="332" on="1"/>
        <pt x="50" y="371" on="1"/>
        <pt x="93" y="417" on="1"/>
        <pt x="132" y="376" on="1"/>
        <pt x="176" y="411" on="0"/>
        <pt x="239" y="411" on="1"/>
        <pt x="304" y="411" on="0"/>
        <pt x="348" y="376" on="1"/>
        <pt x="387" y="417" on="1"/>
        <pt x="430" y="371" on="1"/>
        <pt x="393" y="332" on="1"/>
        <pt x="427" y="285" on="0"/>
      </contour>
      <contour>
        <pt x="365" y="226" on="1"/>
        <pt x="365" y="277" on="0"/>
        <pt x="291" y="351" on="0"/>
        <pt x="240" y="351" on="1"/>
        <pt x="187" y="351" on="0"/>
        <pt x="115" y="277" on="0"/>
        <pt x="115" y="226" on="1"/>
        <pt x="115" y="173" on="0"/>
        <pt x="187" y="101" on="0"/>
        <pt x="240" y="101" on="1"/>
        <pt x="291" y="101" on="0"/>
        <pt x="365" y="173" on="0"/>
      </contour>
    </TTGlyph>
    <TTGlyph name="d" xMin="26" yMin="-9" xMax="385" yMax="504">
      <contour>
        <pt x="385" y="0" on="1"/>
        <pt x="325" y="0" on="1"/>
        <pt x="322" y="11" on="0"/>
        <pt x="322" y="37" on="1"/>
        <pt x="275" y="-9" on="0"/>
        <pt x="201" y="-9" on="1"/>
        <pt x="127" y="-9" on="0"/>
        <pt x="26" y="96" on="0"/>
        <pt x="26" y="177" on="1"/>
        <pt x="26" y="252" on="0"/>
        <pt x="123" y="353" on="0"/>
        <pt x="196" y="353" on="1"/>
        <pt x="271" y="353" on="0"/>
        <pt x="318" y="306" on="1"/>
        <pt x="318" y="504" on="1"/>
        <pt x="381" y="504" on="1"/>
        <pt x="381" y="91" on="1"/>
        <pt x="381" y="49" on="0"/>
      </contour>
      <contour>
        <pt x="318" y="129" on="1"/>
        <pt x="318" y="207" on="1"/>
        <pt x="318" y="245" on="0"/>
        <pt x="244" y="301" on="0"/>
        <pt x="202" y="301" on="1"/>
        <pt x="150" y="301" on="0"/>
        <pt x="88" y="231" on="0"/>
        <pt x="88" y="177" on="1"/>
        <pt x="88" y="116" on="0"/>
        <pt x="150" y="46" on="0"/>
        <pt x="206" y="46" on="1"/>
        <pt x="256" y="46" on="0"/>
        <pt x="318" y="91" on="0"/>
      </contour>
    </TTGlyph>
    <TTGlyph name="dagger" xMin="39" yMin="-33" xMax="341" yMax="475">
      <contour>
        <pt x="215" y="-33" on="1"/>
        <pt x="165" y="-33" on="1"/>
        <pt x="165" y="284" on="1"/>
        <pt x="39" y="280" on="1"/>
        <pt x="39" y="328" on="1"/>
        <pt x="165" y="324" on="1"/>
        <pt x="165" y="475" on="1"/>
        <pt x="215" y="475" on="1"/>
        <pt x="215" y="324" on="1"/>
        <pt x="341" y="328" on="1"/>
        <pt x="341" y="280" on="1"/>
        <pt x="215" y="284" on="1"/>
      </contour>
    </TTGlyph>
    <TTGlyph name="daggerdbl" xMin="39" yMin="-33" xMax="341" yMax="475">
      <contour>
        <pt x="215" y="-33" on="1"/>
        <pt x="165" y="-33" on="1"/>
        <pt x="165" y="112" on="1"/>
        <pt x="39" y="109" on="1"/>
        <pt x="39" y="156" on="1"/>
        <pt x="165" y="152" on="1"/>
        <pt x="165" y="284" on="1"/>
        <pt x="39" y="280" on="1"/>
        <pt x="39" y="328" on="1"/>
        <pt x="165" y="324" on="1"/>
        <pt x="165" y="475" on="1"/>
        <pt x="215" y="475" on="1"/>
        <pt x="215" y="324" on="1"/>
        <pt x="341" y="328" on="1"/>
        <pt x="341" y="280" on="1"/>
        <pt x="215" y="284" on="1"/>
        <pt x="215" y="152" on="1"/>
        <pt x="341" y="156" on="1"/>
        <pt x="341" y="109" on="1"/>
        <pt x="215" y="112" on="1"/>
      </contour>
    </TTGlyph>
    <TTGlyph name="dcroat" xMin="26" yMin="-9" xMax="439" yMax="504">
      <contour>
        <pt x="385" y="0" on="1"/>
        <pt x="325" y="0" on="1"/>
        <pt x="322" y="11" on="0"/>
        <pt x="322" y="37" on="1"/>
        <pt x="275" y="-9" on="0"/>
        <pt x="201" y="-9" on="1"/>
        <pt x="127" y="-9" on="0"/>
        <pt x="26" y="96" on="0"/>
        <pt x="26" y="177" on="1"/>
        <pt x="26" y="252" on="0"/>
        <pt x="123" y="353" on="0"/>
        <pt x="196" y="353" on="1"/>
        <pt x="271" y="353" on="0"/>
        <pt x="318" y="306" on="1"/>
        <pt x="318" y="410" on="1"/>
        <pt x="220" y="410" on="1"/>
        <pt x="220" y="454" on="1"/>
        <pt x="318" y="454" on="1"/>
        <pt x="318" y="504" on="1"/>
        <pt x="381" y="504" on="1"/>
        <pt x="381" y="454" on="1"/>
        <pt x="439" y="454" on="1"/>
        <pt x="439" y="410" on="1"/>
        <pt x="381" y="410" on="1"/>
        <pt x="381" y="91" on="1"/>
        <pt x="381" y="49" on="0"/>
      </contour>
      <contour>
        <pt x="318" y="129" on="1"/>
        <pt x="318" y="207" on="1"/>
        <pt x="318" y="245" on="0"/>
        <pt x="244" y="301" on="0"/>
        <pt x="202" y="301" on="1"/>
        <pt x="150" y="301" on="0"/>
        <pt x="88" y="231" on="0"/>
        <pt x="88" y="177" on="1"/>
        <pt x="88" y="116" on="0"/>
        <pt x="150" y="46" on="0"/>
        <pt x="206" y="46" on="1"/>
        <pt x="256" y="46" on="0"/>
        <pt x="318" y="91" on="0"/>
      </contour>
    </TTGlyph>
    <TTGlyph name="degree" xMin="49" yMin="308" xMax="227" yMax="486">
      <contour>
        <pt x="227" y="397" on="1"/>
        <pt x="227" y="360" on="0"/>
        <pt x="175" y="308" on="0"/>
        <pt x="138" y="308" on="1"/>
        <pt x="101" y="308" on="0"/>
        <pt x="49" y="360" on="0"/>
        <pt x="49" y="397" on="1"/>
        <pt x="49" y="434" on="0"/>
        <pt x="101" y="486" on="0"/>
        <pt x="138" y="486" on="1"/>
        <pt x="175" y="486" on="0"/>
        <pt x="227" y="434" on="0"/>
      </contour>
      <contour>
        <pt x="195" y="397" on="1"/>
        <pt x="195" y="420" on="0"/>
        <pt x="161" y="454" on="0"/>
        <pt x="138" y="454" on="1"/>
        <pt x="115" y="454" on="0"/>
        <pt x="81" y="420" on="0"/>
        <pt x="81" y="397" on="1"/>
        <pt x="81" y="374" on="0"/>
        <pt x="115" y="340" on="0"/>
        <pt x="138" y="340" on="1"/>
        <pt x="161" y="340" on="0"/>
        <pt x="195" y="374" on="0"/>
      </contour>
    </TTGlyph>
    <TTGlyph name="dieresis" xMin="53" yMin="381" xMax="288" yMax="469">
      <contour>
        <pt x="140" y="425" on="1"/>
        <pt x="140" y="406" on="0"/>
        <pt x="114" y="381" on="0"/>
        <pt x="97" y="381" on="1"/>
        <pt x="79" y="381" on="0"/>
        <pt x="53" y="406" on="0"/>
        <pt x="53" y="425" on="1"/>
        <pt x="53" y="443" on="0"/>
        <pt x="79" y="469" on="0"/>
        <pt x="97" y="469" on="1"/>
        <pt x="114" y="469" on="0"/>
        <pt x="140" y="443" on="0"/>
      </contour>
      <contour>
        <pt x="288" y="425" on="1"/>
        <pt x="288" y="406" on="0"/>
        <pt x="262" y="381" on="0"/>
        <pt x="245" y="381" on="1"/>
        <pt x="228" y="381" on="0"/>
        <pt x="201" y="406" on="0"/>
        <pt x="201" y="425" on="1"/>
        <pt x="201" y="443" on="0"/>
        <pt x="228" y="469" on="0"/>
        <pt x="245" y="469" on="1"/>
        <pt x="262" y="469" on="0"/>
        <pt x="288" y="443" on="0"/>
      </contour>
    </TTGlyph>
    <TTGlyph name="divide" xMin="26" yMin="8" xMax="391" yMax="361">
      <contour>
        <pt x="391" y="157" on="1"/>
        <pt x="26" y="157" on="1"/>
        <pt x="26" y="211" on="1"/>
        <pt x="391" y="211" on="1"/>
      </contour>
      <contour>
        <pt x="257" y="56" on="1"/>
        <pt x="257" y="36" on="0"/>
        <pt x="229" y="8" on="0"/>
        <pt x="210" y="8" on="1"/>
        <pt x="191" y="8" on="0"/>
        <pt x="163" y="36" on="0"/>
        <pt x="163" y="56" on="1"/>
        <pt x="163" y="76" on="0"/>
        <pt x="191" y="104" on="0"/>
        <pt x="210" y="104" on="1"/>
        <pt x="229" y="104" on="0"/>
        <pt x="257" y="76" on="0"/>
      </contour>
      <contour>
        <pt x="257" y="313" on="1"/>
        <pt x="257" y="293" on="0"/>
        <pt x="229" y="265" on="0"/>
        <pt x="210" y="265" on="1"/>
        <pt x="191" y="265" on="0"/>
        <pt x="163" y="293" on="0"/>
        <pt x="163" y="313" on="1"/>
        <pt x="163" y="333" on="0"/>
        <pt x="191" y="361" on="0"/>
        <pt x="210" y="361" on="1"/>
        <pt x="229" y="361" on="0"/>
        <pt x="257" y="333" on="0"/>
      </contour>
    </TTGlyph>
    <TTGlyph name="dollar" xMin="43" yMin="-55" xMax="324" yMax="533">
      <contour>
        <pt x="324" y="138" on="1"/>
        <pt x="324" y="96" on="0"/>
        <pt x="264" y="28" on="0"/>
        <pt x="213" y="17" on="1"/>
        <pt x="213" y="-55" on="1"/>
        <pt x="154" y="-55" on="1"/>
        <pt x="154" y="15" on="1"/>
        <pt x="88" y="21" on="0"/>
        <pt x="43" y="56" on="1"/>
        <pt x="70" y="104" on="1"/>
        <pt x="114" y="69" on="0"/>
        <pt x="175" y="69" on="1"/>
        <pt x="215" y="69" on="0"/>
        <pt x="263" y="106" on="0"/>
        <pt x="263" y="136" on="1"/>
        <pt x="263" y="183" on="0"/>
        <pt x="182" y="217" on="1"/>
        <pt x="55" y="271" on="0"/>
        <pt x="55" y="344" on="1"/>
        <pt x="55" y="387" on="0"/>
        <pt x="112" y="449" on="0"/>
        <pt x="162" y="459" on="1"/>
        <pt x="162" y="533" on="1"/>
        <pt x="220" y="533" on="1"/>
        <pt x="220" y="460" on="1"/>
        <pt x="267" y="454" on="0"/>
        <pt x="316" y="427" on="1"/>
        <pt x="286" y="378" on="1"/>
        <pt x="252" y="407" on="0"/>
        <pt x="193" y="407" on="1"/>
        <pt x="160" y="407" on="0"/>
        <pt x="116" y="376" on="0"/>
        <pt x="116" y="349" on="1"/>
        <pt x="116" y="311" on="0"/>
        <pt x="204" y="272" on="1"/>
        <pt x="270" y="243" on="0"/>
        <pt x="324" y="183" on="0"/>
      </contour>
    </TTGlyph>
    <TTGlyph name="dong" xMin="26" yMin="-103" xMax="439" yMax="504">
      <contour>
        <pt x="385" y="0" on="1"/>
        <pt x="325" y="0" on="1"/>
        <pt x="322" y="11" on="0"/>
        <pt x="322" y="37" on="1"/>
        <pt x="275" y="-9" on="0"/>
        <pt x="201" y="-9" on="1"/>
        <pt x="127" y="-9" on="0"/>
        <pt x="26" y="96" on="0"/>
        <pt x="26" y="177" on="1"/>
        <pt x="26" y="252" on="0"/>
        <pt x="123" y="353" on="0"/>
        <pt x="196" y="353" on="1"/>
        <pt x="271" y="353" on="0"/>
        <pt x="318" y="306" on="1"/>
        <pt x="318" y="410" on="1"/>
        <pt x="220" y="410" on="1"/>
        <pt x="220" y="454" on="1"/>
        <pt x="318" y="454" on="1"/>
        <pt x="318" y="504" on="1"/>
        <pt x="381" y="504" on="1"/>
        <pt x="381" y="454" on="1"/>
        <pt x="439" y="454" on="1"/>
        <pt x="439" y="410" on="1"/>
        <pt x="381" y="410" on="1"/>
        <pt x="381" y="91" on="1"/>
        <pt x="381" y="49" on="0"/>
      </contour>
      <contour>
        <pt x="318" y="129" on="1"/>
        <pt x="318" y="207" on="1"/>
        <pt x="318" y="245" on="0"/>
        <pt x="244" y="301" on="0"/>
        <pt x="202" y="301" on="1"/>
        <pt x="150" y="301" on="0"/>
        <pt x="88" y="231" on="0"/>
        <pt x="88" y="177" on="1"/>
        <pt x="88" y="116" on="0"/>
        <pt x="150" y="46" on="0"/>
        <pt x="206" y="46" on="1"/>
        <pt x="256" y="46" on="0"/>
        <pt x="318" y="91" on="0"/>
      </contour>
      <contour>
        <pt x="415" y="-103" on="1"/>
        <pt x="34" y="-103" on="1"/>
        <pt x="34" y="-45" on="1"/>
        <pt x="415" y="-45" on="1"/>
      </contour>
    </TTGlyph>
    <TTGlyph name="dotaccent" xMin="53" yMin="501" xMax="140" yMax="589">
      <contour>
        <pt x="140" y="545" on="1"/>
        <pt x="140" y="526" on="0"/>
        <pt x="114" y="501" on="0"/>
        <pt x="97" y="501" on="1"/>
        <pt x="80" y="501" on="0"/>
        <pt x="53" y="526" on="0"/>
        <pt x="53" y="545" on="1"/>
        <pt x="53" y="563" on="0"/>
        <pt x="80" y="589" on="0"/>
        <pt x="97" y="589" on="1"/>
        <pt x="114" y="589" on="0"/>
        <pt x="140" y="563" on="0"/>
      </contour>
    </TTGlyph>
    <TTGlyph name="dotbelowcomb" xMin="2591" yMin="-144" xMax="2685" yMax="-48">
      <contour>
        <pt x="2685" y="-96" on="1"/>
        <pt x="2685" y="-116" on="0"/>
        <pt x="2657" y="-144" on="0"/>
        <pt x="2638" y="-144" on="1"/>
        <pt x="2619" y="-144" on="0"/>
        <pt x="2591" y="-116" on="0"/>
        <pt x="2591" y="-96" on="1"/>
        <pt x="2591" y="-76" on="0"/>
        <pt x="2619" y="-48" on="0"/>
        <pt x="2638" y="-48" on="1"/>
        <pt x="2657" y="-48" on="0"/>
        <pt x="2685" y="-76" on="0"/>
      </contour>
    </TTGlyph>
    <TTGlyph name="dotlessi" xMin="50" yMin="0" xMax="113" yMax="340">
      <contour>
        <pt x="113" y="0" on="1"/>
        <pt x="50" y="0" on="1"/>
        <pt x="50" y="340" on="1"/>
        <pt x="113" y="340" on="1"/>
      </contour>
    </TTGlyph>
    <TTGlyph name="dottedcircle" xMin="20" yMin="22" xMax="385" yMax="387">
      <contour>
        <pt x="221" y="368" on="1"/>
        <pt x="221" y="360" on="0"/>
        <pt x="210" y="349" on="0"/>
        <pt x="202" y="349" on="1"/>
        <pt x="194" y="349" on="0"/>
        <pt x="183" y="360" on="0"/>
        <pt x="183" y="368" on="1"/>
        <pt x="183" y="376" on="0"/>
        <pt x="194" y="387" on="0"/>
        <pt x="202" y="387" on="1"/>
        <pt x="210" y="387" on="0"/>
        <pt x="221" y="376" on="0"/>
      </contour>
      <contour>
        <pt x="221" y="41" on="1"/>
        <pt x="221" y="33" on="0"/>
        <pt x="210" y="22" on="0"/>
        <pt x="202" y="22" on="1"/>
        <pt x="194" y="22" on="0"/>
        <pt x="183" y="33" on="0"/>
        <pt x="183" y="41" on="1"/>
        <pt x="183" y="49" on="0"/>
        <pt x="194" y="60" on="0"/>
        <pt x="202" y="60" on="1"/>
        <pt x="210" y="60" on="0"/>
        <pt x="221" y="49" on="0"/>
      </contour>
      <contour>
        <pt x="57" y="205" on="1"/>
        <pt x="57" y="197" on="0"/>
        <pt x="46" y="187" on="0"/>
        <pt x="38" y="187" on="1"/>
        <pt x="30" y="187" on="0"/>
        <pt x="20" y="197" on="0"/>
        <pt x="20" y="205" on="1"/>
        <pt x="20" y="213" on="0"/>
        <pt x="30" y="224" on="0"/>
        <pt x="38" y="224" on="1"/>
        <pt x="46" y="224" on="0"/>
        <pt x="57" y="213" on="0"/>
      </contour>
      <contour>
        <pt x="385" y="205" on="1"/>
        <pt x="385" y="197" on="0"/>
        <pt x="374" y="187" on="0"/>
        <pt x="366" y="187" on="1"/>
        <pt x="358" y="187" on="0"/>
        <pt x="348" y="197" on="0"/>
        <pt x="348" y="205" on="1"/>
        <pt x="348" y="213" on="0"/>
        <pt x="358" y="224" on="0"/>
        <pt x="366" y="224" on="1"/>
        <pt x="374" y="224" on="0"/>
        <pt x="385" y="213" on="0"/>
      </contour>
      <contour>
        <pt x="70" y="266" on="1"/>
        <pt x="70" y="258" on="0"/>
        <pt x="59" y="248" on="0"/>
        <pt x="51" y="248" on="1"/>
        <pt x="43" y="248" on="0"/>
        <pt x="33" y="258" on="0"/>
        <pt x="33" y="266" on="1"/>
        <pt x="33" y="274" on="0"/>
        <pt x="43" y="285" on="0"/>
        <pt x="51" y="285" on="1"/>
        <pt x="59" y="285" on="0"/>
        <pt x="70" y="274" on="0"/>
      </contour>
      <contour>
        <pt x="105" y="321" on="1"/>
        <pt x="105" y="313" on="0"/>
        <pt x="94" y="303" on="0"/>
        <pt x="86" y="303" on="1"/>
        <pt x="78" y="303" on="0"/>
        <pt x="68" y="313" on="0"/>
        <pt x="68" y="321" on="1"/>
        <pt x="68" y="329" on="0"/>
        <pt x="78" y="340" on="0"/>
        <pt x="86" y="340" on="1"/>
        <pt x="94" y="340" on="0"/>
        <pt x="105" y="329" on="0"/>
      </contour>
      <contour>
        <pt x="158" y="356" on="1"/>
        <pt x="158" y="348" on="0"/>
        <pt x="147" y="338" on="0"/>
        <pt x="139" y="338" on="1"/>
        <pt x="131" y="338" on="0"/>
        <pt x="121" y="348" on="0"/>
        <pt x="121" y="356" on="1"/>
        <pt x="121" y="364" on="0"/>
        <pt x="131" y="375" on="0"/>
        <pt x="139" y="375" on="1"/>
        <pt x="147" y="375" on="0"/>
        <pt x="158" y="364" on="0"/>
      </contour>
      <contour>
        <pt x="371" y="266" on="1"/>
        <pt x="371" y="258" on="0"/>
        <pt x="361" y="248" on="0"/>
        <pt x="353" y="248" on="1"/>
        <pt x="345" y="248" on="0"/>
        <pt x="334" y="258" on="0"/>
        <pt x="334" y="266" on="1"/>
        <pt x="334" y="274" on="0"/>
        <pt x="345" y="285" on="0"/>
        <pt x="353" y="285" on="1"/>
        <pt x="361" y="285" on="0"/>
        <pt x="371" y="274" on="0"/>
      </contour>
      <contour>
        <pt x="336" y="321" on="1"/>
        <pt x="336" y="313" on="0"/>
        <pt x="326" y="303" on="0"/>
        <pt x="318" y="303" on="1"/>
        <pt x="310" y="303" on="0"/>
        <pt x="299" y="313" on="0"/>
        <pt x="299" y="321" on="1"/>
        <pt x="299" y="329" on="0"/>
        <pt x="310" y="340" on="0"/>
        <pt x="318" y="340" on="1"/>
        <pt x="326" y="340" on="0"/>
        <pt x="336" y="329" on="0"/>
      </contour>
      <contour>
        <pt x="283" y="356" on="1"/>
        <pt x="283" y="348" on="0"/>
        <pt x="273" y="338" on="0"/>
        <pt x="265" y="338" on="1"/>
        <pt x="257" y="338" on="0"/>
        <pt x="246" y="348" on="0"/>
        <pt x="246" y="356" on="1"/>
        <pt x="246" y="364" on="0"/>
        <pt x="257" y="375" on="0"/>
        <pt x="265" y="375" on="1"/>
        <pt x="273" y="375" on="0"/>
        <pt x="283" y="364" on="0"/>
      </contour>
      <contour>
        <pt x="70" y="143" on="1"/>
        <pt x="70" y="135" on="0"/>
        <pt x="59" y="124" on="0"/>
        <pt x="51" y="124" on="1"/>
        <pt x="43" y="124" on="0"/>
        <pt x="33" y="135" on="0"/>
        <pt x="33" y="143" on="1"/>
        <pt x="33" y="151" on="0"/>
        <pt x="43" y="161" on="0"/>
        <pt x="51" y="161" on="1"/>
        <pt x="59" y="161" on="0"/>
        <pt x="70" y="151" on="0"/>
      </contour>
      <contour>
        <pt x="105" y="88" on="1"/>
        <pt x="105" y="80" on="0"/>
        <pt x="94" y="69" on="0"/>
        <pt x="86" y="69" on="1"/>
        <pt x="78" y="69" on="0"/>
        <pt x="68" y="80" on="0"/>
        <pt x="68" y="88" on="1"/>
        <pt x="68" y="96" on="0"/>
        <pt x="78" y="106" on="0"/>
        <pt x="86" y="106" on="1"/>
        <pt x="94" y="106" on="0"/>
        <pt x="105" y="96" on="0"/>
      </contour>
      <contour>
        <pt x="158" y="53" on="1"/>
        <pt x="158" y="45" on="0"/>
        <pt x="147" y="34" on="0"/>
        <pt x="139" y="34" on="1"/>
        <pt x="131" y="34" on="0"/>
        <pt x="121" y="45" on="0"/>
        <pt x="121" y="53" on="1"/>
        <pt x="121" y="61" on="0"/>
        <pt x="131" y="71" on="0"/>
        <pt x="139" y="71" on="1"/>
        <pt x="147" y="71" on="0"/>
        <pt x="158" y="61" on="0"/>
      </contour>
      <contour>
        <pt x="367" y="129" on="1"/>
        <pt x="362" y="124" on="0"/>
        <pt x="354" y="124" on="1"/>
        <pt x="346" y="124" on="0"/>
        <pt x="335" y="135" on="0"/>
        <pt x="335" y="143" on="1"/>
        <pt x="335" y="151" on="0"/>
        <pt x="346" y="161" on="0"/>
        <pt x="354" y="161" on="1"/>
        <pt x="362" y="161" on="0"/>
        <pt x="372" y="151" on="0"/>
        <pt x="372" y="143" on="1"/>
        <pt x="372" y="135" on="0"/>
      </contour>
      <contour>
        <pt x="332" y="74" on="1"/>
        <pt x="327" y="69" on="0"/>
        <pt x="319" y="69" on="1"/>
        <pt x="311" y="69" on="0"/>
        <pt x="300" y="80" on="0"/>
        <pt x="300" y="88" on="1"/>
        <pt x="300" y="96" on="0"/>
        <pt x="311" y="106" on="0"/>
        <pt x="319" y="106" on="1"/>
        <pt x="327" y="106" on="0"/>
        <pt x="337" y="96" on="0"/>
        <pt x="337" y="88" on="1"/>
        <pt x="337" y="80" on="0"/>
      </contour>
      <contour>
        <pt x="279" y="39" on="1"/>
        <pt x="274" y="34" on="0"/>
        <pt x="266" y="34" on="1"/>
        <pt x="258" y="34" on="0"/>
        <pt x="247" y="45" on="0"/>
        <pt x="247" y="53" on="1"/>
        <pt x="247" y="61" on="0"/>
        <pt x="258" y="71" on="0"/>
        <pt x="266" y="71" on="1"/>
        <pt x="274" y="71" on="0"/>
        <pt x="284" y="61" on="0"/>
        <pt x="284" y="53" on="1"/>
        <pt x="284" y="45" on="0"/>
      </contour>
    </TTGlyph>
    <TTGlyph name="e" xMin="26" yMin="-9" xMax="365" yMax="353">
      <contour>
        <pt x="351" y="18" on="1"/>
        <pt x="278" y="-9" on="0"/>
        <pt x="212" y="-9" on="1"/>
        <pt x="131" y="-9" on="0"/>
        <pt x="26" y="88" on="0"/>
        <pt x="26" y="165" on="1"/>
        <pt x="26" y="250" on="0"/>
        <pt x="78" y="303" on="1"/>
        <pt x="129" y="353" on="0"/>
        <pt x="208" y="353" on="1"/>
        <pt x="362" y="353" on="0"/>
        <pt x="365" y="160" on="1"/>
        <pt x="88" y="160" on="1"/>
        <pt x="92" y="106" on="0"/>
        <pt x="161" y="47" on="0"/>
        <pt x="216" y="47" on="1"/>
        <pt x="272" y="47" on="0"/>
        <pt x="344" y="73" on="1"/>
      </contour>
      <contour>
        <pt x="303" y="213" on="1"/>
        <pt x="298" y="252" on="0"/>
        <pt x="244" y="301" on="0"/>
        <pt x="202" y="301" on="1"/>
        <pt x="162" y="301" on="0"/>
        <pt x="99" y="252" on="0"/>
        <pt x="92" y="213" on="1"/>
      </contour>
    </TTGlyph>
    <TTGlyph name="eacute" xMin="26" yMin="-9" xMax="2614" yMax="1316">
      <component glyphName="e" x="0" y="0" flags="0x204"/>
      <component glyphName="acutecomb" x="336" y="0" flags="0x4"/>
    </TTGlyph>
    <TTGlyph name="ecircumflex" xMin="26" yMin="-9" xMax="799" yMax="1180">
      <component glyphName="e" x="0" y="0" flags="0x204"/>
      <component glyphName="circumflex" x="86" y="0" flags="0x4"/>
    </TTGlyph>
    <TTGlyph name="edieresis" xMin="26" yMin="-9" xMax="464" yMax="1149">
      <component glyphName="e" x="0" y="0" flags="0x204"/>
      <component glyphName="dieresis" x="25" y="0" flags="0x4"/>
    </TTGlyph>
    <TTGlyph name="egrave" xMin="26" yMin="-9" xMax="2143" yMax="1180">
      <component glyphName="e" x="0" y="0" flags="0x204"/>
      <component glyphName="gravecomb" x="314" y="0" flags="0x4"/>
    </TTGlyph>
    <TTGlyph name="eight" xMin="31" yMin="-8" xMax="347" yMax="479">
      <contour>
        <pt x="286" y="131" on="1"/>
        <pt x="286" y="168" on="0"/>
        <pt x="236" y="228" on="0"/>
        <pt x="189" y="231" on="1"/>
        <pt x="142" y="228" on="0"/>
        <pt x="92" y="168" on="0"/>
        <pt x="92" y="131" on="1"/>
        <pt x="92" y="92" on="0"/>
        <pt x="146" y="46" on="0"/>
        <pt x="189" y="46" on="1"/>
        <pt x="232" y="46" on="0"/>
        <pt x="286" y="92" on="0"/>
      </contour>
      <contour>
        <pt x="272" y="355" on="1"/>
        <pt x="272" y="385" on="0"/>
        <pt x="226" y="425" on="0"/>
        <pt x="189" y="425" on="1"/>
        <pt x="152" y="425" on="0"/>
        <pt x="106" y="385" on="0"/>
        <pt x="106" y="355" on="1"/>
        <pt x="106" y="306" on="0"/>
        <pt x="188" y="283" on="1"/>
        <pt x="272" y="306" on="0"/>
      </contour>
      <contour>
        <pt x="347" y="134" on="1"/>
        <pt x="347" y="68" on="0"/>
        <pt x="261" y="-8" on="0"/>
        <pt x="188" y="-8" on="1"/>
        <pt x="116" y="-8" on="0"/>
        <pt x="31" y="68" on="0"/>
        <pt x="31" y="134" on="1"/>
        <pt x="31" y="174" on="0"/>
        <pt x="76" y="242" on="0"/>
        <pt x="111" y="258" on="1"/>
        <pt x="46" y="293" on="0"/>
        <pt x="46" y="352" on="1"/>
        <pt x="46" y="407" on="0"/>
        <pt x="127" y="479" on="0"/>
        <pt x="189" y="479" on="1"/>
        <pt x="251" y="479" on="0"/>
        <pt x="332" y="407" on="0"/>
        <pt x="332" y="352" on="1"/>
        <pt x="332" y="293" on="0"/>
        <pt x="267" y="258" on="1"/>
        <pt x="302" y="242" on="0"/>
        <pt x="347" y="174" on="0"/>
      </contour>
    </TTGlyph>
    <TTGlyph name="ellipsis" xMin="38" yMin="-9" xMax="466" yMax="87">
      <contour>
        <pt x="134" y="39" on="1"/>
        <pt x="134" y="19" on="0"/>
        <pt x="106" y="-9" on="0"/>
        <pt x="86" y="-9" on="1"/>
        <pt x="66" y="-9" on="0"/>
        <pt x="38" y="19" on="0"/>
        <pt x="38" y="39" on="1"/>
        <pt x="38" y="59" on="0"/>
        <pt x="66" y="87" on="0"/>
        <pt x="86" y="87" on="1"/>
        <pt x="106" y="87" on="0"/>
        <pt x="134" y="59" on="0"/>
      </contour>
      <contour>
        <pt x="300" y="39" on="1"/>
        <pt x="300" y="19" on="0"/>
        <pt x="272" y="-9" on="0"/>
        <pt x="252" y="-9" on="1"/>
        <pt x="232" y="-9" on="0"/>
        <pt x="204" y="19" on="0"/>
        <pt x="204" y="39" on="1"/>
        <pt x="204" y="59" on="0"/>
        <pt x="232" y="87" on="0"/>
        <pt x="252" y="87" on="1"/>
        <pt x="272" y="87" on="0"/>
        <pt x="300" y="59" on="0"/>
      </contour>
      <contour>
        <pt x="466" y="39" on="1"/>
        <pt x="466" y="19" on="0"/>
        <pt x="438" y="-9" on="0"/>
        <pt x="418" y="-9" on="1"/>
        <pt x="398" y="-9" on="0"/>
        <pt x="370" y="19" on="0"/>
        <pt x="370" y="39" on="1"/>
        <pt x="370" y="59" on="0"/>
        <pt x="398" y="87" on="0"/>
        <pt x="418" y="87" on="1"/>
        <pt x="438" y="87" on="0"/>
        <pt x="466" y="59" on="0"/>
      </contour>
    </TTGlyph>
    <TTGlyph name="emdash" xMin="9" yMin="157" xMax="684" yMax="211">
      <contour>
        <pt x="684" y="157" on="1"/>
        <pt x="9" y="157" on="1"/>
        <pt x="9" y="211" on="1"/>
        <pt x="684" y="211" on="1"/>
      </contour>
    </TTGlyph>
    <TTGlyph name="endash" xMin="9" yMin="157" xMax="326" yMax="211">
      <contour>
        <pt x="326" y="157" on="1"/>
        <pt x="9" y="157" on="1"/>
        <pt x="9" y="211" on="1"/>
        <pt x="326" y="211" on="1"/>
      </contour>
    </TTGlyph>
    <TTGlyph name="equal" xMin="46" yMin="97" xMax="371" yMax="275">
      <contour>
        <pt x="371" y="223" on="1"/>
        <pt x="46" y="223" on="1"/>
        <pt x="46" y="275" on="1"/>
        <pt x="371" y="275" on="1"/>
      </contour>
      <contour>
        <pt x="371" y="97" on="1"/>
        <pt x="46" y="97" on="1"/>
        <pt x="46" y="150" on="1"/>
        <pt x="371" y="150" on="1"/>
      </contour>
    </TTGlyph>
    <TTGlyph name="estimated" xMin="38" yMin="-7" xMax="309" yMax="386">
      <contour>
        <pt x="248" y="236" on="1"/>
        <pt x="237" y="335" on="0"/>
        <pt x="174" y="335" on="1"/>
        <pt x="111" y="335" on="0"/>
        <pt x="99" y="236" on="1"/>
      </contour>
      <contour>
        <pt x="306" y="121" on="1"/>
        <pt x="277" y="-7" on="0"/>
        <pt x="174" y="-7" on="1"/>
        <pt x="38" y="-7" on="0"/>
        <pt x="38" y="202" on="1"/>
        <pt x="38" y="295" on="0"/>
        <pt x="114" y="386" on="0"/>
        <pt x="174" y="386" on="1"/>
        <pt x="240" y="386" on="0"/>
        <pt x="307" y="282" on="0"/>
        <pt x="309" y="185" on="1"/>
        <pt x="97" y="185" on="1"/>
        <pt x="101" y="112" on="0"/>
        <pt x="139" y="45" on="0"/>
        <pt x="174" y="45" on="1"/>
        <pt x="200" y="45" on="0"/>
        <pt x="238" y="86" on="0"/>
        <pt x="249" y="121" on="1"/>
      </contour>
    </TTGlyph>
    <TTGlyph name="eth" xMin="36" yMin="-16" xMax="341" yMax="478">
      <contour>
        <pt x="341" y="163" on="1"/>
        <pt x="341" y="82" on="0"/>
        <pt x="250" y="-16" on="0"/>
        <pt x="180" y="-16" on="1"/>
        <pt x="117" y="-16" on="0"/>
        <pt x="36" y="75" on="0"/>
        <pt x="36" y="142" on="1"/>
        <pt x="36" y="208" on="0"/>
        <pt x="118" y="298" on="0"/>
        <pt x="178" y="298" on="1"/>
        <pt x="238" y="298" on="0"/>
        <pt x="267" y="266" on="1"/>
        <pt x="243" y="316" on="0"/>
        <pt x="182" y="364" on="1"/>
        <pt x="181" y="365" on="0"/>
        <pt x="180" y="365" on="1"/>
        <pt x="79" y="313" on="1"/>
        <pt x="52" y="357" on="1"/>
        <pt x="132" y="398" on="1"/>
        <pt x="96" y="418" on="0"/>
        <pt x="61" y="428" on="1"/>
        <pt x="67" y="478" on="1"/>
        <pt x="137" y="464" on="0"/>
        <pt x="192" y="429" on="1"/>
        <pt x="283" y="476" on="1"/>
        <pt x="305" y="430" on="1"/>
        <pt x="237" y="395" on="1"/>
        <pt x="341" y="295" on="0"/>
      </contour>
      <contour>
        <pt x="273" y="142" on="1"/>
        <pt x="273" y="185" on="0"/>
        <pt x="220" y="244" on="0"/>
        <pt x="182" y="244" on="1"/>
        <pt x="146" y="244" on="0"/>
        <pt x="94" y="182" on="0"/>
        <pt x="94" y="142" on="1"/>
        <pt x="94" y="102" on="0"/>
        <pt x="146" y="40" on="0"/>
        <pt x="182" y="40" on="1"/>
        <pt x="220" y="40" on="0"/>
        <pt x="273" y="100" on="0"/>
      </contour>
    </TTGlyph>
    <TTGlyph name="exclam" xMin="36" yMin="-9" xMax="132" yMax="476">
      <contour>
        <pt x="111" y="139" on="1"/>
        <pt x="55" y="139" on="1"/>
        <pt x="48" y="476" on="1"/>
        <pt x="120" y="476" on="1"/>
      </contour>
      <contour>
        <pt x="132" y="39" on="1"/>
        <pt x="132" y="19" on="0"/>
        <pt x="104" y="-9" on="0"/>
        <pt x="84" y="-9" on="1"/>
        <pt x="64" y="-9" on="0"/>
        <pt x="36" y="19" on="0"/>
        <pt x="36" y="39" on="1"/>
        <pt x="36" y="59" on="0"/>
        <pt x="64" y="87" on="0"/>
        <pt x="84" y="87" on="1"/>
        <pt x="104" y="87" on="0"/>
        <pt x="132" y="59" on="0"/>
      </contour>
    </TTGlyph>
    <TTGlyph name="exclamdown" xMin="36" yMin="-141" xMax="132" yMax="344">
      <contour>
        <pt x="120" y="-141" on="1"/>
        <pt x="48" y="-141" on="1"/>
        <pt x="55" y="196" on="1"/>
        <pt x="111" y="196" on="1"/>
      </contour>
      <contour>
        <pt x="132" y="296" on="1"/>
        <pt x="132" y="276" on="0"/>
        <pt x="104" y="248" on="0"/>
        <pt x="84" y="248" on="1"/>
        <pt x="64" y="248" on="0"/>
        <pt x="36" y="276" on="0"/>
        <pt x="36" y="296" on="1"/>
        <pt x="36" y="316" on="0"/>
        <pt x="64" y="344" on="0"/>
        <pt x="84" y="344" on="1"/>
        <pt x="104" y="344" on="0"/>
        <pt x="132" y="316" on="0"/>
      </contour>
    </TTGlyph>
    <TTGlyph name="f" xMin="17" yMin="0" xMax="279" yMax="511">
      <contour>
        <pt x="137" y="0" on="1"/>
        <pt x="74" y="0" on="1"/>
        <pt x="74" y="288" on="1"/>
        <pt x="17" y="288" on="1"/>
        <pt x="17" y="340" on="1"/>
        <pt x="75" y="340" on="1"/>
        <pt x="75" y="511" on="0"/>
        <pt x="208" y="511" on="1"/>
        <pt x="250" y="511" on="0"/>
        <pt x="279" y="489" on="1"/>
        <pt x="261" y="442" on="1"/>
        <pt x="226" y="457" on="0"/>
        <pt x="206" y="457" on="1"/>
        <pt x="137" y="457" on="0"/>
        <pt x="137" y="340" on="1"/>
        <pt x="234" y="340" on="1"/>
        <pt x="234" y="288" on="1"/>
        <pt x="137" y="288" on="1"/>
      </contour>
    </TTGlyph>
    <TTGlyph name="fi" xMin="17" yMin="0" xMax="358" yMax="511">
      <contour>
        <pt x="358" y="340" on="1"/>
        <pt x="358" y="0" on="1"/>
        <pt x="295" y="0" on="1"/>
        <pt x="295" y="288" on="1"/>
        <pt x="137" y="288" on="1"/>
        <pt x="137" y="0" on="1"/>
        <pt x="74" y="0" on="1"/>
        <pt x="74" y="288" on="1"/>
        <pt x="17" y="288" on="1"/>
        <pt x="17" y="340" on="1"/>
        <pt x="75" y="340" on="1"/>
        <pt x="75" y="421" on="0"/>
        <pt x="161" y="511" on="0"/>
        <pt x="230" y="511" on="1"/>
        <pt x="302" y="511" on="0"/>
        <pt x="348" y="457" on="1"/>
        <pt x="315" y="412" on="1"/>
        <pt x="276" y="457" on="0"/>
        <pt x="228" y="457" on="1"/>
        <pt x="192" y="457" on="0"/>
        <pt x="166" y="427" on="1"/>
        <pt x="137" y="394" on="0"/>
        <pt x="137" y="340" on="1"/>
      </contour>
    </TTGlyph>
    <TTGlyph name="five" xMin="26" yMin="-8" xMax="346" yMax="476">
      <contour>
        <pt x="346" y="168" on="1"/>
        <pt x="346" y="90" on="0"/>
        <pt x="236" y="-8" on="0"/>
        <pt x="149" y="-8" on="1"/>
        <pt x="75" y="-8" on="0"/>
        <pt x="26" y="35" on="1"/>
        <pt x="53" y="81" on="1"/>
        <pt x="109" y="46" on="0"/>
        <pt x="156" y="46" on="1"/>
        <pt x="208" y="46" on="0"/>
        <pt x="282" y="115" on="0"/>
        <pt x="282" y="167" on="1"/>
        <pt x="282" y="210" on="0"/>
        <pt x="226" y="257" on="0"/>
        <pt x="179" y="257" on="1"/>
        <pt x="132" y="257" on="0"/>
        <pt x="118" y="224" on="1"/>
        <pt x="78" y="222" on="1"/>
        <pt x="95" y="476" on="1"/>
        <pt x="333" y="476" on="1"/>
        <pt x="322" y="422" on="1"/>
        <pt x="156" y="422" on="1"/>
        <pt x="149" y="306" on="1"/>
        <pt x="167" y="314" on="0"/>
        <pt x="192" y="314" on="1"/>
        <pt x="258" y="314" on="0"/>
        <pt x="346" y="232" on="0"/>
      </contour>
    </TTGlyph>
    <TTGlyph name="fiveeighths" xMin="20" yMin="-9" xMax="511" yMax="473">
      <contour>
        <pt x="142" y="-9" on="1"/>
        <pt x="93" y="-9" on="1"/>
        <pt x="378" y="468" on="1"/>
        <pt x="427" y="468" on="1"/>
      </contour>
      <contour>
        <pt x="462" y="79" on="1"/>
        <pt x="462" y="96" on="0"/>
        <pt x="439" y="128" on="0"/>
        <pt x="413" y="130" on="1"/>
        <pt x="387" y="128" on="0"/>
        <pt x="363" y="96" on="0"/>
        <pt x="363" y="79" on="1"/>
        <pt x="363" y="59" on="0"/>
        <pt x="391" y="37" on="0"/>
        <pt x="413" y="37" on="1"/>
        <pt x="436" y="37" on="0"/>
        <pt x="462" y="59" on="0"/>
      </contour>
      <contour>
        <pt x="454" y="209" on="1"/>
        <pt x="454" y="223" on="0"/>
        <pt x="433" y="242" on="0"/>
        <pt x="413" y="242" on="1"/>
        <pt x="393" y="242" on="0"/>
        <pt x="372" y="223" on="0"/>
        <pt x="372" y="209" on="1"/>
        <pt x="372" y="197" on="0"/>
        <pt x="394" y="179" on="0"/>
        <pt x="412" y="174" on="1"/>
        <pt x="432" y="180" on="0"/>
        <pt x="454" y="198" on="0"/>
      </contour>
      <contour>
        <pt x="511" y="80" on="1"/>
        <pt x="511" y="39" on="0"/>
        <pt x="458" y="-8" on="0"/>
        <pt x="412" y="-8" on="1"/>
        <pt x="367" y="-8" on="0"/>
        <pt x="315" y="39" on="0"/>
        <pt x="315" y="80" on="1"/>
        <pt x="315" y="102" on="0"/>
        <pt x="336" y="142" on="0"/>
        <pt x="353" y="153" on="1"/>
        <pt x="340" y="163" on="0"/>
        <pt x="323" y="191" on="0"/>
        <pt x="323" y="207" on="1"/>
        <pt x="323" y="242" on="0"/>
        <pt x="374" y="287" on="0"/>
        <pt x="413" y="287" on="1"/>
        <pt x="451" y="287" on="0"/>
        <pt x="503" y="242" on="0"/>
        <pt x="503" y="207" on="1"/>
        <pt x="503" y="175" on="0"/>
        <pt x="473" y="153" on="1"/>
        <pt x="491" y="142" on="0"/>
        <pt x="511" y="103" on="0"/>
      </contour>
      <contour>
        <pt x="223" y="287" on="1"/>
        <pt x="223" y="239" on="0"/>
        <pt x="155" y="179" on="0"/>
        <pt x="101" y="179" on="1"/>
        <pt x="57" y="179" on="0"/>
        <pt x="20" y="208" on="1"/>
        <pt x="42" y="246" on="1"/>
        <pt x="56" y="238" on="0"/>
        <pt x="85" y="223" on="0"/>
        <pt x="104" y="223" on="1"/>
        <pt x="131" y="223" on="0"/>
        <pt x="172" y="258" on="0"/>
        <pt x="172" y="286" on="1"/>
        <pt x="172" y="308" on="0"/>
        <pt x="141" y="334" on="0"/>
        <pt x="115" y="334" on="1"/>
        <pt x="107" y="334" on="0"/>
        <pt x="83" y="323" on="0"/>
        <pt x="78" y="312" on="1"/>
        <pt x="45" y="312" on="1"/>
        <pt x="54" y="473" on="1"/>
        <pt x="216" y="473" on="1"/>
        <pt x="207" y="429" on="1"/>
        <pt x="101" y="429" on="1"/>
        <pt x="98" y="372" on="1"/>
        <pt x="104" y="375" on="0"/>
        <pt x="122" y="379" on="0"/>
        <pt x="128" y="379" on="1"/>
        <pt x="167" y="379" on="0"/>
        <pt x="223" y="329" on="0"/>
      </contour>
    </TTGlyph>
    <TTGlyph name="fl" xMin="17" yMin="-8" xMax="451" yMax="511">
      <contour>
        <pt x="451" y="49" on="1"/>
        <pt x="444" y="-8" on="1"/>
        <pt x="295" y="-1" on="0"/>
        <pt x="295" y="175" on="1"/>
        <pt x="295" y="432" on="1"/>
        <pt x="265" y="457" on="0"/>
        <pt x="228" y="457" on="1"/>
        <pt x="192" y="457" on="0"/>
        <pt x="166" y="427" on="1"/>
        <pt x="137" y="394" on="0"/>
        <pt x="137" y="340" on="1"/>
        <pt x="255" y="340" on="1"/>
        <pt x="255" y="288" on="1"/>
        <pt x="137" y="288" on="1"/>
        <pt x="137" y="0" on="1"/>
        <pt x="74" y="0" on="1"/>
        <pt x="74" y="288" on="1"/>
        <pt x="17" y="288" on="1"/>
        <pt x="17" y="340" on="1"/>
        <pt x="75" y="340" on="1"/>
        <pt x="75" y="421" on="0"/>
        <pt x="161" y="511" on="0"/>
        <pt x="230" y="511" on="1"/>
        <pt x="310" y="511" on="0"/>
        <pt x="358" y="447" on="1"/>
        <pt x="358" y="189" on="1"/>
        <pt x="358" y="112" on="0"/>
        <pt x="382" y="80" on="1"/>
        <pt x="403" y="53" on="0"/>
      </contour>
    </TTGlyph>
    <TTGlyph name="florin" xMin="-27" yMin="-69" xMax="412" yMax="484">
      <contour>
        <pt x="327" y="254" on="1"/>
        <pt x="233" y="254" on="1"/>
        <pt x="198" y="93" on="1"/>
        <pt x="163" y="-69" on="0"/>
        <pt x="38" y="-69" on="1"/>
        <pt x="-1" y="-69" on="0"/>
        <pt x="-27" y="-44" on="1"/>
        <pt x="-1" y="0" on="1"/>
        <pt x="23" y="-14" on="0"/>
        <pt x="48" y="-14" on="1"/>
        <pt x="113" y="-14" on="0"/>
        <pt x="138" y="98" on="1"/>
        <pt x="172" y="254" on="1"/>
        <pt x="118" y="254" on="1"/>
        <pt x="128" y="306" on="1"/>
        <pt x="184" y="306" on="1"/>
        <pt x="187" y="322" on="1"/>
        <pt x="207" y="400" on="0"/>
        <pt x="287" y="484" on="0"/>
        <pt x="347" y="484" on="1"/>
        <pt x="386" y="484" on="0"/>
        <pt x="412" y="459" on="1"/>
        <pt x="386" y="415" on="1"/>
        <pt x="362" y="429" on="0"/>
        <pt x="337" y="429" on="1"/>
        <pt x="271" y="429" on="0"/>
        <pt x="247" y="317" on="1"/>
        <pt x="244" y="306" on="1"/>
        <pt x="337" y="306" on="1"/>
      </contour>
    </TTGlyph>
    <TTGlyph name="four" xMin="28" yMin="0" xMax="357" yMax="489">
      <contour>
        <pt x="229" y="160" on="1"/>
        <pt x="229" y="404" on="1"/>
        <pt x="181" y="373" on="0"/>
        <pt x="104" y="233" on="0"/>
        <pt x="91" y="160" on="1"/>
      </contour>
      <contour>
        <pt x="293" y="0" on="1"/>
        <pt x="229" y="0" on="1"/>
        <pt x="229" y="106" on="1"/>
        <pt x="28" y="106" on="1"/>
        <pt x="28" y="231" on="0"/>
        <pt x="186" y="480" on="0"/>
        <pt x="293" y="489" on="1"/>
        <pt x="293" y="160" on="1"/>
        <pt x="357" y="160" on="1"/>
        <pt x="350" y="106" on="1"/>
        <pt x="293" y="106" on="1"/>
      </contour>
    </TTGlyph>
    <TTGlyph name="fraction" xMin="-54" yMin="0" xMax="204" yMax="477">
      <contour>
        <pt x="6" y="0" on="1"/>
        <pt x="-54" y="0" on="1"/>
        <pt x="145" y="477" on="1"/>
        <pt x="204" y="477" on="1"/>
      </contour>
    </TTGlyph>
    <TTGlyph name="franc" xMin="6" yMin="0" xMax="355" yMax="477">
      <contour>
        <pt x="264" y="90" on="1"/>
        <pt x="136" y="90" on="1"/>
        <pt x="136" y="0" on="1"/>
        <pt x="76" y="0" on="1"/>
        <pt x="76" y="90" on="1"/>
        <pt x="6" y="90" on="1"/>
        <pt x="6" y="142" on="1"/>
        <pt x="76" y="142" on="1"/>
        <pt x="76" y="477" on="1"/>
        <pt x="355" y="477" on="1"/>
        <pt x="355" y="423" on="1"/>
        <pt x="136" y="423" on="1"/>
        <pt x="136" y="273" on="1"/>
        <pt x="341" y="273" on="1"/>
        <pt x="341" y="219" on="1"/>
        <pt x="136" y="219" on="1"/>
        <pt x="136" y="142" on="1"/>
        <pt x="264" y="142" on="1"/>
      </contour>
    </TTGlyph>
    <TTGlyph name="g" xMin="32" yMin="-150" xMax="302" yMax="347">
      <contour>
        <pt x="292" y="-45" on="1"/>
        <pt x="292" y="-92" on="0"/>
        <pt x="224" y="-150" on="0"/>
        <pt x="159" y="-150" on="1"/>
        <pt x="105" y="-150" on="0"/>
        <pt x="48" y="-116" on="1"/>
        <pt x="70" y="-66" on="1"/>
        <pt x="123" y="-97" on="0"/>
        <pt x="163" y="-97" on="1"/>
        <pt x="194" y="-97" on="0"/>
        <pt x="235" y="-68" on="0"/>
        <pt x="235" y="-48" on="1"/>
        <pt x="235" y="-18" on="0"/>
        <pt x="179" y="5" on="1"/>
        <pt x="137" y="22" on="0"/>
        <pt x="59" y="64" on="0"/>
        <pt x="59" y="98" on="1"/>
        <pt x="59" y="114" on="0"/>
        <pt x="68" y="139" on="1"/>
        <pt x="32" y="178" on="0"/>
        <pt x="32" y="222" on="1"/>
        <pt x="32" y="277" on="0"/>
        <pt x="106" y="347" on="0"/>
        <pt x="158" y="347" on="1"/>
        <pt x="302" y="347" on="1"/>
        <pt x="302" y="304" on="1"/>
        <pt x="252" y="304" on="1"/>
        <pt x="270" y="297" on="0"/>
        <pt x="281" y="271" on="1"/>
        <pt x="290" y="250" on="0"/>
        <pt x="290" y="229" on="1"/>
        <pt x="290" y="170" on="0"/>
        <pt x="225" y="101" on="0"/>
        <pt x="164" y="101" on="1"/>
        <pt x="142" y="101" on="0"/>
        <pt x="121" y="108" on="1"/>
        <pt x="116" y="103" on="0"/>
        <pt x="116" y="95" on="1"/>
        <pt x="116" y="80" on="0"/>
        <pt x="188" y="60" on="1"/>
        <pt x="292" y="31" on="0"/>
      </contour>
      <contour>
        <pt x="237" y="224" on="1"/>
        <pt x="237" y="254" on="0"/>
        <pt x="194" y="296" on="0"/>
        <pt x="164" y="296" on="1"/>
        <pt x="134" y="296" on="0"/>
        <pt x="91" y="254" on="0"/>
        <pt x="91" y="224" on="1"/>
        <pt x="91" y="194" on="0"/>
        <pt x="134" y="153" on="0"/>
        <pt x="164" y="153" on="1"/>
        <pt x="200" y="153" on="0"/>
        <pt x="237" y="194" on="0"/>
      </contour>
    </TTGlyph>
    <TTGlyph name="gbreve" xMin="32" yMin="-150" xMax="741" yMax="1443">
      <component glyphName="g" x="0" y="0" flags="0x204"/>
      <component glyphName="breve" x="0" y="0" flags="0x4"/>
    </TTGlyph>
    <TTGlyph name="germandbls" xMin="46" yMin="-143" xMax="376" yMax="492">
      <contour>
        <pt x="376" y="109" on="1"/>
        <pt x="376" y="54" on="0"/>
        <pt x="307" y="-9" on="0"/>
        <pt x="249" y="-9" on="1"/>
        <pt x="223" y="-9" on="0"/>
        <pt x="176" y="4" on="0"/>
        <pt x="153" y="16" on="1"/>
        <pt x="173" y="70" on="1"/>
        <pt x="218" y="46" on="0"/>
        <pt x="250" y="46" on="1"/>
        <pt x="282" y="46" on="0"/>
        <pt x="318" y="79" on="0"/>
        <pt x="318" y="103" on="1"/>
        <pt x="318" y="125" on="0"/>
        <pt x="288" y="159" on="0"/>
        <pt x="251" y="192" on="0"/>
        <pt x="221" y="228" on="0"/>
        <pt x="221" y="252" on="1"/>
        <pt x="221" y="265" on="0"/>
        <pt x="241" y="296" on="0"/>
        <pt x="266" y="327" on="0"/>
        <pt x="286" y="356" on="0"/>
        <pt x="286" y="368" on="1"/>
        <pt x="286" y="435" on="0"/>
        <pt x="214" y="435" on="1"/>
        <pt x="130" y="435" on="0"/>
        <pt x="130" y="281" on="1"/>
        <pt x="130" y="-40" on="1"/>
        <pt x="130" y="-66" on="0"/>
        <pt x="117" y="-118" on="0"/>
        <pt x="103" y="-143" on="1"/>
        <pt x="46" y="-128" on="1"/>
        <pt x="59" y="-103" on="0"/>
        <pt x="70" y="-60" on="0"/>
        <pt x="70" y="-40" on="1"/>
        <pt x="70" y="297" on="1"/>
        <pt x="70" y="492" on="0"/>
        <pt x="221" y="492" on="1"/>
        <pt x="275" y="492" on="0"/>
        <pt x="344" y="427" on="0"/>
        <pt x="344" y="370" on="1"/>
        <pt x="344" y="347" on="0"/>
        <pt x="324" y="310" on="0"/>
        <pt x="301" y="280" on="0"/>
        <pt x="281" y="258" on="0"/>
        <pt x="281" y="249" on="1"/>
        <pt x="281" y="239" on="0"/>
        <pt x="311" y="212" on="0"/>
        <pt x="346" y="176" on="0"/>
        <pt x="376" y="134" on="0"/>
      </contour>
    </TTGlyph>
    <TTGlyph name="grave" xMin="34" yMin="375" xMax="166" yMax="490">
      <contour>
        <pt x="166" y="375" on="1"/>
        <pt x="118" y="375" on="1"/>
        <pt x="34" y="472" on="1"/>
        <pt x="91" y="490" on="1"/>
      </contour>
    </TTGlyph>
    <TTGlyph name="gravecomb" xMin="8054" yMin="2787" xMax="8186" yMax="2902">
      <contour>
        <pt x="8186" y="2787" on="1"/>
        <pt x="8138" y="2787" on="1"/>
        <pt x="8054" y="2884" on="1"/>
        <pt x="8111" y="2902" on="1"/>
      </contour>
    </TTGlyph>
    <TTGlyph name="greater" xMin="36" yMin="-10" xMax="381" yMax="390">
      <contour>
        <pt x="381" y="170" on="1"/>
        <pt x="36" y="-10" on="1"/>
        <pt x="36" y="53" on="1"/>
        <pt x="302" y="191" on="1"/>
        <pt x="36" y="327" on="1"/>
        <pt x="36" y="390" on="1"/>
        <pt x="381" y="211" on="1"/>
      </contour>
    </TTGlyph>
    <TTGlyph name="greaterequal" xMin="31" yMin="15" xMax="385" yMax="396">
      <contour>
        <pt x="385" y="15" on="1"/>
        <pt x="31" y="15" on="1"/>
        <pt x="31" y="67" on="1"/>
        <pt x="385" y="67" on="1"/>
      </contour>
      <contour>
        <pt x="358" y="212" on="1"/>
        <pt x="47" y="88" on="1"/>
        <pt x="47" y="149" on="1"/>
        <pt x="289" y="241" on="1"/>
        <pt x="47" y="334" on="1"/>
        <pt x="47" y="396" on="1"/>
        <pt x="358" y="272" on="1"/>
      </contour>
    </TTGlyph>
    <TTGlyph name="guillemotleft" xMin="30" yMin="47" xMax="326" yMax="315">
      <contour>
        <pt x="326" y="47" on="1"/>
        <pt x="266" y="47" on="1"/>
        <pt x="152" y="179" on="1"/>
        <pt x="266" y="314" on="1"/>
        <pt x="325" y="314" on="1"/>
        <pt x="212" y="180" on="1"/>
      </contour>
      <contour>
        <pt x="204" y="47" on="1"/>
        <pt x="143" y="47" on="1"/>
        <pt x="30" y="179" on="1"/>
        <pt x="141" y="315" on="1"/>
        <pt x="203" y="315" on="1"/>
        <pt x="89" y="179" on="1"/>
      </contour>
    </TTGlyph>
    <TTGlyph name="guillemotright" xMin="30" yMin="47" xMax="326" yMax="315">
      <contour>
        <pt x="90" y="47" on="1"/>
        <pt x="30" y="47" on="1"/>
        <pt x="144" y="180" on="1"/>
        <pt x="31" y="314" on="1"/>
        <pt x="90" y="314" on="1"/>
        <pt x="204" y="179" on="1"/>
      </contour>
      <contour>
        <pt x="213" y="47" on="1"/>
        <pt x="152" y="47" on="1"/>
        <pt x="267" y="179" on="1"/>
        <pt x="153" y="315" on="1"/>
        <pt x="215" y="315" on="1"/>
        <pt x="326" y="179" on="1"/>
      </contour>
    </TTGlyph>
    <TTGlyph name="guilsinglleft" xMin="30" yMin="47" xMax="204" yMax="315">
      <contour>
        <pt x="204" y="47" on="1"/>
        <pt x="144" y="47" on="1"/>
        <pt x="30" y="179" on="1"/>
        <pt x="142" y="315" on="1"/>
        <pt x="203" y="315" on="1"/>
        <pt x="90" y="179" on="1"/>
      </contour>
    </TTGlyph>
    <TTGlyph name="guilsinglright" xMin="30" yMin="47" xMax="204" yMax="315">
      <contour>
        <pt x="90" y="47" on="1"/>
        <pt x="30" y="47" on="1"/>
        <pt x="144" y="180" on="1"/>
        <pt x="31" y="315" on="1"/>
        <pt x="91" y="315" on="1"/>
        <pt x="204" y="179" on="1"/>
      </contour>
    </TTGlyph>
    <TTGlyph name="h" xMin="50" yMin="0" xMax="373" yMax="504">
      <contour>
        <pt x="373" y="0" on="1"/>
        <pt x="310" y="0" on="1"/>
        <pt x="310" y="191" on="1"/>
        <pt x="310" y="236" on="0"/>
        <pt x="261" y="295" on="0"/>
        <pt x="219" y="295" on="1"/>
        <pt x="177" y="295" on="0"/>
        <pt x="113" y="235" on="0"/>
        <pt x="113" y="199" on="1"/>
        <pt x="113" y="0" on="1"/>
        <pt x="50" y="0" on="1"/>
        <pt x="50" y="504" on="1"/>
        <pt x="113" y="504" on="1"/>
        <pt x="113" y="303" on="1"/>
        <pt x="159" y="349" on="0"/>
        <pt x="228" y="349" on="1"/>
        <pt x="296" y="349" on="0"/>
        <pt x="373" y="264" on="0"/>
        <pt x="373" y="192" on="1"/>
      </contour>
    </TTGlyph>
    <TTGlyph name="hookabovecomb" xMin="8162" yMin="2784" xMax="8306" yMax="2950">
      <contour>
        <pt x="8306" y="2888" on="1"/>
        <pt x="8306" y="2871" on="0"/>
        <pt x="8288" y="2844" on="0"/>
        <pt x="8267" y="2820" on="0"/>
        <pt x="8250" y="2797" on="0"/>
        <pt x="8250" y="2784" on="1"/>
        <pt x="8205" y="2784" on="1"/>
        <pt x="8205" y="2800" on="0"/>
        <pt x="8223" y="2826" on="0"/>
        <pt x="8245" y="2849" on="0"/>
        <pt x="8263" y="2871" on="0"/>
        <pt x="8263" y="2883" on="1"/>
        <pt x="8263" y="2900" on="0"/>
        <pt x="8248" y="2911" on="0"/>
        <pt x="8235" y="2911" on="1"/>
        <pt x="8218" y="2911" on="0"/>
        <pt x="8192" y="2889" on="0"/>
        <pt x="8188" y="2883" on="1"/>
        <pt x="8162" y="2905" on="1"/>
        <pt x="8170" y="2921" on="0"/>
        <pt x="8208" y="2950" on="0"/>
        <pt x="8240" y="2950" on="1"/>
        <pt x="8269" y="2950" on="0"/>
        <pt x="8306" y="2920" on="0"/>
      </contour>
    </TTGlyph>
    <TTGlyph name="hungarumlaut" xMin="53" yMin="320" xMax="306" yMax="491">
      <contour>
        <pt x="221" y="320" on="1"/>
        <pt x="179" y="320" on="1"/>
        <pt x="242" y="491" on="1"/>
        <pt x="306" y="491" on="1"/>
      </contour>
      <contour>
        <pt x="95" y="320" on="1"/>
        <pt x="53" y="320" on="1"/>
        <pt x="116" y="491" on="1"/>
        <pt x="179" y="491" on="1"/>
      </contour>
    </TTGlyph>
    <TTGlyph name="hyphen" xMin="13" yMin="157" xMax="213" yMax="211">
      <contour>
        <pt x="213" y="157" on="1"/>
        <pt x="13" y="157" on="1"/>
        <pt x="13" y="211" on="1"/>
        <pt x="213" y="211" on="1"/>
      </contour>
    </TTGlyph>
    <TTGlyph name="i" xMin="32" yMin="0" xMax="128" yMax="488">
      <contour>
        <pt x="113" y="0" on="1"/>
        <pt x="50" y="0" on="1"/>
        <pt x="50" y="340" on="1"/>
        <pt x="113" y="340" on="1"/>
      </contour>
      <contour>
        <pt x="128" y="440" on="1"/>
        <pt x="128" y="420" on="0"/>
        <pt x="100" y="392" on="0"/>
        <pt x="80" y="392" on="1"/>
        <pt x="60" y="392" on="0"/>
        <pt x="32" y="420" on="0"/>
        <pt x="32" y="440" on="1"/>
        <pt x="32" y="460" on="0"/>
        <pt x="60" y="488" on="0"/>
        <pt x="80" y="488" on="1"/>
        <pt x="100" y="488" on="0"/>
        <pt x="128" y="460" on="0"/>
      </contour>
    </TTGlyph>
    <TTGlyph name="iacute" xMin="50" yMin="0" xMax="2836" yMax="1316">
      <component glyphName="dotlessi" x="0" y="0" flags="0x204"/>
      <component glyphName="acutecomb" x="222" y="0" flags="0x4"/>
    </TTGlyph>
    <TTGlyph name="icircumflex" xMin="50" yMin="0" xMax="778" yMax="1180">
      <component glyphName="dotlessi" x="0" y="0" flags="0x204"/>
      <component glyphName="circumflex" x="-21" y="0" flags="0x4"/>
    </TTGlyph>
    <TTGlyph name="idieresis" xMin="50" yMin="0" xMax="381" yMax="1149">
      <component glyphName="dotlessi" x="0" y="0" flags="0x204"/>
      <component glyphName="dieresis" x="-83" y="0" flags="0x4"/>
    </TTGlyph>
    <TTGlyph name="igrave" xMin="50" yMin="0" xMax="2343" yMax="1180">
      <component glyphName="dotlessi" x="0" y="0" flags="0x204"/>
      <component glyphName="gravecomb" x="200" y="0" flags="0x4"/>
    </TTGlyph>
    <TTGlyph name="infinity" xMin="47" yMin="102" xMax="585" yMax="333">
      <contour>
        <pt x="279" y="220" on="1"/>
        <pt x="219" y="283" on="0"/>
        <pt x="174" y="283" on="1"/>
        <pt x="139" y="283" on="0"/>
        <pt x="103" y="246" on="0"/>
        <pt x="103" y="221" on="1"/>
        <pt x="103" y="153" on="0"/>
        <pt x="175" y="153" on="1"/>
        <pt x="230" y="153" on="0"/>
      </contour>
      <contour>
        <pt x="585" y="212" on="1"/>
        <pt x="585" y="166" on="0"/>
        <pt x="522" y="102" on="0"/>
        <pt x="458" y="102" on="1"/>
        <pt x="387" y="102" on="0"/>
        <pt x="313" y="181" on="1"/>
        <pt x="253" y="102" on="0"/>
        <pt x="174" y="102" on="1"/>
        <pt x="117" y="102" on="0"/>
        <pt x="47" y="167" on="0"/>
        <pt x="47" y="223" on="1"/>
        <pt x="47" y="269" on="0"/>
        <pt x="109" y="333" on="0"/>
        <pt x="173" y="333" on="1"/>
        <pt x="240" y="333" on="0"/>
        <pt x="318" y="255" on="1"/>
        <pt x="379" y="333" on="0"/>
        <pt x="457" y="333" on="1"/>
        <pt x="515" y="333" on="0"/>
        <pt x="585" y="268" on="0"/>
      </contour>
      <contour>
        <pt x="529" y="214" on="1"/>
        <pt x="529" y="282" on="0"/>
        <pt x="456" y="282" on="1"/>
        <pt x="398" y="282" on="0"/>
        <pt x="353" y="215" on="1"/>
        <pt x="414" y="152" on="0"/>
        <pt x="457" y="152" on="1"/>
        <pt x="492" y="152" on="0"/>
        <pt x="529" y="189" on="0"/>
      </contour>
    </TTGlyph>
    <TTGlyph name="integral" xMin="-55" yMin="-98" xMax="257" yMax="484">
      <contour>
        <pt x="98" y="-1" on="1"/>
        <pt x="82" y="-98" on="0"/>
        <pt x="0" y="-98" on="1"/>
        <pt x="-21" y="-98" on="0"/>
        <pt x="-55" y="-91" on="1"/>
        <pt x="-44" y="-38" on="1"/>
        <pt x="-28" y="-42" on="0"/>
        <pt x="-16" y="-42" on="1"/>
        <pt x="32" y="-42" on="0"/>
        <pt x="40" y="4" on="1"/>
        <pt x="107" y="387" on="1"/>
        <pt x="123" y="484" on="0"/>
        <pt x="208" y="483" on="1"/>
        <pt x="232" y="483" on="0"/>
        <pt x="257" y="477" on="1"/>
        <pt x="247" y="426" on="1"/>
        <pt x="229" y="431" on="0"/>
        <pt x="213" y="431" on="1"/>
        <pt x="171" y="431" on="0"/>
        <pt x="163" y="383" on="1"/>
      </contour>
    </TTGlyph>
    <TTGlyph name="itilde" xMin="50" yMin="0" xMax="7913" yMax="3276">
      <component glyphName="dotlessi" x="0" y="0" flags="0x204"/>
      <component glyphName="tildecomb" x="211" y="0" flags="0x4"/>
    </TTGlyph>
    <TTGlyph name="j" xMin="-48" yMin="-141" xMax="137" yMax="488">
      <contour>
        <pt x="121" y="18" on="1"/>
        <pt x="121" y="-137" on="0"/>
        <pt x="-41" y="-141" on="1"/>
        <pt x="-48" y="-90" on="1"/>
        <pt x="20" y="-85" on="0"/>
        <pt x="58" y="-35" on="0"/>
        <pt x="58" y="44" on="1"/>
        <pt x="58" y="340" on="1"/>
        <pt x="121" y="340" on="1"/>
      </contour>
      <contour>
        <pt x="137" y="440" on="1"/>
        <pt x="137" y="420" on="0"/>
        <pt x="109" y="392" on="0"/>
        <pt x="89" y="392" on="1"/>
        <pt x="69" y="392" on="0"/>
        <pt x="41" y="420" on="0"/>
        <pt x="41" y="440" on="1"/>
        <pt x="41" y="460" on="0"/>
        <pt x="69" y="488" on="0"/>
        <pt x="89" y="488" on="1"/>
        <pt x="109" y="488" on="0"/>
        <pt x="137" y="460" on="0"/>
      </contour>
    </TTGlyph>
    <TTGlyph name="k" xMin="50" yMin="-10" xMax="358" yMax="504">
      <contour>
        <pt x="358" y="6" on="1"/>
        <pt x="293" y="-10" on="1"/>
        <pt x="137" y="164" on="1"/>
        <pt x="113" y="144" on="1"/>
        <pt x="113" y="0" on="1"/>
        <pt x="50" y="0" on="1"/>
        <pt x="50" y="504" on="1"/>
        <pt x="113" y="504" on="1"/>
        <pt x="113" y="217" on="1"/>
        <pt x="265" y="347" on="1"/>
        <pt x="334" y="335" on="1"/>
        <pt x="181" y="200" on="1"/>
      </contour>
    </TTGlyph>
    <TTGlyph name="l" xMin="50" yMin="-8" xMax="206" yMax="504">
      <contour>
        <pt x="199" y="-8" on="1"/>
        <pt x="50" y="0" on="0"/>
        <pt x="50" y="175" on="1"/>
        <pt x="50" y="504" on="1"/>
        <pt x="113" y="504" on="1"/>
        <pt x="113" y="189" on="1"/>
        <pt x="113" y="112" on="0"/>
        <pt x="137" y="80" on="1"/>
        <pt x="158" y="53" on="0"/>
        <pt x="206" y="49" on="1"/>
      </contour>
    </TTGlyph>
    <TTGlyph name="lefttorightmark" xMin="-17" yMin="-250" xMax="166" yMax="286">
      <contour>
        <pt x="18" y="-250" on="1"/>
        <pt x="-17" y="-250" on="1"/>
        <pt x="-17" y="252" on="1"/>
        <pt x="115" y="252" on="1"/>
        <pt x="98" y="270" on="1"/>
        <pt x="114" y="286" on="1"/>
        <pt x="166" y="234" on="1"/>
        <pt x="114" y="182" on="1"/>
        <pt x="98" y="199" on="1"/>
        <pt x="115" y="217" on="1"/>
        <pt x="18" y="217" on="1"/>
      </contour>
    </TTGlyph>
    <TTGlyph name="less" xMin="36" yMin="-10" xMax="381" yMax="390">
      <contour>
        <pt x="381" y="-10" on="1"/>
        <pt x="36" y="170" on="1"/>
        <pt x="36" y="211" on="1"/>
        <pt x="381" y="390" on="1"/>
        <pt x="381" y="327" on="1"/>
        <pt x="116" y="190" on="1"/>
        <pt x="381" y="53" on="1"/>
      </contour>
    </TTGlyph>
    <TTGlyph name="lessequal" xMin="31" yMin="15" xMax="385" yMax="396">
      <contour>
        <pt x="385" y="15" on="1"/>
        <pt x="31" y="15" on="1"/>
        <pt x="31" y="67" on="1"/>
        <pt x="385" y="67" on="1"/>
      </contour>
      <contour>
        <pt x="358" y="88" on="1"/>
        <pt x="47" y="212" on="1"/>
        <pt x="47" y="272" on="1"/>
        <pt x="358" y="396" on="1"/>
        <pt x="358" y="334" on="1"/>
        <pt x="116" y="241" on="1"/>
        <pt x="358" y="149" on="1"/>
      </contour>
    </TTGlyph>
    <TTGlyph name="logicalnot" xMin="34" yMin="88" xMax="403" yMax="279">
      <contour>
        <pt x="403" y="88" on="1"/>
        <pt x="355" y="88" on="1"/>
        <pt x="355" y="234" on="1"/>
        <pt x="34" y="234" on="1"/>
        <pt x="34" y="279" on="1"/>
        <pt x="403" y="279" on="1"/>
      </contour>
    </TTGlyph>
    <TTGlyph name="lozenge" xMin="28" yMin="0" xMax="377" yMax="441">
      <contour>
        <pt x="377" y="220" on="1"/>
        <pt x="230" y="0" on="1"/>
        <pt x="175" y="0" on="1"/>
        <pt x="28" y="220" on="1"/>
        <pt x="175" y="441" on="1"/>
        <pt x="230" y="441" on="1"/>
      </contour>
      <contour>
        <pt x="317" y="220" on="1"/>
        <pt x="203" y="391" on="1"/>
        <pt x="88" y="220" on="1"/>
        <pt x="203" y="49" on="1"/>
      </contour>
    </TTGlyph>
    <TTGlyph name="lslash" xMin="8" yMin="-8" xMax="207" yMax="504">
      <contour>
        <pt x="207" y="49" on="1"/>
        <pt x="200" y="-8" on="1"/>
        <pt x="51" y="0" on="0"/>
        <pt x="51" y="175" on="1"/>
        <pt x="51" y="236" on="1"/>
        <pt x="8" y="224" on="1"/>
        <pt x="8" y="278" on="1"/>
        <pt x="51" y="290" on="1"/>
        <pt x="51" y="504" on="1"/>
        <pt x="114" y="504" on="1"/>
        <pt x="114" y="309" on="1"/>
        <pt x="207" y="337" on="1"/>
        <pt x="207" y="283" on="1"/>
        <pt x="114" y="255" on="1"/>
        <pt x="114" y="189" on="1"/>
        <pt x="114" y="112" on="0"/>
        <pt x="138" y="80" on="1"/>
        <pt x="159" y="53" on="0"/>
      </contour>
    </TTGlyph>
    <TTGlyph name="m" xMin="42" yMin="0" xMax="586" yMax="350">
      <contour>
        <pt x="586" y="0" on="1"/>
        <pt x="523" y="0" on="1"/>
        <pt x="523" y="188" on="1"/>
        <pt x="523" y="234" on="0"/>
        <pt x="502" y="264" on="1"/>
        <pt x="478" y="297" on="0"/>
        <pt x="439" y="297" on="1"/>
        <pt x="406" y="297" on="0"/>
        <pt x="349" y="245" on="0"/>
        <pt x="349" y="215" on="1"/>
        <pt x="349" y="0" on="1"/>
        <pt x="286" y="0" on="1"/>
        <pt x="286" y="205" on="1"/>
        <pt x="286" y="297" on="0"/>
        <pt x="209" y="297" on="1"/>
        <pt x="175" y="297" on="0"/>
        <pt x="113" y="236" on="0"/>
        <pt x="113" y="203" on="1"/>
        <pt x="113" y="0" on="1"/>
        <pt x="50" y="0" on="1"/>
        <pt x="50" y="250" on="1"/>
        <pt x="50" y="312" on="0"/>
        <pt x="42" y="341" on="1"/>
        <pt x="101" y="341" on="1"/>
        <pt x="108" y="324" on="0"/>
        <pt x="108" y="302" on="1"/>
        <pt x="122" y="322" on="0"/>
        <pt x="186" y="350" on="0"/>
        <pt x="217" y="350" on="1"/>
        <pt x="283" y="350" on="0"/>
        <pt x="323" y="294" on="1"/>
        <pt x="376" y="350" on="0"/>
        <pt x="451" y="350" on="1"/>
        <pt x="510" y="350" on="0"/>
        <pt x="586" y="261" on="0"/>
        <pt x="586" y="189" on="1"/>
      </contour>
    </TTGlyph>
    <TTGlyph name="macron" xMin="0" yMin="528" xMax="376" yMax="581">
      <contour>
        <pt x="376" y="528" on="1"/>
        <pt x="0" y="528" on="1"/>
        <pt x="0" y="581" on="1"/>
        <pt x="376" y="581" on="1"/>
      </contour>
    </TTGlyph>
    <TTGlyph name="minus" xMin="63" yMin="157" xMax="353" yMax="211">
      <contour>
        <pt x="353" y="157" on="1"/>
        <pt x="63" y="157" on="1"/>
        <pt x="63" y="211" on="1"/>
        <pt x="353" y="211" on="1"/>
      </contour>
    </TTGlyph>
    <TTGlyph name="minute" xMin="18" yMin="371" xMax="111" yMax="476">
      <contour>
        <pt x="45" y="371" on="1"/>
        <pt x="18" y="371" on="1"/>
        <pt x="56" y="476" on="1"/>
        <pt x="111" y="476" on="1"/>
      </contour>
    </TTGlyph>
    <TTGlyph name="mu" xMin="47" yMin="-141" xMax="386" yMax="342">
      <contour>
        <pt x="386" y="4" on="1"/>
        <pt x="325" y="-8" on="1"/>
        <pt x="320" y="3" on="0"/>
        <pt x="313" y="26" on="0"/>
        <pt x="310" y="40" on="1"/>
        <pt x="282" y="18" on="0"/>
        <pt x="223" y="-9" on="0"/>
        <pt x="188" y="-9" on="1"/>
        <pt x="165" y="-9" on="0"/>
        <pt x="124" y="7" on="0"/>
        <pt x="110" y="24" on="1"/>
        <pt x="110" y="-141" on="1"/>
        <pt x="47" y="-141" on="1"/>
        <pt x="47" y="342" on="1"/>
        <pt x="110" y="342" on="1"/>
        <pt x="110" y="160" on="1"/>
        <pt x="110" y="47" on="0"/>
        <pt x="196" y="47" on="1"/>
        <pt x="233" y="47" on="0"/>
        <pt x="302" y="98" on="0"/>
        <pt x="302" y="139" on="1"/>
        <pt x="302" y="342" on="1"/>
        <pt x="365" y="342" on="1"/>
        <pt x="365" y="91" on="1"/>
        <pt x="365" y="73" on="0"/>
        <pt x="376" y="29" on="0"/>
      </contour>
    </TTGlyph>
    <TTGlyph name="multiply" xMin="27" yMin="-5" xMax="390" yMax="372">
      <contour>
        <pt x="390" y="34" on="1"/>
        <pt x="350" y="-5" on="1"/>
        <pt x="208" y="143" on="1"/>
        <pt x="173" y="108" on="0"/>
        <pt x="101" y="30" on="0"/>
        <pt x="67" y="-5" on="1"/>
        <pt x="27" y="34" on="1"/>
        <pt x="169" y="182" on="1"/>
        <pt x="134" y="219" on="0"/>
        <pt x="62" y="296" on="0"/>
        <pt x="27" y="333" on="1"/>
        <pt x="67" y="372" on="1"/>
        <pt x="209" y="224" on="1"/>
        <pt x="243" y="260" on="0"/>
        <pt x="317" y="337" on="0"/>
        <pt x="350" y="372" on="1"/>
        <pt x="390" y="333" on="1"/>
        <pt x="247" y="183" on="1"/>
      </contour>
    </TTGlyph>
    <TTGlyph name="n" xMin="42" yMin="0" xMax="373" yMax="350">
      <contour>
        <pt x="373" y="0" on="1"/>
        <pt x="310" y="0" on="1"/>
        <pt x="310" y="193" on="1"/>
        <pt x="310" y="297" on="0"/>
        <pt x="215" y="297" on="1"/>
        <pt x="180" y="297" on="0"/>
        <pt x="113" y="234" on="0"/>
        <pt x="113" y="203" on="1"/>
        <pt x="113" y="0" on="1"/>
        <pt x="50" y="0" on="1"/>
        <pt x="50" y="250" on="1"/>
        <pt x="50" y="312" on="0"/>
        <pt x="42" y="341" on="1"/>
        <pt x="101" y="341" on="1"/>
        <pt x="108" y="324" on="0"/>
        <pt x="108" y="300" on="1"/>
        <pt x="156" y="350" on="0"/>
        <pt x="224" y="350" on="1"/>
        <pt x="292" y="350" on="0"/>
        <pt x="373" y="266" on="0"/>
        <pt x="373" y="193" on="1"/>
      </contour>
    </TTGlyph>
    <TTGlyph name="nine" xMin="36" yMin="-16" xMax="341" yMax="478">
      <contour>
        <pt x="341" y="299" on="1"/>
        <pt x="341" y="184" on="0"/>
        <pt x="189" y="8" on="0"/>
        <pt x="67" y="-16" on="1"/>
        <pt x="61" y="34" on="1"/>
        <pt x="122" y="50" on="0"/>
        <pt x="243" y="146" on="0"/>
        <pt x="267" y="196" on="1"/>
        <pt x="238" y="164" on="0"/>
        <pt x="178" y="164" on="1"/>
        <pt x="118" y="164" on="0"/>
        <pt x="36" y="254" on="0"/>
        <pt x="36" y="320" on="1"/>
        <pt x="36" y="387" on="0"/>
        <pt x="117" y="478" on="0"/>
        <pt x="180" y="478" on="1"/>
        <pt x="250" y="478" on="0"/>
        <pt x="341" y="380" on="0"/>
      </contour>
      <contour>
        <pt x="273" y="320" on="1"/>
        <pt x="273" y="362" on="0"/>
        <pt x="220" y="422" on="0"/>
        <pt x="182" y="422" on="1"/>
        <pt x="146" y="422" on="0"/>
        <pt x="94" y="360" on="0"/>
        <pt x="94" y="320" on="1"/>
        <pt x="94" y="280" on="0"/>
        <pt x="146" y="218" on="0"/>
        <pt x="182" y="218" on="1"/>
        <pt x="220" y="218" on="0"/>
        <pt x="273" y="277" on="0"/>
      </contour>
    </TTGlyph>
    <TTGlyph name="notequal" xMin="45" yMin="0" xMax="371" yMax="387">
      <contour>
        <pt x="371" y="97" on="1"/>
        <pt x="191" y="97" on="1"/>
        <pt x="179" y="74" on="0"/>
        <pt x="153" y="23" on="0"/>
        <pt x="142" y="0" on="1"/>
        <pt x="77" y="0" on="1"/>
        <pt x="125" y="97" on="1"/>
        <pt x="45" y="97" on="1"/>
        <pt x="45" y="150" on="1"/>
        <pt x="151" y="150" on="1"/>
        <pt x="162" y="170" on="0"/>
        <pt x="179" y="201" on="0"/>
        <pt x="190" y="223" on="1"/>
        <pt x="45" y="223" on="1"/>
        <pt x="45" y="276" on="1"/>
        <pt x="216" y="276" on="1"/>
        <pt x="274" y="387" on="1"/>
        <pt x="341" y="387" on="1"/>
        <pt x="284" y="276" on="1"/>
        <pt x="371" y="276" on="1"/>
        <pt x="371" y="223" on="1"/>
        <pt x="256" y="223" on="1"/>
        <pt x="247" y="204" on="0"/>
        <pt x="229" y="171" on="0"/>
        <pt x="218" y="150" on="1"/>
        <pt x="371" y="150" on="1"/>
      </contour>
    </TTGlyph>
    <TTGlyph name="ntilde" xMin="42" yMin="0" xMax="1734" yMax="864">
      <component glyphName="n" x="0" y="0" flags="0x204"/>
      <component glyphName="tildecomb" x="341" y="0" flags="0x4"/>
    </TTGlyph>
    <TTGlyph name="numbersign" xMin="33" yMin="0" xMax="428" yMax="475">
      <contour>
        <pt x="322" y="0" on="1"/>
        <pt x="263" y="0" on="1"/>
        <pt x="283" y="142" on="1"/>
        <pt x="154" y="142" on="1"/>
        <pt x="137" y="0" on="1"/>
        <pt x="78" y="0" on="1"/>
        <pt x="95" y="142" on="1"/>
        <pt x="33" y="142" on="1"/>
        <pt x="33" y="195" on="1"/>
        <pt x="102" y="195" on="1"/>
        <pt x="114" y="284" on="1"/>
        <pt x="46" y="284" on="1"/>
        <pt x="46" y="338" on="1"/>
        <pt x="120" y="338" on="1"/>
        <pt x="139" y="475" on="1"/>
        <pt x="196" y="475" on="1"/>
        <pt x="179" y="338" on="1"/>
        <pt x="306" y="338" on="1"/>
        <pt x="323" y="475" on="1"/>
        <pt x="382" y="475" on="1"/>
        <pt x="365" y="338" on="1"/>
        <pt x="428" y="338" on="1"/>
        <pt x="428" y="284" on="1"/>
        <pt x="357" y="284" on="1"/>
        <pt x="346" y="195" on="1"/>
        <pt x="413" y="195" on="1"/>
        <pt x="413" y="142" on="1"/>
        <pt x="341" y="142" on="1"/>
      </contour>
      <contour>
        <pt x="288" y="195" on="1"/>
        <pt x="300" y="284" on="1"/>
        <pt x="172" y="284" on="1"/>
        <pt x="161" y="195" on="1"/>
      </contour>
    </TTGlyph>
    <TTGlyph name="o" xMin="26" yMin="-8" xMax="386" yMax="353">
      <contour>
        <pt x="386" y="172" on="1"/>
        <pt x="386" y="96" on="0"/>
        <pt x="284" y="-8" on="0"/>
        <pt x="206" y="-8" on="1"/>
        <pt x="128" y="-8" on="0"/>
        <pt x="26" y="96" on="0"/>
        <pt x="26" y="172" on="1"/>
        <pt x="26" y="248" on="0"/>
        <pt x="128" y="353" on="0"/>
        <pt x="206" y="353" on="1"/>
        <pt x="284" y="353" on="0"/>
        <pt x="386" y="248" on="0"/>
      </contour>
      <contour>
        <pt x="324" y="172" on="1"/>
        <pt x="324" y="226" on="0"/>
        <pt x="258" y="299" on="0"/>
        <pt x="206" y="299" on="1"/>
        <pt x="154" y="299" on="0"/>
        <pt x="88" y="226" on="0"/>
        <pt x="88" y="172" on="1"/>
        <pt x="88" y="118" on="0"/>
        <pt x="154" y="45" on="0"/>
        <pt x="206" y="45" on="1"/>
        <pt x="258" y="45" on="0"/>
        <pt x="324" y="118" on="0"/>
      </contour>
    </TTGlyph>
    <TTGlyph name="oacute" xMin="26" yMin="-8" xMax="3183" yMax="1316">
      <component glyphName="o" x="0" y="0" flags="0x204"/>
      <component glyphName="acutecomb" x="347" y="0" flags="0x4"/>
    </TTGlyph>
    <TTGlyph name="ocircumflex" xMin="26" yMin="-8" xMax="875" yMax="1180">
      <component glyphName="o" x="0" y="0" flags="0x204"/>
      <component glyphName="circumflex" x="97" y="0" flags="0x4"/>
    </TTGlyph>
    <TTGlyph name="odieresis" xMin="26" yMin="-8" xMax="416" yMax="1149">
      <component glyphName="o" x="0" y="0" flags="0x204"/>
      <component glyphName="dieresis" x="35" y="0" flags="0x4"/>
    </TTGlyph>
    <TTGlyph name="oe" xMin="26" yMin="-9" xMax="663" yMax="353">
      <contour>
        <pt x="642" y="73" on="1"/>
        <pt x="649" y="18" on="1"/>
        <pt x="576" y="-9" on="0"/>
        <pt x="510" y="-9" on="1"/>
        <pt x="409" y="-9" on="0"/>
        <pt x="353" y="65" on="1"/>
        <pt x="300" y="-8" on="0"/>
        <pt x="206" y="-8" on="1"/>
        <pt x="128" y="-8" on="0"/>
        <pt x="26" y="96" on="0"/>
        <pt x="26" y="172" on="1"/>
        <pt x="26" y="248" on="0"/>
        <pt x="128" y="353" on="0"/>
        <pt x="206" y="353" on="1"/>
        <pt x="303" y="353" on="0"/>
        <pt x="354" y="276" on="1"/>
        <pt x="414" y="353" on="0"/>
        <pt x="506" y="353" on="1"/>
        <pt x="660" y="353" on="0"/>
        <pt x="663" y="160" on="1"/>
        <pt x="386" y="160" on="1"/>
        <pt x="390" y="107" on="0"/>
        <pt x="459" y="47" on="0"/>
        <pt x="514" y="47" on="1"/>
        <pt x="569" y="47" on="0"/>
      </contour>
      <contour>
        <pt x="324" y="172" on="1"/>
        <pt x="324" y="226" on="0"/>
        <pt x="258" y="299" on="0"/>
        <pt x="206" y="299" on="1"/>
        <pt x="154" y="299" on="0"/>
        <pt x="88" y="226" on="0"/>
        <pt x="88" y="172" on="1"/>
        <pt x="88" y="118" on="0"/>
        <pt x="154" y="45" on="0"/>
        <pt x="206" y="45" on="1"/>
        <pt x="258" y="45" on="0"/>
        <pt x="324" y="118" on="0"/>
      </contour>
      <contour>
        <pt x="390" y="213" on="1"/>
        <pt x="601" y="213" on="1"/>
        <pt x="596" y="253" on="0"/>
        <pt x="541" y="301" on="0"/>
        <pt x="500" y="301" on="1"/>
        <pt x="460" y="301" on="0"/>
        <pt x="397" y="252" on="0"/>
      </contour>
    </TTGlyph>
    <TTGlyph name="ogonek" xMin="53" yMin="-153" xMax="202" yMax="19">
      <contour>
        <pt x="202" y="-136" on="1"/>
        <pt x="161" y="-153" on="0"/>
        <pt x="129" y="-153" on="1"/>
        <pt x="90" y="-153" on="0"/>
        <pt x="53" y="-107" on="0"/>
        <pt x="53" y="-76" on="1"/>
        <pt x="53" y="-57" on="0"/>
        <pt x="64" y="-9" on="0"/>
        <pt x="72" y="19" on="1"/>
        <pt x="131" y="19" on="1"/>
        <pt x="110" y="-34" on="0"/>
        <pt x="110" y="-62" on="1"/>
        <pt x="110" y="-94" on="0"/>
        <pt x="138" y="-97" on="1"/>
        <pt x="149" y="-97" on="0"/>
        <pt x="184" y="-86" on="0"/>
        <pt x="202" y="-78" on="1"/>
      </contour>
    </TTGlyph>
    <TTGlyph name="ograve" xMin="26" yMin="-8" xMax="2668" yMax="1180">
      <component glyphName="o" x="0" y="0" flags="0x204"/>
      <component glyphName="gravecomb" x="325" y="0" flags="0x4"/>
    </TTGlyph>
    <TTGlyph name="ohorn" xMin="26" yMin="-8" xMax="400" yMax="379">
      <contour>
        <pt x="386" y="172" on="1"/>
        <pt x="386" y="96" on="0"/>
        <pt x="284" y="-8" on="0"/>
        <pt x="206" y="-8" on="1"/>
        <pt x="128" y="-8" on="0"/>
        <pt x="26" y="96" on="0"/>
        <pt x="26" y="172" on="1"/>
        <pt x="26" y="248" on="0"/>
        <pt x="128" y="353" on="0"/>
        <pt x="206" y="353" on="1"/>
        <pt x="276" y="353" on="0"/>
        <pt x="326" y="308" on="1"/>
        <pt x="346" y="341" on="0"/>
        <pt x="346" y="379" on="1"/>
        <pt x="400" y="379" on="1"/>
        <pt x="400" y="324" on="0"/>
        <pt x="358" y="270" on="1"/>
        <pt x="386" y="226" on="0"/>
      </contour>
      <contour>
        <pt x="324" y="172" on="1"/>
        <pt x="324" y="226" on="0"/>
        <pt x="258" y="299" on="0"/>
        <pt x="206" y="299" on="1"/>
        <pt x="154" y="299" on="0"/>
        <pt x="88" y="226" on="0"/>
        <pt x="88" y="172" on="1"/>
        <pt x="88" y="118" on="0"/>
        <pt x="154" y="45" on="0"/>
        <pt x="206" y="45" on="1"/>
        <pt x="258" y="45" on="0"/>
        <pt x="324" y="118" on="0"/>
      </contour>
    </TTGlyph>
    <TTGlyph name="one" xMin="70" yMin="0" xMax="307" yMax="478">
      <contour>
        <pt x="307" y="0" on="1"/>
        <pt x="96" y="0" on="1"/>
        <pt x="96" y="51" on="1"/>
        <pt x="170" y="51" on="1"/>
        <pt x="170" y="383" on="1"/>
        <pt x="107" y="330" on="1"/>
        <pt x="70" y="371" on="1"/>
        <pt x="197" y="478" on="1"/>
        <pt x="234" y="478" on="0"/>
        <pt x="234" y="430" on="1"/>
        <pt x="234" y="51" on="1"/>
        <pt x="307" y="51" on="1"/>
      </contour>
    </TTGlyph>
    <TTGlyph name="oneeighth" xMin="23" yMin="-9" xMax="511" yMax="468">
      <contour>
        <pt x="142" y="-9" on="1"/>
        <pt x="93" y="-9" on="1"/>
        <pt x="378" y="468" on="1"/>
        <pt x="427" y="468" on="1"/>
      </contour>
      <contour>
        <pt x="462" y="79" on="1"/>
        <pt x="462" y="96" on="0"/>
        <pt x="439" y="128" on="0"/>
        <pt x="413" y="130" on="1"/>
        <pt x="387" y="128" on="0"/>
        <pt x="363" y="96" on="0"/>
        <pt x="363" y="79" on="1"/>
        <pt x="363" y="59" on="0"/>
        <pt x="391" y="37" on="0"/>
        <pt x="413" y="37" on="1"/>
        <pt x="436" y="37" on="0"/>
        <pt x="462" y="59" on="0"/>
      </contour>
      <contour>
        <pt x="454" y="209" on="1"/>
        <pt x="454" y="223" on="0"/>
        <pt x="433" y="242" on="0"/>
        <pt x="413" y="242" on="1"/>
        <pt x="393" y="242" on="0"/>
        <pt x="372" y="223" on="0"/>
        <pt x="372" y="209" on="1"/>
        <pt x="372" y="197" on="0"/>
        <pt x="394" y="179" on="0"/>
        <pt x="412" y="174" on="1"/>
        <pt x="432" y="180" on="0"/>
        <pt x="454" y="198" on="0"/>
      </contour>
      <contour>
        <pt x="511" y="80" on="1"/>
        <pt x="511" y="39" on="0"/>
        <pt x="458" y="-8" on="0"/>
        <pt x="412" y="-8" on="1"/>
        <pt x="367" y="-8" on="0"/>
        <pt x="315" y="39" on="0"/>
        <pt x="315" y="80" on="1"/>
        <pt x="315" y="102" on="0"/>
        <pt x="336" y="142" on="0"/>
        <pt x="353" y="153" on="1"/>
        <pt x="340" y="163" on="0"/>
        <pt x="323" y="191" on="0"/>
        <pt x="323" y="207" on="1"/>
        <pt x="323" y="242" on="0"/>
        <pt x="374" y="287" on="0"/>
        <pt x="413" y="287" on="1"/>
        <pt x="451" y="287" on="0"/>
        <pt x="503" y="242" on="0"/>
        <pt x="503" y="207" on="1"/>
        <pt x="503" y="175" on="0"/>
        <pt x="473" y="153" on="1"/>
        <pt x="491" y="142" on="0"/>
        <pt x="511" y="103" on="0"/>
      </contour>
      <contour>
        <pt x="180" y="176" on="1"/>
        <pt x="46" y="176" on="1"/>
        <pt x="46" y="215" on="1"/>
        <pt x="89" y="215" on="1"/>
        <pt x="89" y="389" on="1"/>
        <pt x="51" y="356" on="1"/>
        <pt x="23" y="392" on="1"/>
        <pt x="107" y="466" on="1"/>
        <pt x="138" y="464" on="0"/>
        <pt x="138" y="431" on="1"/>
        <pt x="138" y="215" on="1"/>
        <pt x="180" y="215" on="1"/>
      </contour>
    </TTGlyph>
    <TTGlyph name="onehalf" xMin="23" yMin="-9" xMax="526" yMax="474">
      <contour>
        <pt x="520" y="0" on="1"/>
        <pt x="330" y="0" on="1"/>
        <pt x="333" y="38" on="0"/>
        <pt x="378" y="96" on="0"/>
        <pt x="403" y="119" on="1"/>
        <pt x="415" y="131" on="0"/>
        <pt x="440" y="154" on="0"/>
        <pt x="460" y="178" on="0"/>
        <pt x="473" y="201" on="0"/>
        <pt x="473" y="212" on="1"/>
        <pt x="473" y="226" on="0"/>
        <pt x="456" y="246" on="0"/>
        <pt x="439" y="246" on="1"/>
        <pt x="398" y="246" on="0"/>
        <pt x="391" y="192" on="1"/>
        <pt x="346" y="200" on="1"/>
        <pt x="350" y="245" on="0"/>
        <pt x="399" y="292" on="0"/>
        <pt x="436" y="292" on="1"/>
        <pt x="474" y="292" on="0"/>
        <pt x="522" y="250" on="0"/>
        <pt x="522" y="212" on="1"/>
        <pt x="522" y="187" on="0"/>
        <pt x="493" y="143" on="0"/>
        <pt x="454" y="102" on="0"/>
        <pt x="414" y="64" on="0"/>
        <pt x="402" y="46" on="1"/>
        <pt x="526" y="46" on="1"/>
      </contour>
      <contour>
        <pt x="158" y="-9" on="1"/>
        <pt x="108" y="-9" on="1"/>
        <pt x="395" y="474" on="1"/>
        <pt x="445" y="474" on="1"/>
      </contour>
      <contour>
        <pt x="180" y="176" on="1"/>
        <pt x="46" y="176" on="1"/>
        <pt x="46" y="215" on="1"/>
        <pt x="89" y="215" on="1"/>
        <pt x="89" y="389" on="1"/>
        <pt x="51" y="356" on="1"/>
        <pt x="23" y="392" on="1"/>
        <pt x="107" y="466" on="1"/>
        <pt x="138" y="464" on="0"/>
        <pt x="138" y="431" on="1"/>
        <pt x="138" y="215" on="1"/>
        <pt x="180" y="215" on="1"/>
      </contour>
    </TTGlyph>
    <TTGlyph name="onequarter" xMin="23" yMin="-9" xMax="506" yMax="474">
      <contour>
        <pt x="180" y="176" on="1"/>
        <pt x="46" y="176" on="1"/>
        <pt x="46" y="215" on="1"/>
        <pt x="89" y="215" on="1"/>
        <pt x="89" y="389" on="1"/>
        <pt x="51" y="356" on="1"/>
        <pt x="23" y="392" on="1"/>
        <pt x="107" y="466" on="1"/>
        <pt x="138" y="464" on="0"/>
        <pt x="138" y="431" on="1"/>
        <pt x="138" y="215" on="1"/>
        <pt x="180" y="215" on="1"/>
      </contour>
      <contour>
        <pt x="158" y="-9" on="1"/>
        <pt x="108" y="-9" on="1"/>
        <pt x="395" y="474" on="1"/>
        <pt x="445" y="474" on="1"/>
      </contour>
      <contour>
        <pt x="415" y="108" on="1"/>
        <pt x="415" y="226" on="1"/>
        <pt x="392" y="206" on="0"/>
        <pt x="359" y="139" on="0"/>
        <pt x="355" y="108" on="1"/>
      </contour>
      <contour>
        <pt x="464" y="0" on="1"/>
        <pt x="415" y="0" on="1"/>
        <pt x="415" y="60" on="1"/>
        <pt x="303" y="60" on="1"/>
        <pt x="303" y="92" on="0"/>
        <pt x="323" y="172" on="0"/>
        <pt x="363" y="243" on="0"/>
        <pt x="426" y="292" on="0"/>
        <pt x="464" y="293" on="1"/>
        <pt x="464" y="108" on="1"/>
        <pt x="506" y="108" on="1"/>
        <pt x="504" y="60" on="1"/>
        <pt x="464" y="60" on="1"/>
      </contour>
    </TTGlyph>
    <TTGlyph name="onesuperior" xMin="54" yMin="195" xMax="210" yMax="484">
      <contour>
        <pt x="210" y="195" on="1"/>
        <pt x="76" y="195" on="1"/>
        <pt x="76" y="234" on="1"/>
        <pt x="119" y="234" on="1"/>
        <pt x="119" y="414" on="1"/>
        <pt x="79" y="376" on="1"/>
        <pt x="54" y="410" on="1"/>
        <pt x="137" y="484" on="1"/>
        <pt x="152" y="484" on="0"/>
        <pt x="168" y="465" on="0"/>
        <pt x="168" y="450" on="1"/>
        <pt x="168" y="234" on="1"/>
        <pt x="210" y="234" on="1"/>
      </contour>
    </TTGlyph>
    <TTGlyph name="onethird" xMin="23" yMin="-9" xMax="515" yMax="468">
      <contour>
        <pt x="142" y="-9" on="1"/>
        <pt x="93" y="-9" on="1"/>
        <pt x="378" y="468" on="1"/>
        <pt x="427" y="468" on="1"/>
      </contour>
      <contour>
        <pt x="180" y="176" on="1"/>
        <pt x="46" y="176" on="1"/>
        <pt x="46" y="215" on="1"/>
        <pt x="89" y="215" on="1"/>
        <pt x="89" y="389" on="1"/>
        <pt x="51" y="356" on="1"/>
        <pt x="23" y="392" on="1"/>
        <pt x="107" y="466" on="1"/>
        <pt x="138" y="464" on="0"/>
        <pt x="138" y="431" on="1"/>
        <pt x="138" y="215" on="1"/>
        <pt x="180" y="215" on="1"/>
      </contour>
      <contour>
        <pt x="515" y="99" on="1"/>
        <pt x="515" y="73" on="0"/>
        <pt x="495" y="33" on="0"/>
        <pt x="463" y="6" on="0"/>
        <pt x="420" y="-8" on="0"/>
        <pt x="398" y="-8" on="1"/>
        <pt x="357" y="-8" on="0"/>
        <pt x="323" y="17" on="1"/>
        <pt x="343" y="60" on="1"/>
        <pt x="357" y="49" on="0"/>
        <pt x="385" y="38" on="0"/>
        <pt x="399" y="38" on="1"/>
        <pt x="431" y="38" on="0"/>
        <pt x="468" y="72" on="0"/>
        <pt x="468" y="98" on="1"/>
        <pt x="468" y="133" on="0"/>
        <pt x="435" y="133" on="1"/>
        <pt x="410" y="133" on="0"/>
        <pt x="389" y="115" on="1"/>
        <pt x="373" y="145" on="1"/>
        <pt x="417" y="168" on="0"/>
        <pt x="448" y="204" on="0"/>
        <pt x="448" y="224" on="1"/>
        <pt x="448" y="232" on="0"/>
        <pt x="436" y="243" on="0"/>
        <pt x="423" y="243" on="1"/>
        <pt x="383" y="243" on="0"/>
        <pt x="366" y="194" on="1"/>
        <pt x="329" y="213" on="1"/>
        <pt x="359" y="285" on="0"/>
        <pt x="426" y="285" on="1"/>
        <pt x="461" y="285" on="0"/>
        <pt x="494" y="253" on="0"/>
        <pt x="494" y="231" on="1"/>
        <pt x="494" y="197" on="0"/>
        <pt x="463" y="169" on="1"/>
        <pt x="490" y="165" on="0"/>
        <pt x="515" y="127" on="0"/>
      </contour>
    </TTGlyph>
    <TTGlyph name="ordfeminine" xMin="26" yMin="245" xMax="225" yMax="486">
      <contour>
        <pt x="225" y="248" on="1"/>
        <pt x="182" y="248" on="1"/>
        <pt x="180" y="253" on="0"/>
        <pt x="178" y="266" on="0"/>
        <pt x="176" y="274" on="1"/>
        <pt x="148" y="245" on="0"/>
        <pt x="106" y="245" on="1"/>
        <pt x="26" y="245" on="0"/>
        <pt x="26" y="317" on="1"/>
        <pt x="26" y="397" on="0"/>
        <pt x="173" y="400" on="1"/>
        <pt x="171" y="425" on="0"/>
        <pt x="140" y="446" on="0"/>
        <pt x="120" y="446" on="1"/>
        <pt x="103" y="446" on="0"/>
        <pt x="68" y="438" on="0"/>
        <pt x="51" y="426" on="1"/>
        <pt x="37" y="460" on="1"/>
        <pt x="58" y="474" on="0"/>
        <pt x="104" y="486" on="0"/>
        <pt x="127" y="486" on="1"/>
        <pt x="217" y="486" on="0"/>
        <pt x="217" y="376" on="1"/>
        <pt x="217" y="292" on="1"/>
        <pt x="217" y="287" on="0"/>
        <pt x="220" y="264" on="0"/>
      </contour>
      <contour>
        <pt x="173" y="324" on="1"/>
        <pt x="173" y="363" on="1"/>
        <pt x="119" y="363" on="0"/>
        <pt x="70" y="340" on="0"/>
        <pt x="70" y="317" on="1"/>
        <pt x="70" y="282" on="0"/>
        <pt x="112" y="282" on="1"/>
        <pt x="121" y="282" on="0"/>
        <pt x="142" y="288" on="0"/>
        <pt x="161" y="299" on="0"/>
        <pt x="173" y="314" on="0"/>
      </contour>
    </TTGlyph>
    <TTGlyph name="ordmasculine" xMin="19" yMin="232" xMax="274" yMax="487">
      <contour>
        <pt x="274" y="359" on="1"/>
        <pt x="274" y="305" on="0"/>
        <pt x="199" y="232" on="0"/>
        <pt x="146" y="232" on="1"/>
        <pt x="92" y="232" on="0"/>
        <pt x="19" y="305" on="0"/>
        <pt x="19" y="359" on="1"/>
        <pt x="19" y="412" on="0"/>
        <pt x="92" y="487" on="0"/>
        <pt x="146" y="487" on="1"/>
        <pt x="199" y="487" on="0"/>
        <pt x="274" y="412" on="0"/>
      </contour>
      <contour>
        <pt x="230" y="359" on="1"/>
        <pt x="230" y="393" on="0"/>
        <pt x="180" y="443" on="0"/>
        <pt x="146" y="443" on="1"/>
        <pt x="112" y="443" on="0"/>
        <pt x="63" y="393" on="0"/>
        <pt x="63" y="359" on="1"/>
        <pt x="63" y="325" on="0"/>
        <pt x="112" y="276" on="0"/>
        <pt x="146" y="276" on="1"/>
        <pt x="180" y="276" on="0"/>
        <pt x="230" y="325" on="0"/>
      </contour>
    </TTGlyph>
    <TTGlyph name="oslash" xMin="26" yMin="-28" xMax="386" yMax="378">
      <contour>
        <pt x="386" y="172" on="1"/>
        <pt x="386" y="96" on="0"/>
        <pt x="284" y="-8" on="0"/>
        <pt x="206" y="-8" on="1"/>
        <pt x="173" y="-8" on="0"/>
        <pt x="145" y="1" on="1"/>
        <pt x="130" y="-28" on="1"/>
        <pt x="66" y="-28" on="1"/>
        <pt x="95" y="28" on="1"/>
        <pt x="85" y="35" on="0"/>
        <pt x="77" y="44" on="1"/>
        <pt x="26" y="96" on="0"/>
        <pt x="26" y="172" on="1"/>
        <pt x="26" y="248" on="0"/>
        <pt x="128" y="353" on="0"/>
        <pt x="206" y="353" on="1"/>
        <pt x="234" y="353" on="0"/>
        <pt x="259" y="346" on="1"/>
        <pt x="276" y="378" on="1"/>
        <pt x="340" y="378" on="1"/>
        <pt x="311" y="321" on="1"/>
        <pt x="323" y="312" on="0"/>
        <pt x="335" y="300" on="1"/>
        <pt x="386" y="248" on="0"/>
      </contour>
      <contour>
        <pt x="324" y="172" on="1"/>
        <pt x="324" y="226" on="0"/>
        <pt x="291" y="262" on="1"/>
        <pt x="287" y="266" on="0"/>
        <pt x="284" y="269" on="1"/>
        <pt x="170" y="50" on="1"/>
        <pt x="187" y="45" on="0"/>
        <pt x="206" y="45" on="1"/>
        <pt x="258" y="45" on="0"/>
        <pt x="324" y="118" on="0"/>
      </contour>
      <contour>
        <pt x="233" y="296" on="1"/>
        <pt x="220" y="299" on="0"/>
        <pt x="206" y="299" on="1"/>
        <pt x="154" y="299" on="0"/>
        <pt x="88" y="226" on="0"/>
        <pt x="88" y="172" on="1"/>
        <pt x="88" y="118" on="0"/>
        <pt x="121" y="81" on="1"/>
        <pt x="122" y="80" on="1"/>
      </contour>
    </TTGlyph>
    <TTGlyph name="otilde" xMin="26" yMin="-8" xMax="2070" yMax="864">
      <component glyphName="o" x="0" y="0" flags="0x204"/>
      <component glyphName="tildecomb" x="336" y="0" flags="0x4"/>
    </TTGlyph>
    <TTGlyph name="p" xMin="46" yMin="-143" xMax="405" yMax="353">
      <contour>
        <pt x="405" y="179" on="1"/>
        <pt x="405" y="96" on="0"/>
        <pt x="303" y="-9" on="0"/>
        <pt x="227" y="-9" on="1"/>
        <pt x="157" y="-9" on="0"/>
        <pt x="113" y="32" on="1"/>
        <pt x="113" y="-143" on="1"/>
        <pt x="50" y="-143" on="1"/>
        <pt x="50" y="230" on="1"/>
        <pt x="50" y="313" on="0"/>
        <pt x="46" y="346" on="1"/>
        <pt x="108" y="346" on="1"/>
        <pt x="115" y="309" on="1"/>
        <pt x="168" y="353" on="0"/>
        <pt x="235" y="353" on="1"/>
        <pt x="309" y="353" on="0"/>
        <pt x="405" y="253" on="0"/>
      </contour>
      <contour>
        <pt x="344" y="178" on="1"/>
        <pt x="344" y="230" on="0"/>
        <pt x="279" y="301" on="0"/>
        <pt x="229" y="301" on="1"/>
        <pt x="189" y="301" on="0"/>
        <pt x="113" y="237" on="0"/>
        <pt x="113" y="198" on="1"/>
        <pt x="113" y="142" on="1"/>
        <pt x="113" y="103" on="0"/>
        <pt x="178" y="46" on="0"/>
        <pt x="225" y="46" on="1"/>
        <pt x="281" y="46" on="0"/>
        <pt x="344" y="117" on="0"/>
      </contour>
    </TTGlyph>
    <TTGlyph name="paragraph" xMin="48" yMin="-63" xMax="324" yMax="475">
      <contour>
        <pt x="324" y="-63" on="1"/>
        <pt x="290" y="-63" on="1"/>
        <pt x="290" y="443" on="1"/>
        <pt x="242" y="443" on="1"/>
        <pt x="242" y="-63" on="1"/>
        <pt x="207" y="-63" on="1"/>
        <pt x="207" y="180" on="1"/>
        <pt x="203" y="180" on="1"/>
        <pt x="143" y="180" on="0"/>
        <pt x="48" y="255" on="0"/>
        <pt x="48" y="321" on="1"/>
        <pt x="48" y="475" on="0"/>
        <pt x="246" y="475" on="1"/>
        <pt x="299" y="475" on="0"/>
        <pt x="324" y="470" on="1"/>
      </contour>
    </TTGlyph>
    <TTGlyph name="parenleft" xMin="44" yMin="-55" xMax="233" yMax="530">
      <contour>
        <pt x="162" y="-55" on="1"/>
        <pt x="44" y="67" on="0"/>
        <pt x="44" y="235" on="1"/>
        <pt x="44" y="392" on="0"/>
        <pt x="159" y="530" on="1"/>
        <pt x="233" y="530" on="1"/>
        <pt x="106" y="391" on="0"/>
        <pt x="106" y="235" on="1"/>
        <pt x="106" y="87" on="0"/>
        <pt x="232" y="-55" on="1"/>
      </contour>
    </TTGlyph>
    <TTGlyph name="parenright" xMin="11" yMin="-55" xMax="199" yMax="530">
      <contour>
        <pt x="199" y="238" on="1"/>
        <pt x="199" y="74" on="0"/>
        <pt x="81" y="-55" on="1"/>
        <pt x="12" y="-55" on="1"/>
        <pt x="137" y="94" on="0"/>
        <pt x="137" y="238" on="1"/>
        <pt x="137" y="383" on="0"/>
        <pt x="11" y="530" on="1"/>
        <pt x="80" y="530" on="1"/>
        <pt x="199" y="403" on="0"/>
      </contour>
    </TTGlyph>
    <TTGlyph name="partialdiff" xMin="34" yMin="-5" xMax="315" yMax="455">
      <contour>
        <pt x="315" y="281" on="1"/>
        <pt x="315" y="184" on="0"/>
        <pt x="273" y="100" on="1"/>
        <pt x="221" y="-5" on="0"/>
        <pt x="132" y="-5" on="1"/>
        <pt x="92" y="-5" on="0"/>
        <pt x="34" y="54" on="0"/>
        <pt x="34" y="108" on="1"/>
        <pt x="34" y="196" on="0"/>
        <pt x="102" y="248" on="1"/>
        <pt x="162" y="293" on="0"/>
        <pt x="245" y="293" on="1"/>
        <pt x="254" y="293" on="1"/>
        <pt x="249" y="396" on="0"/>
        <pt x="211" y="396" on="1"/>
        <pt x="174" y="396" on="0"/>
        <pt x="150" y="324" on="1"/>
        <pt x="95" y="354" on="1"/>
        <pt x="141" y="455" on="0"/>
        <pt x="210" y="455" on="1"/>
        <pt x="315" y="455" on="0"/>
      </contour>
      <contour>
        <pt x="252" y="237" on="1"/>
        <pt x="245" y="237" on="1"/>
        <pt x="178" y="237" on="0"/>
        <pt x="138" y="195" on="1"/>
        <pt x="102" y="159" on="0"/>
        <pt x="102" y="108" on="1"/>
        <pt x="102" y="57" on="0"/>
        <pt x="143" y="57" on="1"/>
        <pt x="189" y="57" on="0"/>
        <pt x="221" y="125" on="1"/>
        <pt x="244" y="173" on="0"/>
      </contour>
    </TTGlyph>
    <TTGlyph name="percent" xMin="39" yMin="-9" xMax="649" yMax="485">
      <contour>
        <pt x="217" y="-9" on="1"/>
        <pt x="156" y="-9" on="1"/>
        <pt x="461" y="476" on="1"/>
        <pt x="522" y="476" on="1"/>
      </contour>
      <contour>
        <pt x="276" y="338" on="1"/>
        <pt x="276" y="192" on="0"/>
        <pt x="157" y="192" on="1"/>
        <pt x="39" y="192" on="0"/>
        <pt x="39" y="338" on="1"/>
        <pt x="39" y="485" on="0"/>
        <pt x="157" y="485" on="1"/>
        <pt x="276" y="485" on="0"/>
      </contour>
      <contour>
        <pt x="217" y="338" on="1"/>
        <pt x="217" y="432" on="0"/>
        <pt x="157" y="432" on="1"/>
        <pt x="99" y="432" on="0"/>
        <pt x="99" y="338" on="1"/>
        <pt x="99" y="246" on="0"/>
        <pt x="157" y="246" on="1"/>
        <pt x="217" y="246" on="0"/>
      </contour>
      <contour>
        <pt x="649" y="139" on="1"/>
        <pt x="649" y="-8" on="0"/>
        <pt x="529" y="-8" on="1"/>
        <pt x="410" y="-8" on="0"/>
        <pt x="410" y="139" on="1"/>
        <pt x="410" y="285" on="0"/>
        <pt x="529" y="285" on="1"/>
        <pt x="649" y="285" on="0"/>
      </contour>
      <contour>
        <pt x="589" y="139" on="1"/>
        <pt x="589" y="233" on="0"/>
        <pt x="529" y="233" on="1"/>
        <pt x="470" y="233" on="0"/>
        <pt x="470" y="139" on="1"/>
        <pt x="470" y="46" on="0"/>
        <pt x="529" y="46" on="1"/>
        <pt x="589" y="46" on="0"/>
      </contour>
    </TTGlyph>
    <TTGlyph name="period" xMin="38" yMin="-9" xMax="134" yMax="87">
      <contour>
        <pt x="134" y="39" on="1"/>
        <pt x="134" y="19" on="0"/>
        <pt x="106" y="-9" on="0"/>
        <pt x="86" y="-9" on="1"/>
        <pt x="66" y="-9" on="0"/>
        <pt x="38" y="19" on="0"/>
        <pt x="38" y="39" on="1"/>
        <pt x="38" y="59" on="0"/>
        <pt x="66" y="87" on="0"/>
        <pt x="86" y="87" on="1"/>
        <pt x="106" y="87" on="0"/>
        <pt x="134" y="59" on="0"/>
      </contour>
    </TTGlyph>
    <TTGlyph name="periodcentered" xMin="38" yMin="134" xMax="134" yMax="230">
      <contour>
        <pt x="134" y="182" on="1"/>
        <pt x="134" y="162" on="0"/>
        <pt x="106" y="134" on="0"/>
        <pt x="86" y="134" on="1"/>
        <pt x="66" y="134" on="0"/>
        <pt x="38" y="162" on="0"/>
        <pt x="38" y="182" on="1"/>
        <pt x="38" y="202" on="0"/>
        <pt x="66" y="230" on="0"/>
        <pt x="86" y="230" on="1"/>
        <pt x="106" y="230" on="0"/>
        <pt x="134" y="202" on="0"/>
      </contour>
    </TTGlyph>
    <TTGlyph name="perthousand" xMin="39" yMin="-9" xMax="933" yMax="485">
      <contour>
        <pt x="217" y="-9" on="1"/>
        <pt x="156" y="-9" on="1"/>
        <pt x="461" y="476" on="1"/>
        <pt x="522" y="476" on="1"/>
      </contour>
      <contour>
        <pt x="276" y="338" on="1"/>
        <pt x="276" y="192" on="0"/>
        <pt x="157" y="192" on="1"/>
        <pt x="39" y="192" on="0"/>
        <pt x="39" y="338" on="1"/>
        <pt x="39" y="485" on="0"/>
        <pt x="157" y="485" on="1"/>
        <pt x="276" y="485" on="0"/>
      </contour>
      <contour>
        <pt x="217" y="338" on="1"/>
        <pt x="217" y="432" on="0"/>
        <pt x="157" y="432" on="1"/>
        <pt x="99" y="432" on="0"/>
        <pt x="99" y="338" on="1"/>
        <pt x="99" y="246" on="0"/>
        <pt x="157" y="246" on="1"/>
        <pt x="217" y="246" on="0"/>
      </contour>
      <contour>
        <pt x="649" y="139" on="1"/>
        <pt x="649" y="-8" on="0"/>
        <pt x="529" y="-8" on="1"/>
        <pt x="410" y="-8" on="0"/>
        <pt x="410" y="139" on="1"/>
        <pt x="410" y="285" on="0"/>
        <pt x="529" y="285" on="1"/>
        <pt x="649" y="285" on="0"/>
      </contour>
      <contour>
        <pt x="589" y="139" on="1"/>
        <pt x="589" y="233" on="0"/>
        <pt x="529" y="233" on="1"/>
        <pt x="470" y="233" on="0"/>
        <pt x="470" y="139" on="1"/>
        <pt x="470" y="46" on="0"/>
        <pt x="529" y="46" on="1"/>
        <pt x="589" y="46" on="0"/>
      </contour>
      <contour>
        <pt x="933" y="139" on="1"/>
        <pt x="933" y="-8" on="0"/>
        <pt x="813" y="-8" on="1"/>
        <pt x="694" y="-8" on="0"/>
        <pt x="694" y="139" on="1"/>
        <pt x="694" y="285" on="0"/>
        <pt x="813" y="285" on="1"/>
        <pt x="933" y="285" on="0"/>
      </contour>
      <contour>
        <pt x="873" y="139" on="1"/>
        <pt x="873" y="233" on="0"/>
        <pt x="813" y="233" on="1"/>
        <pt x="754" y="233" on="0"/>
        <pt x="754" y="139" on="1"/>
        <pt x="754" y="46" on="0"/>
        <pt x="813" y="46" on="1"/>
        <pt x="873" y="46" on="0"/>
      </contour>
    </TTGlyph>
    <TTGlyph name="plus" xMin="29" yMin="0" xMax="388" yMax="363">
      <contour>
        <pt x="240" y="0" on="1"/>
        <pt x="177" y="0" on="1"/>
        <pt x="177" y="157" on="1"/>
        <pt x="29" y="157" on="1"/>
        <pt x="29" y="212" on="1"/>
        <pt x="177" y="212" on="1"/>
        <pt x="177" y="363" on="1"/>
        <pt x="240" y="363" on="1"/>
        <pt x="240" y="212" on="1"/>
        <pt x="388" y="212" on="1"/>
        <pt x="388" y="157" on="1"/>
        <pt x="240" y="157" on="1"/>
      </contour>
    </TTGlyph>
    <TTGlyph name="plusminus" xMin="36" yMin="0" xMax="405" yMax="423">
      <contour>
        <pt x="405" y="0" on="1"/>
        <pt x="36" y="0" on="1"/>
        <pt x="36" y="55" on="1"/>
        <pt x="405" y="55" on="1"/>
      </contour>
      <contour>
        <pt x="400" y="217" on="1"/>
        <pt x="252" y="217" on="1"/>
        <pt x="252" y="78" on="1"/>
        <pt x="189" y="78" on="1"/>
        <pt x="189" y="217" on="1"/>
        <pt x="41" y="217" on="1"/>
        <pt x="41" y="272" on="1"/>
        <pt x="189" y="272" on="1"/>
        <pt x="189" y="423" on="1"/>
        <pt x="252" y="423" on="1"/>
        <pt x="252" y="272" on="1"/>
        <pt x="400" y="272" on="1"/>
      </contour>
    </TTGlyph>
    <TTGlyph name="product" xMin="53" yMin="-75" xMax="439" yMax="476">
      <contour>
        <pt x="439" y="-75" on="1"/>
        <pt x="376" y="-75" on="1"/>
        <pt x="376" y="422" on="1"/>
        <pt x="117" y="422" on="1"/>
        <pt x="117" y="-75" on="1"/>
        <pt x="53" y="-75" on="1"/>
        <pt x="53" y="476" on="1"/>
        <pt x="439" y="476" on="1"/>
      </contour>
    </TTGlyph>
    <TTGlyph name="q" xMin="26" yMin="-143" xMax="385" yMax="353">
      <contour>
        <pt x="381" y="-143" on="1"/>
        <pt x="318" y="-143" on="1"/>
        <pt x="318" y="32" on="1"/>
        <pt x="274" y="-9" on="0"/>
        <pt x="204" y="-9" on="1"/>
        <pt x="128" y="-9" on="0"/>
        <pt x="26" y="96" on="0"/>
        <pt x="26" y="179" on="1"/>
        <pt x="26" y="253" on="0"/>
        <pt x="122" y="353" on="0"/>
        <pt x="196" y="353" on="1"/>
        <pt x="263" y="353" on="0"/>
        <pt x="316" y="309" on="1"/>
        <pt x="323" y="346" on="1"/>
        <pt x="385" y="346" on="1"/>
        <pt x="381" y="313" on="0"/>
        <pt x="381" y="230" on="1"/>
      </contour>
      <contour>
        <pt x="318" y="142" on="1"/>
        <pt x="318" y="198" on="1"/>
        <pt x="318" y="237" on="0"/>
        <pt x="242" y="301" on="0"/>
        <pt x="202" y="301" on="1"/>
        <pt x="152" y="301" on="0"/>
        <pt x="87" y="230" on="0"/>
        <pt x="87" y="178" on="1"/>
        <pt x="87" y="117" on="0"/>
        <pt x="150" y="46" on="0"/>
        <pt x="206" y="46" on="1"/>
        <pt x="253" y="46" on="0"/>
        <pt x="318" y="103" on="0"/>
      </contour>
    </TTGlyph>
    <TTGlyph name="question" xMin="24" yMin="-9" xMax="265" yMax="483">
      <contour>
        <pt x="265" y="371" on="1"/>
        <pt x="265" y="317" on="0"/>
        <pt x="199" y="250" on="1"/>
        <pt x="154" y="205" on="0"/>
        <pt x="153" y="159" on="1"/>
        <pt x="153" y="144" on="0"/>
        <pt x="160" y="117" on="1"/>
        <pt x="103" y="117" on="1"/>
        <pt x="93" y="147" on="0"/>
        <pt x="93" y="162" on="1"/>
        <pt x="93" y="211" on="0"/>
        <pt x="202" y="337" on="0"/>
        <pt x="202" y="369" on="1"/>
        <pt x="202" y="426" on="0"/>
        <pt x="132" y="426" on="1"/>
        <pt x="89" y="426" on="0"/>
        <pt x="49" y="397" on="1"/>
        <pt x="24" y="446" on="1"/>
        <pt x="83" y="483" on="0"/>
        <pt x="139" y="483" on="1"/>
        <pt x="196" y="483" on="0"/>
        <pt x="265" y="422" on="0"/>
      </contour>
      <contour>
        <pt x="183" y="39" on="1"/>
        <pt x="183" y="19" on="0"/>
        <pt x="155" y="-9" on="0"/>
        <pt x="135" y="-9" on="1"/>
        <pt x="115" y="-9" on="0"/>
        <pt x="87" y="19" on="0"/>
        <pt x="87" y="39" on="1"/>
        <pt x="87" y="59" on="0"/>
        <pt x="115" y="87" on="0"/>
        <pt x="135" y="87" on="1"/>
        <pt x="155" y="87" on="0"/>
        <pt x="183" y="59" on="0"/>
      </contour>
    </TTGlyph>
    <TTGlyph name="questiondown" xMin="24" yMin="-151" xMax="265" yMax="341">
      <contour>
        <pt x="265" y="-114" on="1"/>
        <pt x="206" y="-151" on="0"/>
        <pt x="150" y="-151" on="1"/>
        <pt x="93" y="-151" on="0"/>
        <pt x="24" y="-90" on="0"/>
        <pt x="24" y="-39" on="1"/>
        <pt x="24" y="14" on="0"/>
        <pt x="90" y="82" on="1"/>
        <pt x="113" y="105" on="0"/>
        <pt x="135" y="152" on="0"/>
        <pt x="136" y="173" on="1"/>
        <pt x="136" y="190" on="0"/>
        <pt x="129" y="215" on="1"/>
        <pt x="186" y="215" on="1"/>
        <pt x="191" y="201" on="0"/>
        <pt x="196" y="178" on="0"/>
        <pt x="196" y="170" on="1"/>
        <pt x="196" y="115" on="0"/>
        <pt x="138" y="54" on="1"/>
        <pt x="87" y="0" on="0"/>
        <pt x="87" y="-37" on="1"/>
        <pt x="87" y="-94" on="0"/>
        <pt x="157" y="-94" on="1"/>
        <pt x="200" y="-94" on="0"/>
        <pt x="240" y="-65" on="1"/>
      </contour>
      <contour>
        <pt x="201" y="293" on="1"/>
        <pt x="201" y="273" on="0"/>
        <pt x="173" y="245" on="0"/>
        <pt x="154" y="245" on="1"/>
        <pt x="135" y="245" on="0"/>
        <pt x="107" y="273" on="0"/>
        <pt x="107" y="293" on="1"/>
        <pt x="107" y="313" on="0"/>
        <pt x="135" y="341" on="0"/>
        <pt x="154" y="341" on="1"/>
        <pt x="173" y="341" on="0"/>
        <pt x="201" y="313" on="0"/>
      </contour>
    </TTGlyph>
    <TTGlyph name="quotedbl" xMin="49" yMin="333" xMax="241" yMax="526">
      <contour>
        <pt x="229" y="333" on="1"/>
        <pt x="183" y="333" on="1"/>
        <pt x="170" y="526" on="1"/>
        <pt x="241" y="526" on="1"/>
      </contour>
      <contour>
        <pt x="107" y="333" on="1"/>
        <pt x="62" y="333" on="1"/>
        <pt x="49" y="526" on="1"/>
        <pt x="120" y="526" on="1"/>
      </contour>
    </TTGlyph>
    <TTGlyph name="quotedblbase" xMin="85" yMin="-100" xMax="312" yMax="87">
      <contour>
        <pt x="181" y="42" on="1"/>
        <pt x="180" y="-18" on="0"/>
        <pt x="123" y="-91" on="0"/>
        <pt x="100" y="-100" on="1"/>
        <pt x="85" y="-83" on="1"/>
        <pt x="136" y="-50" on="0"/>
        <pt x="144" y="-3" on="1"/>
        <pt x="142" y="-3" on="0"/>
        <pt x="137" y="-4" on="0"/>
        <pt x="135" y="-4" on="1"/>
        <pt x="116" y="-4" on="0"/>
        <pt x="89" y="23" on="0"/>
        <pt x="89" y="42" on="1"/>
        <pt x="89" y="61" on="0"/>
        <pt x="116" y="87" on="0"/>
        <pt x="135" y="87" on="1"/>
        <pt x="154" y="87" on="0"/>
        <pt x="180" y="61" on="0"/>
      </contour>
      <contour>
        <pt x="312" y="42" on="1"/>
        <pt x="311" y="-18" on="0"/>
        <pt x="254" y="-91" on="0"/>
        <pt x="231" y="-100" on="1"/>
        <pt x="216" y="-83" on="1"/>
        <pt x="267" y="-50" on="0"/>
        <pt x="275" y="-3" on="1"/>
        <pt x="273" y="-3" on="0"/>
        <pt x="268" y="-4" on="0"/>
        <pt x="266" y="-4" on="1"/>
        <pt x="247" y="-4" on="0"/>
        <pt x="220" y="23" on="0"/>
        <pt x="220" y="42" on="1"/>
        <pt x="220" y="61" on="0"/>
        <pt x="247" y="87" on="0"/>
        <pt x="266" y="87" on="1"/>
        <pt x="285" y="87" on="0"/>
        <pt x="311" y="61" on="0"/>
      </contour>
    </TTGlyph>
    <TTGlyph name="quotedblleft" xMin="72" yMin="328" xMax="299" yMax="515">
      <contour>
        <pt x="164" y="373" on="1"/>
        <pt x="164" y="354" on="0"/>
        <pt x="137" y="328" on="0"/>
        <pt x="118" y="328" on="1"/>
        <pt x="99" y="328" on="0"/>
        <pt x="73" y="354" on="0"/>
        <pt x="72" y="373" on="1"/>
        <pt x="73" y="433" on="0"/>
        <pt x="130" y="506" on="0"/>
        <pt x="153" y="515" on="1"/>
        <pt x="168" y="498" on="1"/>
        <pt x="117" y="465" on="0"/>
        <pt x="109" y="418" on="1"/>
        <pt x="111" y="418" on="0"/>
        <pt x="116" y="419" on="0"/>
        <pt x="118" y="419" on="1"/>
        <pt x="137" y="419" on="0"/>
        <pt x="164" y="392" on="0"/>
      </contour>
      <contour>
        <pt x="295" y="373" on="1"/>
        <pt x="295" y="354" on="0"/>
        <pt x="268" y="328" on="0"/>
        <pt x="249" y="328" on="1"/>
        <pt x="230" y="328" on="0"/>
        <pt x="204" y="354" on="0"/>
        <pt x="203" y="373" on="1"/>
        <pt x="204" y="433" on="0"/>
        <pt x="261" y="506" on="0"/>
        <pt x="284" y="515" on="1"/>
        <pt x="299" y="498" on="1"/>
        <pt x="248" y="465" on="0"/>
        <pt x="240" y="418" on="1"/>
        <pt x="242" y="418" on="0"/>
        <pt x="247" y="419" on="0"/>
        <pt x="249" y="419" on="1"/>
        <pt x="268" y="419" on="0"/>
        <pt x="295" y="392" on="0"/>
      </contour>
    </TTGlyph>
    <TTGlyph name="quotedblright" xMin="85" yMin="314" xMax="312" yMax="501">
      <contour>
        <pt x="181" y="456" on="1"/>
        <pt x="180" y="396" on="0"/>
        <pt x="123" y="323" on="0"/>
        <pt x="100" y="314" on="1"/>
        <pt x="85" y="331" on="1"/>
        <pt x="136" y="364" on="0"/>
        <pt x="144" y="411" on="1"/>
        <pt x="142" y="411" on="0"/>
        <pt x="137" y="410" on="0"/>
        <pt x="135" y="410" on="1"/>
        <pt x="116" y="410" on="0"/>
        <pt x="89" y="437" on="0"/>
        <pt x="89" y="456" on="1"/>
        <pt x="89" y="475" on="0"/>
        <pt x="116" y="501" on="0"/>
        <pt x="135" y="501" on="1"/>
        <pt x="154" y="501" on="0"/>
        <pt x="180" y="475" on="0"/>
      </contour>
      <contour>
        <pt x="312" y="456" on="1"/>
        <pt x="311" y="396" on="0"/>
        <pt x="254" y="323" on="0"/>
        <pt x="231" y="314" on="1"/>
        <pt x="216" y="331" on="1"/>
        <pt x="267" y="364" on="0"/>
        <pt x="275" y="411" on="1"/>
        <pt x="273" y="411" on="0"/>
        <pt x="268" y="410" on="0"/>
        <pt x="266" y="410" on="1"/>
        <pt x="247" y="410" on="0"/>
        <pt x="220" y="437" on="0"/>
        <pt x="220" y="456" on="1"/>
        <pt x="220" y="475" on="0"/>
        <pt x="247" y="501" on="0"/>
        <pt x="266" y="501" on="1"/>
        <pt x="285" y="501" on="0"/>
        <pt x="311" y="475" on="0"/>
      </contour>
    </TTGlyph>
    <TTGlyph name="quoteleft" xMin="72" yMin="328" xMax="168" yMax="515">
      <contour>
        <pt x="164" y="373" on="1"/>
        <pt x="164" y="354" on="0"/>
        <pt x="137" y="328" on="0"/>
        <pt x="118" y="328" on="1"/>
        <pt x="99" y="328" on="0"/>
        <pt x="73" y="354" on="0"/>
        <pt x="72" y="373" on="1"/>
        <pt x="73" y="433" on="0"/>
        <pt x="130" y="506" on="0"/>
        <pt x="153" y="515" on="1"/>
        <pt x="168" y="498" on="1"/>
        <pt x="117" y="465" on="0"/>
        <pt x="109" y="418" on="1"/>
        <pt x="111" y="418" on="0"/>
        <pt x="116" y="419" on="0"/>
        <pt x="118" y="419" on="1"/>
        <pt x="137" y="419" on="0"/>
        <pt x="164" y="392" on="0"/>
      </contour>
    </TTGlyph>
    <TTGlyph name="quoteright" xMin="85" yMin="314" xMax="181" yMax="501">
      <contour>
        <pt x="181" y="456" on="1"/>
        <pt x="180" y="396" on="0"/>
        <pt x="123" y="323" on="0"/>
        <pt x="100" y="314" on="1"/>
        <pt x="85" y="331" on="1"/>
        <pt x="136" y="364" on="0"/>
        <pt x="144" y="411" on="1"/>
        <pt x="142" y="411" on="0"/>
        <pt x="137" y="410" on="0"/>
        <pt x="135" y="410" on="1"/>
        <pt x="116" y="410" on="0"/>
        <pt x="89" y="437" on="0"/>
        <pt x="89" y="456" on="1"/>
        <pt x="89" y="475" on="0"/>
        <pt x="116" y="501" on="0"/>
        <pt x="135" y="501" on="1"/>
        <pt x="154" y="501" on="0"/>
        <pt x="180" y="475" on="0"/>
      </contour>
    </TTGlyph>
    <TTGlyph name="quotesinglbase" xMin="85" yMin="-100" xMax="181" yMax="87">
      <contour>
        <pt x="181" y="42" on="1"/>
        <pt x="180" y="-18" on="0"/>
        <pt x="123" y="-91" on="0"/>
        <pt x="100" y="-100" on="1"/>
        <pt x="85" y="-83" on="1"/>
        <pt x="136" y="-50" on="0"/>
        <pt x="144" y="-3" on="1"/>
        <pt x="142" y="-3" on="0"/>
        <pt x="137" y="-4" on="0"/>
        <pt x="135" y="-4" on="1"/>
        <pt x="116" y="-4" on="0"/>
        <pt x="89" y="23" on="0"/>
        <pt x="89" y="42" on="1"/>
        <pt x="89" y="61" on="0"/>
        <pt x="116" y="87" on="0"/>
        <pt x="135" y="87" on="1"/>
        <pt x="154" y="87" on="0"/>
        <pt x="180" y="61" on="0"/>
      </contour>
    </TTGlyph>
    <TTGlyph name="quotesingle" xMin="49" yMin="333" xMax="120" yMax="526">
      <contour>
        <pt x="107" y="333" on="1"/>
        <pt x="62" y="333" on="1"/>
        <pt x="49" y="526" on="1"/>
        <pt x="120" y="526" on="1"/>
      </contour>
    </TTGlyph>
    <TTGlyph name="r" xMin="38" yMin="0" xMax="231" yMax="350">
      <contour>
        <pt x="113" y="0" on="1"/>
        <pt x="50" y="0" on="1"/>
        <pt x="50" y="225" on="1"/>
        <pt x="50" y="305" on="0"/>
        <pt x="38" y="345" on="1"/>
        <pt x="94" y="345" on="1"/>
        <pt x="105" y="327" on="0"/>
        <pt x="105" y="297" on="1"/>
        <pt x="114" y="316" on="0"/>
        <pt x="171" y="350" on="0"/>
        <pt x="199" y="350" on="1"/>
        <pt x="219" y="350" on="0"/>
        <pt x="231" y="347" on="1"/>
        <pt x="231" y="293" on="1"/>
        <pt x="223" y="295" on="0"/>
        <pt x="208" y="295" on="1"/>
        <pt x="113" y="295" on="0"/>
        <pt x="113" y="181" on="1"/>
      </contour>
    </TTGlyph>
</ttFont>
